<svg width="24" height="24" viewBox="0 0 24 24" fill="none" xmlns="http://www.w3.org/2000/svg">
<g clip-path="url(#clip0_2_486)">
<rect width="24" height="24" rx="12" fill="white"/>
<g clip-path="url(#clip1_2_486)">
<path d="M-4 0H28V24H-4V0Z" fill="#74ACDF"/>
<path d="M-4 8H28V16H-4V8Z" fill="white"/>
<path d="M11.8464 12.0624L13.2144 15.0384C13.2144 15.0384 13.2384 15.096 13.2768 15.0816C13.3152 15.0624 13.2912 15.0096 13.2912 15.0096L12.1536 11.9376M12.12 13.0944C12.1008 13.5456 12.3792 13.7952 12.3456 14.1984C12.3072 14.6064 12.528 14.832 12.5856 14.9904C12.6336 15.1488 12.5232 15.24 12.5712 15.264C12.6192 15.288 12.7152 15.1632 12.6864 14.9376C12.6528 14.7168 12.4848 14.6496 12.5232 14.1552C12.5616 13.6608 12.3216 13.5456 12.3792 13.0992" fill="#F6B40E"/>
<path d="M11.8464 12.0624L13.2144 15.0384C13.2144 15.0384 13.2384 15.096 13.2768 15.0816C13.3152 15.0624 13.2912 15.0096 13.2912 15.0096L12.1536 11.9376M12.12 13.0944C12.1008 13.5456 12.3792 13.7952 12.3456 14.1984C12.3072 14.6064 12.528 14.832 12.5856 14.9904C12.6336 15.1488 12.5232 15.24 12.5712 15.264C12.6192 15.288 12.7152 15.1632 12.6864 14.9376C12.6528 14.7168 12.4848 14.6496 12.5232 14.1552C12.5616 13.6608 12.3216 13.5456 12.3792 13.0992" stroke="#85340A" stroke-width="0.132"/>
<path d="M11.8342 11.9988L11.9592 15.2718C11.9592 15.2718 11.9593 15.3342 12.0003 15.3356C12.0432 15.3326 12.0412 15.2746 12.0412 15.2746L12.1658 12.0011M11.6921 13.057C11.5017 13.4665 11.6633 13.8036 11.478 14.1633C11.2864 14.5255 11.4041 14.8185 11.3967 14.9868C11.3804 15.1516 11.2435 15.1936 11.2786 15.2341C11.3138 15.2746 11.4503 15.1961 11.51 14.9766C11.5634 14.7598 11.4339 14.6334 11.6586 14.1913C11.8833 13.7493 11.7056 13.551 11.9297 13.1606" fill="#F6B40E"/>
<path d="M11.8342 11.9988L11.9592 15.2718C11.9592 15.2718 11.9593 15.3342 12.0003 15.3356C12.0432 15.3326 12.0412 15.2746 12.0412 15.2746L12.1658 12.0011M11.6921 13.057C11.5017 13.4665 11.6633 13.8036 11.478 14.1633C11.2864 14.5255 11.4041 14.8185 11.3967 14.9868C11.3804 15.1516 11.2435 15.1936 11.2786 15.2341C11.3138 15.2746 11.4503 15.1961 11.51 14.9766C11.5634 14.7598 11.4339 14.6334 11.6586 14.1913C11.8833 13.7493 11.7056 13.551 11.9297 13.1606" stroke="#85340A" stroke-width="0.132"/>
<path d="M11.8473 11.9355L10.7102 15.0072C10.7102 15.0072 10.6865 15.0649 10.7238 15.0819C10.7645 15.0955 10.7849 15.0412 10.7849 15.0412L12.1527 12.0645M11.311 12.8587C10.9784 13.1642 10.9987 13.5376 10.6899 13.7989C10.3742 14.0603 10.3708 14.3759 10.2996 14.5286C10.2215 14.6746 10.0789 14.661 10.0959 14.7119C10.1129 14.7628 10.269 14.7425 10.4082 14.5626C10.5405 14.3827 10.4693 14.2164 10.846 13.8939C11.2228 13.5715 11.1345 13.3203 11.4909 13.0454" fill="#F6B40E"/>
<path d="M11.8473 11.9355L10.7102 15.0072C10.7102 15.0072 10.6865 15.0649 10.7238 15.0819C10.7645 15.0955 10.7849 15.0412 10.7849 15.0412L12.1527 12.0645M11.311 12.8587C10.9784 13.1642 10.9987 13.5376 10.6899 13.7989C10.3742 14.0603 10.3708 14.3759 10.2996 14.5286C10.2215 14.6746 10.0789 14.661 10.0959 14.7119C10.1129 14.7628 10.269 14.7425 10.4082 14.5626C10.5405 14.3827 10.4693 14.2164 10.846 13.8939C11.2228 13.5715 11.1345 13.3203 11.4909 13.0454" stroke="#85340A" stroke-width="0.132"/>
<path d="M11.8836 11.882L9.65762 14.2847C9.65762 14.2847 9.61358 14.3289 9.64158 14.3589C9.67402 14.387 9.71361 14.3447 9.71361 14.3447L12.1164 12.118M11.0348 12.5297C10.6106 12.6846 10.4866 13.0373 10.1012 13.1606C9.70956 13.2813 9.58563 13.5716 9.46133 13.6854C9.33336 13.7904 9.20685 13.7233 9.20305 13.7768C9.19924 13.8303 9.35128 13.8713 9.54869 13.7583C9.73982 13.6428 9.73761 13.4619 10.2091 13.3081C10.6805 13.1544 10.6951 12.8886 11.1296 12.771" fill="#F6B40E"/>
<path d="M11.8836 11.882L9.65762 14.2847C9.65762 14.2847 9.61358 14.3289 9.64158 14.3589C9.67402 14.387 9.71361 14.3447 9.71361 14.3447L12.1164 12.118M11.0348 12.5297C10.6106 12.6846 10.4866 13.0373 10.1012 13.1606C9.70956 13.2813 9.58563 13.5716 9.46133 13.6854C9.33336 13.7904 9.20685 13.7233 9.20305 13.7768C9.19924 13.8303 9.35128 13.8713 9.54869 13.7583C9.73982 13.6428 9.73761 13.4619 10.2091 13.3081C10.6805 13.1544 10.6951 12.8886 11.1296 12.771" stroke="#85340A" stroke-width="0.132"/>
<path d="M12.2064 13.1712C12.2304 13.6032 12.4752 13.7952 12.4272 14.1936C12.5328 13.8816 12.2784 13.6368 12.2928 13.176M11.9232 12.0336L12.8592 14.0784L12.0768 11.9712" fill="#85340A"/>
<path d="M11.7425 13.161C11.5993 13.5693 11.752 13.8404 11.5552 14.1901C11.7722 13.9422 11.6308 13.6187 11.8205 13.1985M11.9162 12.0016L11.9984 14.249L12.082 12.0028" fill="#85340A"/>
<path d="M11.3178 12.9741C11.0293 13.2965 11.0666 13.6054 10.751 13.8531C11.0463 13.7072 11.0395 13.3542 11.3755 13.0386M11.9219 11.9694L11.1379 14.0772L12.0747 12.0339" fill="#85340A"/>
<path d="M10.9969 12.639C10.607 12.8264 10.5233 13.1261 10.1369 13.2342C10.4655 13.2124 10.5943 12.8837 11.0256 12.7206M11.9396 11.942L10.4086 13.5892L12.056 12.06" fill="#85340A"/>
<path d="M11.9376 11.8464L8.9616 13.2144C8.9616 13.2144 8.904 13.2384 8.9184 13.2768C8.9376 13.3152 8.9904 13.2912 8.9904 13.2912L12.0624 12.1536M10.9056 12.12C10.4544 12.1008 10.2048 12.3792 9.8016 12.3456C9.3936 12.3072 9.168 12.528 9.0096 12.5856C8.8512 12.6336 8.76 12.5232 8.736 12.5712C8.712 12.6192 8.8368 12.7152 9.0624 12.6864C9.2832 12.6528 9.3504 12.4848 9.8448 12.5232C10.3392 12.5616 10.4544 12.3216 10.9008 12.3792" fill="#F6B40E"/>
<path d="M11.9376 11.8464L8.9616 13.2144C8.9616 13.2144 8.904 13.2384 8.9184 13.2768C8.9376 13.3152 8.9904 13.2912 8.9904 13.2912L12.0624 12.1536M10.9056 12.12C10.4544 12.1008 10.2048 12.3792 9.8016 12.3456C9.3936 12.3072 9.168 12.528 9.0096 12.5856C8.8512 12.6336 8.76 12.5232 8.736 12.5712C8.712 12.6192 8.8368 12.7152 9.0624 12.6864C9.2832 12.6528 9.3504 12.4848 9.8448 12.5232C10.3392 12.5616 10.4544 12.3216 10.9008 12.3792" stroke="#85340A" stroke-width="0.132"/>
<path d="M12.0011 11.8342L8.72816 11.9592C8.72816 11.9592 8.66575 11.9593 8.66436 12.0003C8.66741 12.0431 8.72537 12.0412 8.72537 12.0412L11.9989 12.1658M10.943 11.692C10.5335 11.5016 10.1963 11.6633 9.83669 11.478C9.47444 11.2864 9.18152 11.404 9.01313 11.3966C8.84842 11.3804 8.80641 11.2435 8.76587 11.2786C8.72533 11.3138 8.80389 11.4502 9.02334 11.51C9.24019 11.5634 9.36657 11.4339 9.80864 11.6586C10.2507 11.8833 10.449 11.7056 10.8394 11.9297" fill="#F6B40E"/>
<path d="M12.0011 11.8342L8.72816 11.9592C8.72816 11.9592 8.66575 11.9593 8.66436 12.0003C8.66741 12.0431 8.72537 12.0412 8.72537 12.0412L11.9989 12.1658M10.943 11.692C10.5335 11.5016 10.1963 11.6633 9.83669 11.478C9.47444 11.2864 9.18152 11.404 9.01313 11.3966C8.84842 11.3804 8.80641 11.2435 8.76587 11.2786C8.72533 11.3138 8.80389 11.4502 9.02334 11.51C9.24019 11.5634 9.36657 11.4339 9.80864 11.6586C10.2507 11.8833 10.449 11.7056 10.8394 11.9297" stroke="#85340A" stroke-width="0.132"/>
<path d="M12.0645 11.8473L8.99281 10.7103C8.99281 10.7103 8.93511 10.6865 8.91814 10.7238C8.90457 10.7646 8.95887 10.7849 8.95887 10.7849L11.9355 12.1528M11.1413 11.311C10.8358 10.9784 10.4625 10.9988 10.2011 10.6899C9.93977 10.3743 9.62412 10.3709 9.47138 10.2996C9.32544 10.2215 9.33901 10.079 9.2881 10.0959C9.23719 10.1129 9.25755 10.269 9.43744 10.4082C9.61733 10.5406 9.78364 10.4693 10.1061 10.846C10.4285 11.2228 10.6797 11.1345 10.9546 11.4909" fill="#F6B40E"/>
<path d="M12.0645 11.8473L8.99281 10.7103C8.99281 10.7103 8.93511 10.6865 8.91814 10.7238C8.90457 10.7646 8.95887 10.7849 8.95887 10.7849L11.9355 12.1528M11.1413 11.311C10.8358 10.9784 10.4625 10.9988 10.2011 10.6899C9.93977 10.3743 9.62412 10.3709 9.47138 10.2996C9.32544 10.2215 9.33901 10.079 9.2881 10.0959C9.23719 10.1129 9.25755 10.269 9.43744 10.4082C9.61733 10.5406 9.78364 10.4693 10.1061 10.846C10.4285 11.2228 10.6797 11.1345 10.9546 11.4909" stroke="#85340A" stroke-width="0.132"/>
<path d="M12.118 11.8836L9.71529 9.65765C9.71529 9.65765 9.67108 9.61362 9.64111 9.64161C9.61298 9.67405 9.65536 9.71364 9.65536 9.71364L11.882 12.1165M11.4703 11.0349C11.3154 10.6107 10.9627 10.4866 10.8394 10.1012C10.7188 9.70959 10.4284 9.58566 10.3146 9.46136C10.2096 9.33339 10.2767 9.20688 10.2232 9.20308C10.1697 9.19927 10.1287 9.35131 10.2417 9.54872C10.3572 9.73985 10.5381 9.73765 10.6919 10.2091C10.8456 10.6806 11.1114 10.6952 11.229 11.1296" fill="#F6B40E"/>
<path d="M12.118 11.8836L9.71529 9.65765C9.71529 9.65765 9.67108 9.61362 9.64111 9.64161C9.61298 9.67405 9.65536 9.71364 9.65536 9.71364L11.882 12.1165M11.4703 11.0349C11.3154 10.6107 10.9627 10.4866 10.8394 10.1012C10.7188 9.70959 10.4284 9.58566 10.3146 9.46136C10.2096 9.33339 10.2767 9.20688 10.2232 9.20308C10.1697 9.19927 10.1287 9.35131 10.2417 9.54872C10.3572 9.73985 10.5381 9.73765 10.6919 10.2091C10.8456 10.6806 11.1114 10.6952 11.229 11.1296" stroke="#85340A" stroke-width="0.132"/>
<path d="M10.8288 12.2064C10.3968 12.2304 10.2048 12.4752 9.8064 12.4272C10.1184 12.5328 10.3632 12.2784 10.824 12.2928M11.9664 11.9232L9.9216 12.8592L12.0288 12.0768" fill="#85340A"/>
<path d="M10.839 11.7425C10.4307 11.5993 10.1596 11.752 9.8099 11.5552C10.0577 11.7722 10.3813 11.6308 10.8015 11.8205M11.9983 11.9162L9.75101 11.9984L11.9972 12.082" fill="#85340A"/>
<path d="M11.0259 11.3178C10.7034 11.0293 10.3946 11.0666 10.1468 10.751C10.2928 11.0463 10.6457 11.0395 10.9614 11.3755M12.0305 11.9219L9.9228 11.1379L11.9661 12.0747" fill="#85340A"/>
<path d="M11.3611 10.9969C11.1736 10.607 10.874 10.5233 10.7659 10.1368C10.7877 10.4655 11.1164 10.5943 11.2795 11.0255M12.0581 11.9395L10.4108 10.4086L11.9401 12.056" fill="#85340A"/>
<path d="M12.1536 11.9376L10.7856 8.96158C10.7856 8.96158 10.7616 8.90398 10.7232 8.91838C10.6848 8.93758 10.7088 8.99038 10.7088 8.99038L11.8464 12.0624M11.88 10.9056C11.8992 10.4544 11.6208 10.2048 11.6544 9.80158C11.6928 9.39358 11.472 9.16798 11.4144 9.00958C11.3664 8.85118 11.4768 8.75998 11.4288 8.73598C11.3808 8.71198 11.2848 8.83678 11.3136 9.06238C11.3472 9.28318 11.5152 9.35038 11.4768 9.84478C11.4384 10.3392 11.6784 10.4544 11.6208 10.9008" fill="#F6B40E"/>
<path d="M12.1536 11.9376L10.7856 8.96158C10.7856 8.96158 10.7616 8.90398 10.7232 8.91838C10.6848 8.93758 10.7088 8.99038 10.7088 8.99038L11.8464 12.0624M11.88 10.9056C11.8992 10.4544 11.6208 10.2048 11.6544 9.80158C11.6928 9.39358 11.472 9.16798 11.4144 9.00958C11.3664 8.85118 11.4768 8.75998 11.4288 8.73598C11.3808 8.71198 11.2848 8.83678 11.3136 9.06238C11.3472 9.28318 11.5152 9.35038 11.4768 9.84478C11.4384 10.3392 11.6784 10.4544 11.6208 10.9008" stroke="#85340A" stroke-width="0.132"/>
<path d="M12.1658 12.0012L12.0408 8.72818C12.0408 8.72818 12.0407 8.66578 11.9997 8.66439C11.9568 8.66743 11.9588 8.7254 11.9588 8.7254L11.8342 11.9989M12.3079 10.943C12.4983 10.5335 12.3367 10.1964 12.522 9.83671C12.7136 9.47446 12.5959 9.18154 12.6033 9.01316C12.6196 8.84844 12.7565 8.80644 12.7214 8.76589C12.6862 8.72535 12.5497 8.80391 12.49 9.02336C12.4366 9.24021 12.5661 9.36659 12.3414 9.80866C12.1167 10.2507 12.2944 10.449 12.0703 10.8394" fill="#F6B40E"/>
<path d="M12.1658 12.0012L12.0408 8.72818C12.0408 8.72818 12.0407 8.66578 11.9997 8.66439C11.9568 8.66743 11.9588 8.7254 11.9588 8.7254L11.8342 11.9989M12.3079 10.943C12.4983 10.5335 12.3367 10.1964 12.522 9.83671C12.7136 9.47446 12.5959 9.18154 12.6033 9.01316C12.6196 8.84844 12.7565 8.80643 12.7214 8.76589C12.6862 8.72535 12.5497 8.80391 12.49 9.02336C12.4366 9.24021 12.5661 9.36659 12.3414 9.80866C12.1167 10.2507 12.2944 10.449 12.0703 10.8394" stroke="#85340A" stroke-width="0.132"/>
<path d="M12.1527 12.0645L13.2898 8.99279C13.2898 8.99279 13.3135 8.93509 13.2762 8.91812C13.2355 8.90454 13.2151 8.95885 13.2151 8.95885L11.8473 11.9355M12.689 11.1413C13.0216 10.8358 13.0013 10.4624 13.3101 10.2011C13.6258 9.93975 13.6292 9.6241 13.7004 9.47136C13.7785 9.32541 13.9211 9.33899 13.9041 9.28808C13.8871 9.23717 13.731 9.25753 13.5918 9.43742C13.4595 9.61731 13.5307 9.78362 13.154 10.1061C12.7772 10.4285 12.8655 10.6797 12.5091 10.9546" fill="#F6B40E"/>
<path d="M12.1527 12.0645L13.2898 8.99279C13.2898 8.99279 13.3135 8.93509 13.2762 8.91812C13.2355 8.90454 13.2151 8.95885 13.2151 8.95885L11.8473 11.9355M12.689 11.1413C13.0216 10.8358 13.0013 10.4624 13.3101 10.2011C13.6258 9.93975 13.6292 9.6241 13.7004 9.47136C13.7785 9.32541 13.9211 9.33899 13.9041 9.28808C13.8871 9.23717 13.731 9.25753 13.5918 9.43742C13.4595 9.61731 13.5307 9.78362 13.154 10.1061C12.7772 10.4285 12.8655 10.6797 12.5091 10.9546" stroke="#85340A" stroke-width="0.132"/>
<path d="M12.1164 12.118L14.3424 9.71528C14.3424 9.71528 14.3864 9.67106 14.3584 9.6411C14.326 9.61297 14.2864 9.65535 14.2864 9.65535L11.8836 11.882M12.9652 11.4703C13.3894 11.3154 13.5134 10.9627 13.8988 10.8394C14.2904 10.7187 14.4144 10.4284 14.5387 10.3146C14.6666 10.2096 14.7931 10.2767 14.797 10.2232C14.8008 10.1697 14.6487 10.1287 14.4513 10.2417C14.2602 10.3572 14.2624 10.5381 13.7909 10.6919C13.3195 10.8456 13.3049 11.1114 12.8704 11.229" fill="#F6B40E"/>
<path d="M12.1164 12.118L14.3424 9.71528C14.3424 9.71528 14.3864 9.67106 14.3584 9.6411C14.326 9.61297 14.2864 9.65535 14.2864 9.65535L11.8836 11.882M12.9652 11.4703C13.3894 11.3154 13.5134 10.9627 13.8988 10.8394C14.2904 10.7187 14.4144 10.4284 14.5387 10.3146C14.6666 10.2096 14.7931 10.2767 14.797 10.2232C14.8008 10.1697 14.6487 10.1287 14.4513 10.2417C14.2602 10.3572 14.2624 10.5381 13.7909 10.6919C13.3195 10.8456 13.3049 11.1114 12.8704 11.229" stroke="#85340A" stroke-width="0.132"/>
<path d="M11.7936 10.8288C11.7696 10.3968 11.5248 10.2048 11.5728 9.80641C11.4672 10.1184 11.7216 10.3632 11.7072 10.824M12.0768 11.9664L11.1408 9.92161L11.9232 12.0288" fill="#85340A"/>
<path d="M12.2575 10.839C12.4007 10.4307 12.248 10.1596 12.4448 9.80993C12.2278 10.0578 12.3692 10.3813 12.1795 10.8015M12.0838 11.9984L12.0016 9.75104L11.918 11.9972" fill="#85340A"/>
<path d="M12.6822 11.0259C12.9707 10.7035 12.9334 10.3946 13.249 10.1469C12.9537 10.2928 12.9605 10.6458 12.6245 10.9614M12.0781 12.0306L12.8621 9.92284L11.9253 11.9661" fill="#85340A"/>
<path d="M13.0031 11.361C13.393 11.1736 13.4767 10.8739 13.8631 10.7658C13.5345 10.7876 13.4057 11.1163 12.9744 11.2794M12.0604 12.058L13.5914 10.4108L11.944 11.94" fill="#85340A"/>
<path d="M12.0624 12.1536L15.0384 10.7856C15.0384 10.7856 15.096 10.7616 15.0816 10.7232C15.0624 10.6848 15.0096 10.7088 15.0096 10.7088L11.9376 11.8464M13.0944 11.88C13.5456 11.8992 13.7952 11.6208 14.1984 11.6544C14.6064 11.6928 14.832 11.472 14.9904 11.4144C15.1488 11.3664 15.24 11.4768 15.264 11.4288C15.288 11.3808 15.1632 11.2848 14.9376 11.3136C14.7168 11.3472 14.6496 11.5152 14.1552 11.4768C13.6608 11.4384 13.5456 11.6784 13.0992 11.6208" fill="#F6B40E"/>
<path d="M12.0624 12.1536L15.0384 10.7856C15.0384 10.7856 15.096 10.7616 15.0816 10.7232C15.0624 10.6848 15.0096 10.7088 15.0096 10.7088L11.9376 11.8464M13.0944 11.88C13.5456 11.8992 13.7952 11.6208 14.1984 11.6544C14.6064 11.6928 14.832 11.472 14.9904 11.4144C15.1488 11.3664 15.24 11.4768 15.264 11.4288C15.288 11.3808 15.1632 11.2848 14.9376 11.3136C14.7168 11.3472 14.6496 11.5152 14.1552 11.4768C13.6608 11.4384 13.5456 11.6784 13.0992 11.6208" stroke="#85340A" stroke-width="0.132"/>
<path d="M11.9989 12.1658L15.2718 12.0408C15.2718 12.0408 15.3342 12.0407 15.3356 11.9997C15.3326 11.9569 15.2746 11.9588 15.2746 11.9588L12.0011 11.8342M13.057 12.308C13.4665 12.4984 13.8037 12.3367 14.1633 12.522C14.5256 12.7136 14.8185 12.596 14.9869 12.6034C15.1516 12.6196 15.1936 12.7565 15.2341 12.7214C15.2747 12.6862 15.1961 12.5498 14.9767 12.49C14.7598 12.4366 14.6334 12.5661 14.1914 12.3414C13.7493 12.1167 13.551 12.2944 13.1606 12.0703" fill="#F6B40E"/>
<path d="M11.9989 12.1658L15.2718 12.0408C15.2718 12.0408 15.3342 12.0407 15.3356 11.9997C15.3326 11.9569 15.2746 11.9588 15.2746 11.9588L12.0011 11.8342M13.057 12.308C13.4665 12.4984 13.8037 12.3367 14.1633 12.522C14.5256 12.7136 14.8185 12.596 14.9869 12.6034C15.1516 12.6196 15.1936 12.7565 15.2341 12.7214C15.2747 12.6862 15.1961 12.5498 14.9767 12.49C14.7598 12.4366 14.6334 12.5661 14.1914 12.3414C13.7493 12.1167 13.551 12.2944 13.1606 12.0703" stroke="#85340A" stroke-width="0.132"/>
<path d="M11.9355 12.1527L15.0072 13.2897C15.0072 13.2897 15.0649 13.3135 15.0819 13.2762C15.0954 13.2354 15.0411 13.2151 15.0411 13.2151L12.0645 11.8472M12.8587 12.689C13.1642 13.0216 13.5375 13.0012 13.7989 13.3101C14.0602 13.6257 14.3759 13.6291 14.5286 13.7004C14.6746 13.7785 14.661 13.921 14.7119 13.9041C14.7628 13.8871 14.7424 13.731 14.5626 13.5918C14.3827 13.4594 14.2164 13.5307 13.8939 13.154C13.5715 12.7772 13.3203 12.8655 13.0454 12.5091" fill="#F6B40E"/>
<path d="M11.9355 12.1527L15.0072 13.2897C15.0072 13.2897 15.0649 13.3135 15.0819 13.2762C15.0954 13.2354 15.0411 13.2151 15.0411 13.2151L12.0645 11.8472M12.8587 12.689C13.1642 13.0216 13.5375 13.0012 13.7989 13.3101C14.0602 13.6257 14.3759 13.6291 14.5286 13.7004C14.6746 13.7785 14.661 13.921 14.7119 13.9041C14.7628 13.8871 14.7424 13.731 14.5626 13.5918C14.3827 13.4594 14.2164 13.5307 13.8939 13.154C13.5715 12.7772 13.3203 12.8655 13.0454 12.5091" stroke="#85340A" stroke-width="0.132"/>
<path d="M11.882 12.1164L14.2847 14.3424C14.2847 14.3424 14.3289 14.3864 14.3589 14.3584C14.387 14.326 14.3446 14.2864 14.3446 14.2864L12.118 11.8835M12.5297 12.9651C12.6846 13.3893 13.0373 13.5134 13.1606 13.8988C13.2812 14.2904 13.5716 14.4143 13.6854 14.5386C13.7904 14.6666 13.7233 14.7931 13.7768 14.7969C13.8303 14.8007 13.8713 14.6487 13.7583 14.4513C13.6428 14.2601 13.4619 14.2624 13.3081 13.7909C13.1544 13.3194 12.8886 13.3048 12.771 12.8704" fill="#F6B40E"/>
<path d="M11.882 12.1164L14.2847 14.3424C14.2847 14.3424 14.3289 14.3864 14.3589 14.3584C14.387 14.326 14.3446 14.2864 14.3446 14.2864L12.118 11.8835M12.5297 12.9651C12.6846 13.3893 13.0373 13.5134 13.1606 13.8988C13.2812 14.2904 13.5716 14.4143 13.6854 14.5386C13.7904 14.6666 13.7233 14.7931 13.7768 14.7969C13.8303 14.8007 13.8713 14.6487 13.7583 14.4513C13.6428 14.2601 13.4619 14.2624 13.3081 13.7909C13.1544 13.3194 12.8886 13.3048 12.771 12.8704" stroke="#85340A" stroke-width="0.132"/>
<path d="M13.1712 11.7936C13.6032 11.7696 13.7952 11.5248 14.1936 11.5728C13.8816 11.4672 13.6368 11.7216 13.176 11.7072M12.0336 12.0768L14.0784 11.1408L11.9712 11.9232" fill="#85340A"/>
<path d="M13.161 12.2575C13.5693 12.4007 13.8404 12.248 14.1901 12.4448C13.9423 12.2278 13.6187 12.3692 13.1985 12.1795M12.0017 12.0838L14.249 12.0016L12.0028 11.918" fill="#85340A"/>
<path d="M12.9741 12.6822C13.2966 12.9707 13.6054 12.9334 13.8532 13.249C13.7072 12.9537 13.3543 12.9605 13.0386 12.6245M11.9695 12.0781L14.0772 12.8621L12.0339 11.9253" fill="#85340A"/>
<path d="M12.6389 13.0031C12.8264 13.393 13.126 13.4767 13.2341 13.8632C13.2123 13.5345 12.8836 13.4057 12.7205 12.9745M11.9419 12.0605L13.5892 13.5914L12.0599 11.944" fill="#85340A"/>
<path d="M12 13.335C12.7373 13.335 13.335 12.7373 13.335 12C13.335 11.2627 12.7373 10.665 12 10.665C11.2627 10.665 10.665 11.2627 10.665 12C10.665 12.7373 11.2627 13.335 12 13.335Z" fill="#F6B40E" stroke="#85340A" stroke-width="0.175"/>
<path d="M12.455 11.715C12.365 11.715 12.275 11.755 12.225 11.835C12.325 11.93 12.555 11.935 12.71 11.825C12.6772 11.7902 12.6377 11.7625 12.5939 11.7436C12.55 11.7247 12.5028 11.7149 12.455 11.715ZM12.455 11.735C12.54 11.735 12.625 11.775 12.635 11.815C12.535 11.93 12.37 11.915 12.265 11.835C12.2851 11.8031 12.3133 11.7771 12.3466 11.7596C12.38 11.742 12.4173 11.7335 12.455 11.735Z" fill="#843511"/>
<path d="M12.47 11.65C12.335 11.65 12.305 11.685 12.245 11.735C12.185 11.785 12.15 11.775 12.145 11.785C12.13 11.795 12.145 11.825 12.16 11.815C12.185 11.805 12.225 11.785 12.285 11.735C12.345 11.685 12.41 11.685 12.47 11.685C12.655 11.685 12.755 11.835 12.78 11.825C12.795 11.815 12.675 11.65 12.47 11.65Z" fill="#85340A"/>
<path d="M12.84 11.715C12.605 11.51 12.305 11.475 12.14 11.63C12.1013 11.6814 12.0755 11.7414 12.065 11.805C12.045 11.92 12.08 12.045 12.17 12.175L12.13 12.195C12.0515 12.0517 12.0233 11.8862 12.05 11.725C12.0565 11.6858 12.0666 11.6473 12.08 11.61C12.305 11.425 12.615 11.41 12.84 11.71V11.715Z" fill="#85340A"/>
<path d="M12.45 11.91C12.5025 11.91 12.545 11.8674 12.545 11.815C12.545 11.7625 12.5025 11.72 12.45 11.72C12.3975 11.72 12.355 11.7625 12.355 11.815C12.355 11.8674 12.3975 11.91 12.45 11.91Z" fill="#85340A"/>
<path d="M12.715 11.875C12.54 12.01 12.365 12 12.265 11.94C12.165 11.875 12.165 11.855 12.185 11.855C12.205 11.855 12.225 11.875 12.305 11.92C12.39 11.96 12.51 11.96 12.715 11.875Z" fill="#85340A"/>
<path d="M11.8 12.1851C11.784 12.1867 11.7686 12.1923 11.7553 12.2015C11.7421 12.2107 11.7314 12.2232 11.7243 12.2376C11.7172 12.2521 11.7138 12.2681 11.7146 12.2842C11.7154 12.3003 11.7203 12.316 11.7288 12.3297C11.7373 12.3434 11.7492 12.3547 11.7632 12.3625C11.7773 12.3704 11.7932 12.3745 11.8093 12.3746C11.8254 12.3746 11.8413 12.3705 11.8554 12.3628C11.8695 12.355 11.8814 12.3437 11.89 12.3301C11.923 12.3505 11.9612 12.3609 12 12.3601H12.01C12.0505 12.3623 12.0907 12.3518 12.125 12.3301C12.1342 12.3427 12.1465 12.3529 12.1606 12.3597C12.1747 12.3665 12.1904 12.3697 12.206 12.369C12.2217 12.3683 12.237 12.3638 12.2504 12.3557C12.2639 12.3477 12.2752 12.3365 12.2833 12.323C12.2913 12.3096 12.2959 12.2943 12.2967 12.2786C12.2974 12.263 12.2943 12.2474 12.2875 12.2332C12.2808 12.219 12.2706 12.2068 12.258 12.1975C12.2453 12.1882 12.2305 12.1822 12.215 12.1801C12.24 12.1951 12.255 12.2151 12.255 12.2451C12.255 12.2751 12.23 12.3051 12.195 12.3051C12.1791 12.3051 12.1638 12.2987 12.1526 12.2875C12.1413 12.2762 12.135 12.261 12.135 12.2451C12.1232 12.2697 12.1048 12.2907 12.0819 12.3057C12.0589 12.3207 12.0324 12.3291 12.005 12.3301C11.9785 12.3282 11.953 12.3194 11.931 12.3045C11.9091 12.2895 11.8914 12.269 11.88 12.2451C11.88 12.2534 11.8783 12.2616 11.875 12.2692C11.8717 12.2769 11.8668 12.2837 11.8607 12.2894C11.8546 12.295 11.8474 12.2993 11.8395 12.302C11.8316 12.3047 11.8233 12.3057 11.815 12.3051C11.785 12.3051 11.755 12.2751 11.755 12.2451C11.755 12.2151 11.77 12.1951 11.795 12.1851H11.8ZM11.9 12.4601C11.795 12.4601 11.75 12.5501 11.66 12.6101C11.71 12.5901 11.755 12.5501 11.825 12.5101C11.895 12.4701 11.96 12.5201 12 12.5201C12.04 12.5201 12.1 12.4701 12.175 12.5101C12.245 12.5501 12.29 12.5901 12.34 12.6101C12.245 12.5501 12.205 12.4601 12.1 12.4601C12.0651 12.4636 12.0311 12.4738 12 12.4901C11.9693 12.472 11.9353 12.4601 11.9 12.4551V12.4601Z" fill="#85340A"/>
<path d="M11.86 12.58C11.82 12.58 11.77 12.59 11.69 12.61C11.875 12.57 11.915 12.635 12 12.635C12.08 12.635 12.12 12.57 12.305 12.61C12.105 12.55 12.06 12.59 12 12.59C11.96 12.59 11.93 12.575 11.86 12.58Z" fill="#85340A"/>
<path d="M11.7 12.6101H11.66C11.875 12.6351 11.775 12.7601 12 12.7601C12.225 12.7601 12.125 12.6351 12.34 12.6101C12.115 12.5901 12.185 12.7251 12 12.7251C11.825 12.7251 11.88 12.6101 11.7 12.6101ZM12.185 12.9451C12.185 12.896 12.1655 12.8489 12.1308 12.8142C12.0961 12.7795 12.0491 12.7601 12 12.7601C11.9509 12.7601 11.9039 12.7795 11.8692 12.8142C11.8345 12.8489 11.815 12.896 11.815 12.9451C11.8248 12.9033 11.8484 12.8661 11.882 12.8395C11.9155 12.8128 11.9571 12.7984 12 12.7984C12.0429 12.7984 12.0845 12.8128 12.1181 12.8395C12.1516 12.8661 12.1752 12.9033 12.185 12.9451Z" fill="#85340A"/>
<path d="M11.17 11.715C11.405 11.51 11.705 11.475 11.87 11.63C11.9087 11.6814 11.9344 11.7414 11.945 11.805C11.965 11.92 11.93 12.045 11.84 12.175L11.88 12.195C11.9585 12.0517 11.9867 11.8862 11.96 11.725C11.9535 11.6858 11.9434 11.6473 11.93 11.61C11.705 11.425 11.395 11.41 11.17 11.71V11.715Z" fill="#85340A"/>
<path d="M11.54 11.65C11.675 11.65 11.705 11.685 11.765 11.735C11.825 11.785 11.86 11.775 11.865 11.785C11.88 11.795 11.865 11.825 11.85 11.815C11.825 11.805 11.785 11.785 11.725 11.735C11.665 11.685 11.6 11.685 11.54 11.685C11.355 11.685 11.255 11.835 11.23 11.825C11.215 11.815 11.335 11.65 11.54 11.65Z" fill="#85340A"/>
<path d="M11.535 11.715C11.445 11.715 11.355 11.755 11.305 11.835C11.405 11.93 11.635 11.935 11.79 11.825C11.7573 11.7902 11.7177 11.7625 11.6739 11.7436C11.63 11.7247 11.5828 11.7149 11.535 11.715ZM11.535 11.735C11.62 11.735 11.705 11.775 11.715 11.815C11.615 11.93 11.45 11.915 11.345 11.835C11.3651 11.8031 11.3933 11.7771 11.4266 11.7596C11.46 11.742 11.4973 11.7335 11.535 11.735Z" fill="#843511"/>
<path d="M11.545 11.91C11.5975 11.91 11.64 11.8674 11.64 11.815C11.64 11.7625 11.5975 11.72 11.545 11.72C11.4925 11.72 11.45 11.7625 11.45 11.815C11.45 11.8674 11.4925 11.91 11.545 11.91Z" fill="#85340A"/>
<path d="M11.295 11.875C11.47 12.01 11.645 12 11.745 11.94C11.845 11.875 11.845 11.855 11.825 11.855C11.805 11.855 11.785 11.875 11.705 11.92C11.62 11.96 11.5 11.96 11.295 11.875Z" fill="#85340A"/>
</g>
</g>
<defs>
<clipPath id="clip0_2_486">
<rect width="24" height="24" rx="12" fill="white"/>
</clipPath>
<clipPath id="clip1_2_486">
<rect width="32" height="24" fill="white" transform="translate(-4)"/>
</clipPath>
</defs>
</svg>
