<svg width="24" height="24" viewBox="0 0 24 24" fill="none" xmlns="http://www.w3.org/2000/svg">
<g clip-path="url(#clip0_2_955)">
<rect width="24" height="24" rx="12" fill="white"/>
<g clip-path="url(#clip1_2_955)">
<path d="M-2 0H30V24H-2V0Z" fill="#000066"/>
<path fill-rule="evenodd" clip-rule="evenodd" d="M12.99 19.625L10.805 19.815L11.105 21.985L9.59999 20.4L8.09499 21.985L8.39499 19.815L6.20999 19.625L8.09499 18.51L6.87999 16.685L8.92999 17.46L9.59999 15.375L10.275 17.46L12.325 16.685L11.11 18.51M22.33 21.625L21.8 20.835L22.69 21.17L22.98 20.265L23.27 21.17L24.16 20.835L23.635 21.625L24.455 22.11L23.505 22.195L23.635 23.14L22.985 22.445L22.325 23.14L22.455 22.195L21.505 22.115M22.325 7.52003L21.8 6.73003L22.69 7.06503L22.98 6.16003L23.27 7.06503L24.16 6.73003L23.635 7.52003L24.455 8.01003L23.505 8.09003L23.635 9.03503L22.985 8.34503L22.325 9.03003L22.455 8.09003L21.505 8.01003M17.04 13.25L16.515 12.46L17.405 12.795L17.695 11.89L17.99 12.795L18.88 12.46L18.35 13.25L19.17 13.735L18.22 13.82L18.355 14.765L17.695 14.07L17.045 14.765L17.17 13.82L16.22 13.74M27.035 11.84L26.5 11.05L27.39 11.385L27.68 10.48L27.975 11.385L28.865 11.05L28.34 11.84L29.155 12.325L28.205 12.41L28.335 13.35L27.685 12.66L27.025 13.35L27.155 12.41L26.205 12.325M25.1 16L24.585 16.325L24.73 15.73L24.265 15.34L24.87 15.29L25.1 14.73L25.335 15.295L25.94 15.34L25.475 15.73L25.62 16.325" fill="white"/>
<path d="M-2 0H14V12H-2V0Z" fill="#000066"/>
<path d="M-0.125 0L5.975 4.525L12.05 0H14V1.55L8 6.025L14 10.475V12H12L6 7.525L0.0250001 12H-2V10.5L3.975 6.05L-2 1.6V0H-0.125Z" fill="white"/>
<path d="M8.6 7.025L14 11V12L7.225 7.025H8.6ZM4 7.525L4.15 8.4L-0.65 12H-2L4 7.525ZM14 0V0.075L7.775 4.775L7.825 3.675L12.75 0H14ZM-2 0L3.975 4.4H2.475L-2 1.05V0Z" fill="#C8102E"/>
<path d="M4.025 0V12H8.025V0H4.025ZM-2 4V8H14V4H-2Z" fill="white"/>
<path d="M-2 4.825V7.225H14V4.825H-2ZM4.825 0V12H7.225V0H4.825Z" fill="#C8102E"/>
</g>
</g>
<defs>
<clipPath id="clip0_2_955">
<rect width="24" height="24" rx="12" fill="white"/>
</clipPath>
<clipPath id="clip1_2_955">
<rect width="32" height="24" fill="white" transform="translate(-2)"/>
</clipPath>
</defs>
</svg>
