<svg width="24" height="24" viewBox="0 0 24 24" fill="none" xmlns="http://www.w3.org/2000/svg">
<g clip-path="url(#clip0_2_1657)">
<rect width="24" height="24" rx="12" fill="white"/>
<g clip-path="url(#clip1_2_1657)">
<path fill-rule="evenodd" clip-rule="evenodd" d="M-4 0H28V24H-4V0Z" fill="#229E45"/>
<path fill-rule="evenodd" clip-rule="evenodd" d="M12.07 21.8L27.145 12.015L11.98 2.19995L-3.145 12.035L12.07 21.8Z" fill="#F8E509"/>
<path fill-rule="evenodd" clip-rule="evenodd" d="M18.64 12C18.64 15.515 15.785 18.365 12.26 18.365C11.0004 18.363 9.76956 17.9876 8.72323 17.2863C7.6769 16.5849 6.862 15.589 6.38155 14.4246C5.9011 13.2602 5.77667 11.9794 6.02399 10.7443C6.27131 9.50918 6.87928 8.37509 7.77104 7.48543C8.6628 6.59577 9.7983 5.99048 11.034 5.74606C12.2697 5.50165 13.5502 5.62909 14.7135 6.11228C15.8768 6.59547 16.8707 7.41271 17.5696 8.46069C18.2685 9.50867 18.641 10.7403 18.64 12Z" fill="#2B49A3"/>
<path fill-rule="evenodd" clip-rule="evenodd" d="M10.165 15.815L9.965 15.7L9.765 15.8L9.81 15.575L9.65 15.405L9.875 15.38L9.985 15.18L10.08 15.39L10.3 15.43L10.135 15.58M14.435 16.895L14.24 16.78L14.04 16.88L14.08 16.655L13.925 16.49L14.15 16.465L14.255 16.26L14.355 16.47L14.575 16.51L14.405 16.665M12.595 15.165L12.425 15.065L12.25 15.155L12.29 14.96L12.15 14.815L12.35 14.795L12.44 14.615L12.52 14.8L12.715 14.835L12.565 14.97M16.915 14.545L16.745 14.445L16.57 14.535L16.61 14.34L16.475 14.2L16.67 14.18L16.76 14.005L16.84 14.185L17.03 14.22L16.885 14.35M12.52 13.25L12.32 13.14L12.12 13.24L12.16 13.01L12.005 12.845L12.23 12.82L12.335 12.615L12.435 12.825L12.655 12.865L12.485 13.025M7.255 11.275L7.055 11.165L6.855 11.265L6.905 11.035L6.74 10.87L6.97 10.845L7.07 10.64L7.17 10.85L7.39 10.89L7.225 11.045M7.89 13.905L7.69 13.79L7.49 13.89L7.535 13.665L7.375 13.5L7.6 13.47L7.705 13.27L7.805 13.48L8.025 13.52L7.86 13.675M14.46 10.31L14.28 10.21L14.1 10.3L14.14 10.1L14 9.95L14.2 9.925L14.295 9.745L14.38 9.935L14.58 9.97L14.43 10.105M14.095 12.02L13.96 11.94L13.815 12.01L13.845 11.85L13.735 11.735L13.895 11.715L13.97 11.575L14.035 11.725L14.185 11.75L14.075 11.86M6.965 14.38L6.83 14.305L6.695 14.37L6.725 14.22L6.62 14.11L6.77 14.09L6.84 13.955L6.905 14.095L7.055 14.125L6.94 14.225M16.95 14.99L16.84 14.935L16.73 14.985L16.755 14.87L16.67 14.79L16.79 14.775L16.85 14.675L16.9 14.775L17.025 14.8L16.93 14.875" fill="#FFFFEF"/>
<path fill-rule="evenodd" clip-rule="evenodd" d="M6.965 14.38L6.83 14.305L6.695 14.37L6.725 14.22L6.62 14.11L6.77 14.09L6.84 13.955L6.905 14.095L7.055 14.125L6.94 14.225" fill="#FFFFEF"/>
<path fill-rule="evenodd" clip-rule="evenodd" d="M6.965 14.38L6.83 14.305L6.695 14.37L6.725 14.22L6.62 14.11L6.77 14.09L6.84 13.955L6.905 14.095L7.055 14.125L6.94 14.225M9.055 14.375L8.925 14.305L8.79 14.37L8.82 14.22L8.715 14.11L8.865 14.09L8.935 13.955L9 14.095L9.15 14.12L9.035 14.225M8.795 15.075L8.665 15L8.53 15.07L8.56 14.92L8.455 14.805L8.605 14.785L8.675 14.65L8.74 14.79L8.89 14.82L8.775 14.92M13.145 13.81L13.015 13.73L12.875 13.8L12.905 13.65L12.805 13.535L12.955 13.52L13.025 13.385L13.085 13.525L13.235 13.55L13.125 13.655M11.87 13.805L11.735 13.73L11.6 13.8L11.63 13.65L11.53 13.535L11.68 13.52L11.75 13.38L11.81 13.525L11.96 13.55L11.85 13.655M8.41 13.365L8.325 13.315L8.24 13.355L8.26 13.26L8.195 13.19L8.29 13.18L8.33 13.095L8.37 13.185L8.465 13.2L8.395 13.265M16.785 15.535L16.655 15.46L16.52 15.53L16.55 15.38L16.445 15.265L16.595 15.245L16.665 15.11L16.73 15.25L16.88 15.28L16.765 15.38M15.725 15.68L15.615 15.61L15.5 15.67L15.525 15.54L15.44 15.45L15.565 15.435L15.625 15.32L15.675 15.44L15.8 15.46L15.705 15.55M16.225 15.665L16.125 15.605L16.02 15.655L16.04 15.54L15.96 15.455L16.075 15.44L16.13 15.34L16.18 15.44L16.295 15.465L16.21 15.545M17.665 14.405L17.565 14.355L17.465 14.405L17.49 14.29L17.41 14.205L17.525 14.19L17.575 14.09L17.625 14.195L17.73 14.215L17.65 14.295M15.71 16.385L15.585 16.315L15.45 16.375L15.48 16.235L15.38 16.135L15.53 16.12L15.595 15.995L15.655 16.125L15.805 16.15L15.69 16.245M15.72 16.955L15.6 16.885L15.48 16.95L15.51 16.81L15.415 16.71L15.55 16.69L15.61 16.565L15.665 16.695L15.8 16.72L15.7 16.82M14.75 15.665L14.655 15.605L14.555 15.655L14.575 15.545L14.5 15.46L14.61 15.45L14.66 15.35L14.71 15.45L14.82 15.47L14.74 15.55M13.85 15.665L13.75 15.605L13.65 15.655L13.675 15.545L13.595 15.46L13.71 15.45L13.76 15.35L13.81 15.45L13.915 15.47L13.835 15.55M12.315 14.32L12.215 14.265L12.115 14.315L12.14 14.2L12.06 14.12L12.17 14.105L12.22 14.005L12.27 14.105L12.38 14.13L12.3 14.205M12.485 17.055L12.405 17.01L12.315 17.055L12.335 16.955L12.27 16.885L12.365 16.875L12.41 16.79L12.45 16.88L12.545 16.895L12.475 16.96M10.165 12.63L9.965 12.515L9.765 12.615L9.81 12.39L9.65 12.225L9.875 12.195L9.985 11.995L10.08 12.205L10.3 12.245L10.135 12.4" fill="#FFFFEF"/>
<path fill-rule="evenodd" clip-rule="evenodd" d="M18.22 14.29C18.3439 13.9686 18.4409 13.6375 18.51 13.3C15.12 10.325 11.345 8.80003 6.575 9.11503C6.402 9.44979 6.25975 9.79956 6.15 10.16C11.8 9.62003 15.95 12.12 18.22 14.29Z" fill="white"/>
<path d="M16.7 12.62L16.815 12.685C16.7978 12.719 16.7926 12.7577 16.8 12.795C16.8117 12.8312 16.8367 12.8616 16.87 12.88C16.905 12.905 16.94 12.92 16.97 12.915C17 12.915 17.02 12.9 17.035 12.88C17.0437 12.8668 17.0473 12.8508 17.045 12.835C17.0409 12.8166 17.0323 12.7994 17.02 12.785C17.01 12.77 16.985 12.735 16.945 12.695C16.9039 12.6526 16.8731 12.6013 16.855 12.545C16.8425 12.5025 16.8458 12.4568 16.8641 12.4165C16.8825 12.3761 16.9147 12.3436 16.955 12.325C16.9914 12.3099 17.0316 12.3064 17.07 12.315C17.117 12.3259 17.1613 12.3463 17.2 12.375C17.27 12.425 17.315 12.475 17.33 12.535C17.3369 12.5631 17.3378 12.5923 17.3326 12.6208C17.3275 12.6492 17.3164 12.6762 17.3 12.7L17.18 12.625C17.195 12.595 17.2 12.565 17.19 12.54C17.185 12.515 17.165 12.49 17.13 12.47C17.1043 12.4494 17.0729 12.4372 17.04 12.435C17.0309 12.4347 17.022 12.4369 17.014 12.4413C17.0061 12.4457 16.9995 12.4522 16.995 12.46C16.985 12.475 16.985 12.49 16.99 12.51C16.995 12.53 17.02 12.57 17.07 12.62C17.12 12.67 17.15 12.715 17.17 12.745C17.1879 12.7778 17.1959 12.815 17.1933 12.8522C17.1906 12.8895 17.1773 12.9252 17.155 12.955C17.1316 12.989 17.0985 13.0152 17.06 13.03C17.0225 13.0473 16.9806 13.0526 16.94 13.045C16.895 13.035 16.85 13.015 16.8 12.98C16.725 12.93 16.68 12.875 16.665 12.815C16.6487 12.747 16.6595 12.6753 16.695 12.615L16.7 12.62ZM16.12 12.24L16.245 12.305C16.2295 12.3396 16.226 12.3783 16.235 12.415C16.2478 12.4494 16.2727 12.4778 16.305 12.495C16.345 12.52 16.375 12.53 16.405 12.525C16.435 12.525 16.455 12.51 16.47 12.485C16.4776 12.4732 16.4811 12.4591 16.48 12.445C16.48 12.43 16.47 12.41 16.455 12.395C16.4294 12.3641 16.4027 12.3341 16.375 12.305C16.32 12.25 16.285 12.205 16.275 12.165C16.2668 12.1393 16.2644 12.1121 16.2678 12.0853C16.2713 12.0586 16.2806 12.0329 16.295 12.01C16.314 11.9792 16.3419 11.9548 16.375 11.94C16.4094 11.9242 16.4477 11.919 16.485 11.925C16.5312 11.9328 16.5755 11.9498 16.615 11.975C16.69 12.025 16.735 12.075 16.75 12.13C16.7591 12.1582 16.762 12.1879 16.7586 12.2172C16.7551 12.2466 16.7454 12.2748 16.73 12.3L16.605 12.23C16.62 12.195 16.625 12.17 16.615 12.145C16.605 12.12 16.585 12.095 16.55 12.075C16.5223 12.0552 16.4891 12.0447 16.455 12.045C16.4468 12.0456 16.4388 12.0482 16.4319 12.0525C16.4249 12.0569 16.4191 12.0629 16.415 12.07C16.405 12.085 16.405 12.1 16.41 12.12C16.415 12.14 16.445 12.18 16.495 12.23C16.545 12.28 16.58 12.32 16.595 12.35C16.615 12.3814 16.6257 12.4178 16.6257 12.455C16.6257 12.4923 16.615 12.5287 16.595 12.56C16.5735 12.5949 16.5422 12.6227 16.505 12.64C16.4675 12.6573 16.4256 12.6626 16.385 12.655C16.3335 12.6464 16.2843 12.6277 16.24 12.6C16.1754 12.5656 16.1256 12.5087 16.1 12.44C16.0807 12.3733 16.0878 12.3017 16.12 12.24ZM15.41 12.05L15.775 11.45L16.215 11.725L16.155 11.825L15.835 11.625L15.755 11.76L16.055 11.945L15.99 12.045L15.69 11.86L15.59 12.025L15.925 12.225L15.865 12.325L15.415 12.05H15.41ZM14.375 11.2L14.43 11.1L14.7 11.235L14.575 11.485C14.535 11.495 14.485 11.5 14.425 11.495C14.3674 11.4887 14.3115 11.4717 14.26 11.445C14.1995 11.4156 14.1478 11.3707 14.11 11.315C14.0756 11.2633 14.0581 11.2022 14.06 11.14C14.0625 11.0754 14.0796 11.0122 14.11 10.955C14.14 10.8949 14.1848 10.8433 14.24 10.805C14.2929 10.7685 14.3558 10.7493 14.42 10.75C14.47 10.75 14.52 10.765 14.58 10.8C14.66 10.835 14.71 10.885 14.735 10.94C14.761 10.9946 14.7663 11.0568 14.75 11.115L14.615 11.075C14.6233 11.0416 14.6197 11.0062 14.605 10.975C14.59 10.945 14.565 10.925 14.525 10.905C14.5017 10.8917 14.4758 10.8835 14.4491 10.8809C14.4224 10.8784 14.3954 10.8815 14.37 10.89C14.32 10.905 14.275 10.95 14.24 11.02C14.205 11.09 14.19 11.155 14.205 11.21C14.2119 11.2361 14.2244 11.2604 14.2417 11.2811C14.259 11.3019 14.2806 11.3186 14.305 11.33C14.33 11.345 14.36 11.355 14.39 11.355C14.4198 11.3596 14.4502 11.3596 14.48 11.355L14.52 11.275L14.375 11.2ZM9.865 10.085L9.965 9.38505L10.175 9.42005L10.23 9.91005L10.425 9.46005L10.635 9.49005L10.535 10.18L10.4 10.16L10.485 9.61505L10.265 10.14L10.13 10.12L10.075 9.55505L9.995 10.105L9.865 10.085ZM9.16 10L9.225 9.30005L9.74 9.35005L9.73 9.47005L9.355 9.43505L9.34 9.58505L9.69 9.62005L9.675 9.74005L9.325 9.70505L9.31 9.89505L9.7 9.93005L9.69 10.05L9.16 10Z" fill="#309E3A"/>
<path d="M6.825 9.56496C6.825 9.48996 6.84 9.43496 6.86 9.38496C6.87752 9.3494 6.90123 9.31723 6.93 9.28996C6.95564 9.26409 6.98626 9.24368 7.02 9.22996C7.07 9.21496 7.12 9.20496 7.17 9.20496C7.275 9.20496 7.355 9.24496 7.42 9.30496C7.45094 9.34318 7.47395 9.38718 7.48768 9.4344C7.50142 9.48162 7.50561 9.5311 7.5 9.57996C7.5 9.68996 7.465 9.77996 7.4 9.84496C7.36659 9.87583 7.32708 9.89935 7.28402 9.91399C7.24095 9.92863 7.1953 9.93407 7.15 9.92996C7.10531 9.93041 7.06099 9.92178 7.01973 9.90459C6.97848 9.8874 6.94114 9.86201 6.91 9.82996C6.84778 9.75631 6.81722 9.66105 6.825 9.56496Z" fill="#309E3A"/>
<path d="M6.96999 9.56492C6.96999 9.63992 6.98499 9.69992 7.01999 9.74492C7.05499 9.78492 7.09999 9.80992 7.15999 9.80992C7.18595 9.81174 7.21199 9.80774 7.2362 9.79823C7.26042 9.78872 7.28221 9.77392 7.29999 9.75492C7.33499 9.71492 7.34999 9.65492 7.35499 9.56992C7.35499 9.48992 7.34499 9.42992 7.30499 9.38992C7.28871 9.36977 7.26815 9.35348 7.2448 9.34224C7.22146 9.331 7.1959 9.32509 7.16999 9.32492C7.14369 9.32408 7.11752 9.32902 7.09333 9.33938C7.06915 9.34975 7.04753 9.36529 7.02999 9.38492C6.98999 9.42492 6.97499 9.48492 6.96999 9.56492Z" fill="#F7FFFF"/>
<path d="M7.65 9.92498L7.66 9.22498H7.96C8.035 9.22498 8.085 9.23498 8.12 9.24998C8.155 9.25998 8.18 9.28498 8.2 9.31498C8.22 9.34498 8.23 9.38498 8.23 9.42998C8.23039 9.47808 8.21252 9.52453 8.18 9.55998C8.14304 9.5946 8.09547 9.61574 8.045 9.61998L8.12 9.67998C8.14 9.69998 8.165 9.73998 8.195 9.79498L8.28 9.93498H8.11L8.01 9.77498L7.94 9.67498C7.92788 9.66122 7.91236 9.65087 7.895 9.64498C7.87226 9.63834 7.84869 9.63498 7.825 9.63498H7.795V9.92498H7.65Z" fill="#309E3A"/>
<path d="M7.8 9.52497H7.9C7.97 9.52497 8.015 9.52497 8.03 9.51497C8.045 9.51497 8.06 9.49997 8.07 9.48997C8.08 9.47997 8.085 9.45497 8.085 9.43997C8.085 9.40997 8.08 9.38997 8.065 9.37997C8.055 9.36497 8.035 9.35497 8.015 9.34997H7.915L7.8 9.34497V9.51997V9.52497Z" fill="white"/>
<path d="M8.45 9.26001L8.71 9.27501C8.765 9.27501 8.81 9.28001 8.84 9.29001C8.87892 9.30413 8.91341 9.32828 8.94 9.36001C8.9688 9.39497 8.98932 9.43599 9 9.48001C9.015 9.52501 9.02 9.58001 9.015 9.64501C9.01495 9.69604 9.00651 9.74672 8.99 9.79501C8.97 9.84501 8.94 9.88501 8.905 9.91501C8.87587 9.93901 8.84168 9.95611 8.805 9.96501C8.775 9.97501 8.73 9.97501 8.68 9.97501L8.415 9.96001L8.45 9.26001Z" fill="#309E3A"/>
<path d="M8.585 9.38501L8.56 9.85001H8.75C8.775 9.85001 8.795 9.84001 8.81 9.82501C8.825 9.81001 8.84 9.79001 8.85 9.76001C8.86 9.73001 8.87 9.68501 8.87 9.63001L8.865 9.50501C8.85786 9.47865 8.84409 9.45455 8.825 9.43501C8.80839 9.41831 8.78771 9.40624 8.765 9.40001C8.72719 9.39159 8.6887 9.38657 8.65 9.38501H8.585Z" fill="white"/>
<path d="M11.88 10.51L12.045 9.82996L12.265 9.87996L12.425 9.92996C12.46 9.94996 12.49 9.97996 12.505 10.025C12.525 10.065 12.525 10.11 12.515 10.165C12.505 10.205 12.49 10.24 12.465 10.265C12.4467 10.2869 12.4237 10.3046 12.3978 10.3167C12.3719 10.3288 12.3436 10.335 12.315 10.335C12.28 10.335 12.23 10.325 12.165 10.31L12.08 10.285L12.02 10.545L11.88 10.51Z" fill="#309E3A"/>
<path d="M12.15 9.97998L12.11 10.17L12.185 10.19C12.235 10.2 12.275 10.21 12.295 10.205C12.3145 10.2023 12.3326 10.1936 12.3469 10.1802C12.3612 10.1668 12.3711 10.1492 12.375 10.13C12.375 10.105 12.375 10.085 12.365 10.065C12.354 10.0447 12.3364 10.0288 12.315 10.02L12.22 9.99498L12.155 9.97998H12.15Z" fill="white"/>
<path d="M12.53 10.705L12.765 10.045L13.04 10.145C13.115 10.17 13.16 10.195 13.19 10.215C13.215 10.24 13.235 10.265 13.24 10.305C13.245 10.345 13.25 10.38 13.24 10.42C13.22 10.47 13.19 10.505 13.15 10.53C13.11 10.55 13.06 10.555 13 10.545C13.02 10.57 13.04 10.595 13.05 10.625L13.09 10.76L13.12 10.915L12.965 10.86L12.915 10.68C12.9059 10.6393 12.8942 10.5993 12.88 10.56C12.8734 10.5445 12.8631 10.5308 12.85 10.52C12.84 10.505 12.82 10.495 12.785 10.485L12.76 10.475L12.66 10.755L12.53 10.705Z" fill="#309E3A"/>
<path d="M12.8 10.3701L12.895 10.4051C12.96 10.4301 13 10.4401 13.02 10.4401C13.035 10.4401 13.05 10.4401 13.065 10.4251C13.08 10.4151 13.09 10.4001 13.095 10.3801C13.105 10.3601 13.105 10.3401 13.095 10.3201C13.0876 10.3007 13.0734 10.2847 13.055 10.2751L12.955 10.2401L12.855 10.2051L12.795 10.3701H12.8Z" fill="white"/>
<path d="M13.35 10.68C13.3672 10.6215 13.3961 10.5671 13.435 10.52C13.4603 10.4899 13.4908 10.4645 13.525 10.445C13.556 10.4275 13.5899 10.4157 13.625 10.41C13.675 10.41 13.725 10.41 13.78 10.43C13.8247 10.4411 13.8665 10.4615 13.9027 10.49C13.9389 10.5184 13.9687 10.5542 13.99 10.595C14.03 10.675 14.03 10.77 14 10.88C13.9753 10.9745 13.9142 11.0554 13.83 11.105C13.755 11.15 13.665 11.155 13.57 11.125C13.5254 11.1137 13.4837 11.0931 13.4476 11.0647C13.4114 11.0363 13.3816 11.0007 13.36 10.96C13.34 10.9163 13.3288 10.8691 13.3271 10.821C13.3254 10.773 13.3331 10.7251 13.35 10.68Z" fill="#309E3A"/>
<path d="M13.49 10.72C13.47 10.795 13.465 10.86 13.49 10.91C13.515 10.96 13.55 10.99 13.605 11.01C13.655 11.025 13.705 11.02 13.755 10.99C13.805 10.965 13.835 10.91 13.86 10.83C13.885 10.755 13.885 10.695 13.86 10.645C13.8501 10.6213 13.8352 10.6 13.8162 10.5827C13.7971 10.5655 13.7746 10.5526 13.75 10.545C13.7254 10.5365 13.6993 10.5335 13.6734 10.536C13.6475 10.5386 13.6224 10.5468 13.6 10.56C13.55 10.59 13.515 10.64 13.49 10.72Z" fill="white"/>
<path d="M14.715 11.655L15.035 11.035L15.3 11.17C15.3499 11.194 15.3956 11.2261 15.435 11.265C15.46 11.29 15.475 11.32 15.475 11.36C15.475 11.4 15.475 11.435 15.455 11.47C15.4358 11.515 15.4 11.5508 15.355 11.57C15.305 11.58 15.255 11.58 15.2 11.56C15.22 11.59 15.23 11.62 15.24 11.645C15.25 11.675 15.255 11.72 15.26 11.785L15.27 11.945L15.12 11.87L15.1 11.685C15.0976 11.6431 15.0926 11.6013 15.085 11.56C15.0816 11.5413 15.0729 11.524 15.06 11.51L15 11.475L14.975 11.46L14.84 11.72L14.715 11.655Z" fill="#309E3A"/>
<path d="M15.025 11.3601L15.12 11.4101C15.18 11.4401 15.22 11.4601 15.235 11.4601C15.25 11.4601 15.27 11.4601 15.285 11.4501C15.3 11.4451 15.31 11.4301 15.32 11.4101C15.33 11.3901 15.335 11.3701 15.33 11.3501C15.3238 11.3302 15.3116 11.3127 15.295 11.3001C15.2657 11.2821 15.2357 11.2654 15.205 11.2501L15.105 11.2001L15.025 11.3601Z" fill="white"/>
<path d="M17.305 12.935C17.3374 12.8835 17.3799 12.8393 17.43 12.805C17.4636 12.7834 17.5009 12.7682 17.54 12.76C17.5763 12.7525 17.6137 12.7525 17.65 12.76C17.7 12.77 17.745 12.79 17.79 12.82C17.8289 12.8442 17.8624 12.8763 17.8882 12.9142C17.914 12.952 17.9317 12.9949 17.94 13.04C17.955 13.125 17.93 13.22 17.87 13.315C17.8198 13.3976 17.7389 13.4569 17.645 13.48C17.6002 13.4896 17.5539 13.4897 17.5091 13.4802C17.4643 13.4708 17.422 13.4519 17.385 13.425C17.3461 13.4007 17.3127 13.3686 17.2868 13.3308C17.261 13.2929 17.2434 13.25 17.235 13.205C17.22 13.115 17.245 13.025 17.305 12.935Z" fill="#309E3A"/>
<path d="M17.43 13.0149C17.38 13.0799 17.365 13.1399 17.375 13.1949C17.3787 13.2203 17.3877 13.2445 17.4015 13.2661C17.4153 13.2876 17.4335 13.306 17.455 13.3199C17.505 13.3549 17.555 13.3649 17.605 13.3499C17.655 13.3349 17.705 13.2999 17.75 13.2299C17.795 13.1599 17.815 13.0999 17.805 13.0499C17.8 12.9999 17.77 12.9549 17.725 12.9199C17.68 12.8849 17.625 12.8799 17.575 12.8949C17.525 12.9049 17.475 12.9449 17.425 13.0149H17.43Z" fill="white"/>
<path d="M11.09 10.225L11.205 9.73499L11.565 9.81999L11.55 9.89999L11.285 9.83999L11.26 9.94999L11.505 10.005L11.485 10.09L11.24 10.03L11.21 10.165L11.485 10.23L11.465 10.31L11.09 10.225Z" fill="#309E3A"/>
</g>
</g>
<defs>
<clipPath id="clip0_2_1657">
<rect width="24" height="24" rx="12" fill="white"/>
</clipPath>
<clipPath id="clip1_2_1657">
<rect width="32" height="24" fill="white" transform="translate(-4)"/>
</clipPath>
</defs>
</svg>
