<svg width="24" height="24" viewBox="0 0 24 24" fill="none" xmlns="http://www.w3.org/2000/svg">
<g clip-path="url(#clip0_2_118)">
<rect width="24" height="24" rx="12" fill="white"/>
<g clip-path="url(#clip1_2_118)">
<path fill-rule="evenodd" clip-rule="evenodd" d="M-4 0H28V24H-4V0Z" fill="#FFE800"/>
<path fill-rule="evenodd" clip-rule="evenodd" d="M-4 12H28V24H-4V12Z" fill="#00148E"/>
<path fill-rule="evenodd" clip-rule="evenodd" d="M-4 18H28V24H-4V18Z" fill="#DA0010"/>
<path fill-rule="evenodd" clip-rule="evenodd" d="M9.47998 14.54L5.84998 18.365L5.78998 18.285L9.40998 14.46L9.46998 14.54H9.47998ZM12 15.165L7.25998 20.165L7.17998 20.085L11.915 15.085L12 15.165Z" fill="black"/>
<path fill-rule="evenodd" clip-rule="evenodd" d="M7.2746 20.1066L6.8316 20.5496L6.32665 20.9306L6.7077 20.4257L7.1507 19.9827L7.2746 20.1066Z" fill="#808080" stroke="black" stroke-width="0.0606398"/>
<path fill-rule="evenodd" clip-rule="evenodd" d="M6.05457 18.1516L5.61157 18.5946L5.10662 18.9757L5.48767 18.4707L5.93067 18.0277L6.05457 18.1516Z" fill="#808080" stroke="black" stroke-width="0.0606398"/>
<path fill-rule="evenodd" clip-rule="evenodd" d="M6.39697 5.73962C6.39697 5.73962 5.99872 16.5108 7.59172 16.5108C9.18472 16.5108 9.98347 15.378 9.98347 15.378L9.96547 9.45802L6.39697 5.73962Z" fill="#FFDF00" stroke="black" stroke-width="0.0894427"/>
<path fill-rule="evenodd" clip-rule="evenodd" d="M7.37124 6.74438C7.37124 7.31078 7.19349 15.378 7.98999 15.378C8.78649 15.378 9.98349 14.8116 9.98349 14.8116L9.96549 9.45798L7.37124 6.74438Z" fill="#0000C4" stroke="black" stroke-width="0.0894427"/>
<path fill-rule="evenodd" clip-rule="evenodd" d="M7.88873 7.28845C7.88873 7.85485 7.98998 14.2453 8.78873 14.2453H9.98348L9.96548 9.45805L7.88873 7.28845Z" fill="#E10000" stroke="black" stroke-width="0.0894427"/>
<path fill-rule="evenodd" clip-rule="evenodd" d="M6.31 5.79997L9.93 9.62497L9.995 9.54497L6.375 5.71997L6.31 5.79997Z" fill="black"/>
<path fill-rule="evenodd" clip-rule="evenodd" d="M5.21479 7.94678C5.21479 7.94678 4.18819 18.3814 7.26799 18.3814C9.83449 18.3814 9.83449 16.7353 10.3478 16.7353L9.83449 12.8913L5.21189 7.94678H5.21479Z" fill="#FFDF00" stroke="black" stroke-width="0.0999444"/>
<path d="M7.75901 9.68159C7.78101 9.67994 8.56001 7.99414 10.507 6.92709" stroke="black" stroke-width="0.108269"/>
<path fill-rule="evenodd" clip-rule="evenodd" d="M7.44032 8.09257C7.71182 8.21927 7.88362 8.36507 8.04002 8.53507C7.72932 8.46997 7.56902 8.44367 7.29752 8.31697C7.02602 8.19027 6.81862 7.99647 6.65382 7.83967C6.85592 7.90117 7.16732 7.96517 7.44032 8.09257Z" fill="#005B00" stroke="black" stroke-width="0.0489698"/>
<path fill-rule="evenodd" clip-rule="evenodd" d="M8.12126 9.125C8.14126 9.159 8.12406 9.2069 8.08176 9.2304C8.03946 9.2539 7.98876 9.24485 7.96826 9.21C7.94776 9.17515 7.96596 9.12895 8.00826 9.10545C8.05056 9.08195 8.10126 9.091 8.12126 9.125Z" fill="#FF0000" stroke="black" stroke-width="0.0335875"/>
<path fill-rule="evenodd" clip-rule="evenodd" d="M8.97453 7.01347C8.85688 7.31212 8.72708 7.50892 8.57748 7.69252C8.64473 7.36027 8.67328 7.18972 8.79093 6.89107C8.90858 6.59242 9.08028 6.35272 9.21908 6.16192C9.15918 6.38032 9.09283 6.71317 8.97453 7.01347Z" fill="#005B00" stroke="black" stroke-width="0.0461669"/>
<path fill-rule="evenodd" clip-rule="evenodd" d="M8.57734 6.99793C8.55019 7.29658 8.49069 7.52788 8.41249 7.76248C8.39204 7.47223 8.37679 7.32718 8.40394 7.02853C8.43109 6.72988 8.51439 6.43918 8.58239 6.20638C8.58334 6.40753 8.60464 6.69763 8.57734 6.99793Z" fill="#005B00" stroke="black" stroke-width="0.0398615"/>
<path fill-rule="evenodd" clip-rule="evenodd" d="M8.83676 7.33953C8.68291 7.52053 8.55351 7.59903 8.41751 7.65003C8.55456 7.39903 8.62171 7.26553 8.77556 7.08453C8.92941 6.90353 9.09431 6.81853 9.22671 6.75253C9.12821 6.90528 8.99146 7.15753 8.83676 7.33953Z" fill="#005B00" stroke="black" stroke-width="0.0432966"/>
<path fill-rule="evenodd" clip-rule="evenodd" d="M7.52596 7.59244C7.70696 7.80964 7.79696 8.01884 7.86496 8.25004C7.62796 8.08884 7.50296 8.01364 7.32196 7.79644C7.14096 7.57924 7.03896 7.30724 6.95896 7.08804C7.10596 7.21384 7.34396 7.37404 7.52596 7.59244Z" fill="#005B00" stroke="black" stroke-width="0.0495432"/>
<path fill-rule="evenodd" clip-rule="evenodd" d="M7.16164 9.26663C7.38789 9.44763 7.50729 9.63423 7.60249 9.84503C7.31464 9.72563 7.16349 9.67203 6.93724 9.49103C6.71099 9.31003 6.57329 9.06523 6.46489 8.86763C6.64519 8.96633 6.93414 9.08463 7.16164 9.26663Z" fill="#005B00" stroke="black" stroke-width="0.0526016"/>
<path fill-rule="evenodd" clip-rule="evenodd" d="M8.22119 9.16721C8.04019 9.45681 7.84439 9.65141 7.61999 9.83501C7.72819 9.51741 7.77499 9.35481 7.95599 9.06521C8.13699 8.77561 8.39539 8.53761 8.60419 8.34801C8.51009 8.55791 8.40319 8.87601 8.22119 9.16721Z" fill="#005B00" stroke="black" stroke-width="0.0540371"/>
<path fill-rule="evenodd" clip-rule="evenodd" d="M8.4103 9.15572C8.1207 9.35482 7.8686 9.45842 7.6 9.54002C7.8476 9.28492 7.9677 9.15082 8.2573 8.95172C8.5469 8.75262 8.8699 8.63362 9.1295 8.54002C8.94835 8.69942 8.7015 8.95552 8.4103 9.15572Z" fill="#005B00" stroke="black" stroke-width="0.0519301"/>
<path fill-rule="evenodd" clip-rule="evenodd" d="M10.3627 7.07461C10.236 7.21941 10.1224 7.30521 10 7.38001C10.1043 7.20721 10.1544 7.11741 10.2811 6.97261C10.4078 6.82781 10.554 6.72581 10.6716 6.64501C10.594 6.75571 10.4901 6.92901 10.3627 7.07461Z" fill="#005B00" stroke="black" stroke-width="0.0275007"/>
<path fill-rule="evenodd" clip-rule="evenodd" d="M10.0882 6.64747C10.0158 6.80132 9.93837 6.91692 9.84997 7.03252C9.89437 6.87867 9.91377 6.80132 9.98617 6.64747C10.0586 6.49362 10.1606 6.34912 10.243 6.23352C10.2049 6.33892 10.161 6.49277 10.0882 6.64747Z" fill="#005B00" stroke="black" stroke-width="0.0228451"/>
<path fill-rule="evenodd" clip-rule="evenodd" d="M10.5121 6.92366C10.3854 6.99606 10.2902 7.01826 10.195 7.02506C10.3217 6.91346 10.3854 6.85326 10.5121 6.78086C10.6388 6.70846 10.7578 6.68806 10.853 6.67286C10.7662 6.73856 10.6395 6.85086 10.5121 6.92366Z" fill="#005B00" stroke="black" stroke-width="0.0250413"/>
<path fill-rule="evenodd" clip-rule="evenodd" d="M8.76361 7.73483C8.53736 7.87058 8.35126 7.94958 8.15746 8.01758C8.36411 7.85383 8.46596 7.76858 8.69221 7.63283C8.91846 7.49708 9.15476 7.40358 9.34436 7.32958C9.19741 7.43408 8.99111 7.59833 8.76361 7.73483Z" fill="#005B00" stroke="black" stroke-width="0.0314413"/>
<path fill-rule="evenodd" clip-rule="evenodd" d="M9.42402 7.93747C9.12537 8.11847 8.87107 8.20387 8.60247 8.26507C8.86472 8.02247 8.99277 7.89407 9.29142 7.71307C9.59007 7.53207 9.91477 7.43687 10.1756 7.36247C9.98592 7.51177 9.72432 7.75547 9.42402 7.93747Z" fill="#005B00" stroke="black" stroke-width="0.052336"/>
<path d="M7.39441 10.8668C7.41366 10.8558 7.23166 9.26783 8.44651 7.61603" stroke="black" stroke-width="0.106572"/>
<path fill-rule="evenodd" clip-rule="evenodd" d="M9.25627 7.52002C9.27627 7.55402 9.25907 7.60192 9.21677 7.62542C9.17447 7.64892 9.12377 7.63987 9.10327 7.60502C9.08277 7.57017 9.10097 7.52397 9.14327 7.50047C9.18557 7.47697 9.23627 7.48602 9.25627 7.52002Z" fill="#FF0000" stroke="black" stroke-width="0.0335875"/>
<path fill-rule="evenodd" clip-rule="evenodd" d="M9.79631 7.20496C9.81631 7.23896 9.79911 7.28686 9.75681 7.31036C9.71451 7.33386 9.66381 7.32481 9.64331 7.28996C9.62281 7.25511 9.64101 7.20891 9.68331 7.18541C9.72561 7.16191 9.77631 7.17096 9.79631 7.20496Z" fill="#FF0000" stroke="black" stroke-width="0.0335875"/>
<path fill-rule="evenodd" clip-rule="evenodd" d="M8.28942 8.2636C8.30342 8.2896 8.27732 8.3307 8.23032 8.3542C8.18332 8.3777 8.13377 8.37525 8.11942 8.3486C8.10507 8.32195 8.13187 8.28215 8.17887 8.25865C8.22587 8.23515 8.27542 8.2376 8.28942 8.2636Z" fill="#FF0000" stroke="black" stroke-width="0.0302835"/>
<path fill-rule="evenodd" clip-rule="evenodd" d="M8.44946 8.19353C8.46346 8.21953 8.43736 8.26063 8.39036 8.28413C8.34336 8.30763 8.29381 8.30518 8.27946 8.27853C8.26511 8.25188 8.29191 8.21208 8.33891 8.18858C8.38591 8.16508 8.43546 8.16753 8.44946 8.19353Z" fill="#FF0000" stroke="black" stroke-width="0.0302835"/>
<path fill-rule="evenodd" clip-rule="evenodd" d="M8.35442 8.34355C8.36842 8.36955 8.34232 8.41065 8.29532 8.43415C8.24832 8.45765 8.19877 8.4552 8.18442 8.42855C8.17007 8.4019 8.19687 8.3621 8.24387 8.3386C8.29087 8.3151 8.34042 8.31755 8.35442 8.34355Z" fill="#FF0000" stroke="black" stroke-width="0.0302835"/>
<path fill-rule="evenodd" clip-rule="evenodd" d="M8.635 8.36504C8.655 8.40504 8.635 8.45504 8.585 8.48004C8.535 8.50504 8.485 8.49004 8.465 8.44504C8.445 8.40004 8.465 8.35504 8.515 8.33004C8.565 8.30504 8.615 8.32004 8.63 8.36504H8.635Z" fill="#FF0000" stroke="black" stroke-width="0.0375"/>
<path fill-rule="evenodd" clip-rule="evenodd" d="M8.74999 8.245C8.76499 8.285 8.74999 8.335 8.69999 8.36C8.64999 8.385 8.59999 8.37 8.57499 8.33C8.54999 8.29 8.57499 8.235 8.62499 8.21C8.67499 8.185 8.72499 8.205 8.74499 8.245H8.74999Z" fill="#FF0000" stroke="black" stroke-width="0.0375"/>
<path fill-rule="evenodd" clip-rule="evenodd" d="M8.77501 8.30003C8.79501 8.34003 8.77501 8.39504 8.72501 8.41504C8.67501 8.43504 8.62502 8.42503 8.60502 8.38503C8.58502 8.34503 8.60502 8.29503 8.65502 8.27003C8.70502 8.24503 8.75501 8.26003 8.77501 8.30003Z" fill="#FF0000" stroke="black" stroke-width="0.0375"/>
<path fill-rule="evenodd" clip-rule="evenodd" d="M6.24141 9.04724C6.24141 9.59594 5.21481 15.6378 7.78421 17.2839C8.81081 17.8326 10.3507 16.7352 10.3507 17.2839L9.83741 12.8912L6.24141 9.04724Z" fill="#0000C4" stroke="black" stroke-width="0.0999444"/>
<path fill-rule="evenodd" clip-rule="evenodd" d="M7.26798 10.1447C7.26798 10.6934 6.75468 15.0861 8.29748 16.1866C9.32408 17.284 11.8935 16.9864 11.8935 16.9864L9.83738 12.8913L7.26798 10.1447Z" fill="#E10000" stroke="black" stroke-width="0.0999444"/>
<path fill-rule="evenodd" clip-rule="evenodd" d="M5.19 7.89995L9.93 12.9L10.015 12.82L5.275 7.82495L5.195 7.90495L5.19 7.89995Z" fill="black"/>
<path fill-rule="evenodd" clip-rule="evenodd" d="M4.46067 7.30735L4.76157 7.36045L4.85007 7.44895C4.83797 7.44805 4.93857 7.53745 4.81467 7.66135C4.69077 7.78525 4.51447 7.60755 4.51447 7.60755C4.51447 7.60755 4.56757 7.90845 4.74507 8.08595C4.92257 8.26345 5.13447 8.22755 5.13447 8.22755C5.13447 8.22755 4.93277 8.06225 5.08137 7.92665C5.23017 7.78985 5.29377 7.89125 5.29377 7.89125L5.47077 8.06825L5.59537 7.94365L4.88687 7.23515L4.83377 6.93425L4.37737 6.85865L4.46087 7.30615L4.46067 7.30735Z" fill="#CECECC" stroke="black" stroke-width="0.0278887"/>
<path fill-rule="evenodd" clip-rule="evenodd" d="M5.15887 5.20612L5.52297 5.77052L5.98387 5.89492L5.68297 6.08962L6.23167 6.07192L6.48017 6.24942L6.56917 6.10702L6.31997 5.92902L6.12577 5.37952L6.07217 5.75202L5.78877 5.34362L5.15867 5.20482L5.15887 5.20612Z" fill="#CECECC" stroke="black" stroke-width="0.0300285"/>
<path fill-rule="evenodd" clip-rule="evenodd" d="M6.63998 5.54498C6.63998 5.57498 6.59998 5.60048 6.55398 5.60048C6.50798 5.60048 6.46598 5.57498 6.46598 5.54498C6.46598 5.51498 6.50598 5.48798 6.55398 5.48798C6.60198 5.48798 6.63998 5.51348 6.63998 5.54498ZM6.51598 5.66348C6.51598 6.20048 6.93398 8.48048 6.96798 8.53598C6.96998 8.60348 6.87198 8.63198 6.82598 8.54948C6.69398 8.28848 6.40998 6.14948 6.39998 5.64998C6.39398 5.44448 6.47398 5.42798 6.56598 5.43248C6.63998 5.43548 6.73198 5.48798 6.73198 5.55098C6.73198 5.62598 6.61598 5.68148 6.51598 5.66348Z" fill="#E10000" stroke="black" stroke-width="0.057735"/>
<path fill-rule="evenodd" clip-rule="evenodd" d="M6.79999 6.07747C6.78499 6.10747 6.73424 6.12297 6.69054 6.11147C6.64684 6.09997 6.61969 6.06397 6.63469 6.03397C6.64969 6.00397 6.70119 5.98697 6.74679 5.99897C6.79239 6.01097 6.81574 6.04597 6.79999 6.07747ZM6.62294 6.16497C6.76094 7.24347 6.29799 8.90897 6.30179 8.97447C6.27069 9.04097 6.16259 9.04647 6.16089 8.95097C6.13814 8.88897 6.67109 7.38447 6.51949 6.12247C6.61654 5.91547 6.70079 5.91897 6.78594 5.94647C6.85474 5.96797 6.91589 6.04347 6.88439 6.10647C6.84689 6.18147 6.70894 6.20797 6.62294 6.16497Z" fill="#0000C4" stroke="black" stroke-width="0.060506"/>
<path fill-rule="evenodd" clip-rule="evenodd" d="M5.33503 7.57504C5.33503 7.62504 5.28503 7.67504 5.22503 7.67504C5.16503 7.67504 5.11503 7.62504 5.11503 7.57504C5.11503 7.52504 5.16503 7.48504 5.22503 7.48504C5.28503 7.48504 5.33003 7.52504 5.33003 7.57504H5.33503ZM5.17503 7.77504C5.17503 8.67004 5.70003 12.47 5.74003 12.565C5.74003 12.675 5.62503 12.725 5.56503 12.585C5.40003 12.15 5.04503 8.58504 5.03003 7.75504C5.02503 7.41004 5.12503 7.38504 5.24003 7.39004C5.33503 7.39504 5.44503 7.48504 5.44503 7.59004C5.44503 7.71004 5.30003 7.80504 5.17503 7.77504Z" fill="#E10000" stroke="black" stroke-width="0.0875"/>
<path fill-rule="evenodd" clip-rule="evenodd" d="M5.60502 8.03669C5.58502 8.08469 5.52002 8.11049 5.46482 8.09324C5.40962 8.07599 5.37622 8.01944 5.39622 7.97144C5.41622 7.92344 5.48222 7.89524 5.53982 7.91324C5.59742 7.93124 5.62602 7.98629 5.60502 8.03669ZM5.37722 8.17979C5.51922 9.88964 4.87902 12.5458 4.88182 12.6498C4.84022 12.7561 4.70262 12.7674 4.70342 12.6157C4.67642 12.5178 5.40062 10.1157 5.24702 8.11469C5.37682 7.78364 5.48382 7.78724 5.59122 7.82894C5.67802 7.86149 5.75342 7.97999 5.71142 8.08079C5.66142 8.20079 5.48522 8.24609 5.37722 8.17979Z" fill="#0000C4" stroke="black" stroke-width="0.0852291"/>
<path fill-rule="evenodd" clip-rule="evenodd" d="M14.52 14.54L18.145 18.365L18.21 18.285L14.585 14.46L14.52 14.54ZM12 15.165L16.74 20.165L16.82 20.085L12.085 15.085L12 15.165Z" fill="black"/>
<path fill-rule="evenodd" clip-rule="evenodd" d="M16.7254 20.1066L17.1684 20.5496L17.6734 20.9306L17.2923 20.4257L16.8493 19.9827L16.7254 20.1066Z" fill="#808080" stroke="black" stroke-width="0.0606398"/>
<path fill-rule="evenodd" clip-rule="evenodd" d="M17.9454 18.1516L18.3884 18.5946L18.8933 18.9757L18.5123 18.4707L18.0693 18.0277L17.9454 18.1516Z" fill="#808080" stroke="black" stroke-width="0.0606398"/>
<path fill-rule="evenodd" clip-rule="evenodd" d="M17.603 5.73962C17.603 5.73962 18.0013 16.5108 16.4083 16.5108C14.8153 16.5108 14.0165 15.378 14.0165 15.378L14.0345 9.45802L17.603 5.73962Z" fill="#FFDF00" stroke="black" stroke-width="0.0894427"/>
<path fill-rule="evenodd" clip-rule="evenodd" d="M16.6288 6.74438C16.6288 7.31078 16.8065 15.378 16.01 15.378C15.2135 15.378 14.0165 14.8116 14.0165 14.8116L14.0345 9.45798L16.6288 6.74438Z" fill="#0000C4" stroke="black" stroke-width="0.0894427"/>
<path fill-rule="evenodd" clip-rule="evenodd" d="M16.1113 7.28845C16.1113 7.85485 16.01 14.2453 15.2113 14.2453H14.0165L14.0345 9.45805L16.1113 7.28845Z" fill="#E10000" stroke="black" stroke-width="0.0894427"/>
<path fill-rule="evenodd" clip-rule="evenodd" d="M17.69 5.79997L14.07 9.62497L14.005 9.54497L17.625 5.71997L17.69 5.79997Z" fill="black"/>
<path fill-rule="evenodd" clip-rule="evenodd" d="M14.8326 8.75386C14.8326 8.75386 15.8474 10.0559 16.337 11.0621C16.8262 12.0705 17.3974 13.607 17.3974 13.607C17.3974 13.607 17.071 12.0943 16.455 10.8815C15.6478 9.35586 14.8322 8.84066 14.8326 8.75386Z" fill="#005B00" stroke="black" stroke-width="0.0417337"/>
<path fill-rule="evenodd" clip-rule="evenodd" d="M14.7975 7.71948C14.7975 7.71948 15.9299 9.32973 16.4468 10.524C16.9631 11.7205 17.5379 13.514 17.5379 13.514C17.5379 13.514 17.2589 11.7885 16.6044 10.3447C15.7418 8.52298 14.7902 7.81523 14.7975 7.71948Z" fill="#005B00" stroke="black" stroke-width="0.0482227"/>
<path fill-rule="evenodd" clip-rule="evenodd" d="M15.7748 6.12742C15.7748 6.12742 16.576 8.51192 16.8201 9.98642C17.063 11.4622 17.2113 13.4932 17.2113 13.4932C17.2113 13.4932 17.3656 11.7886 17.0383 9.97912C16.5856 7.66242 15.7416 6.20132 15.7748 6.12742Z" fill="#005B00" stroke="black" stroke-width="0.0547737"/>
<path fill-rule="evenodd" clip-rule="evenodd" d="M15.0555 6.01838C15.0555 6.01838 16.1649 8.13603 16.5971 9.57508C17.0281 11.0162 17.4334 13.0953 17.4334 13.0953C17.4334 13.0953 17.3749 11.2066 16.8166 9.45483C16.0678 7.22948 15.0312 6.11393 15.0555 6.01838Z" fill="#005B00" stroke="black" stroke-width="0.0555036"/>
<path fill-rule="evenodd" clip-rule="evenodd" d="M16.3878 6.69219C16.3878 6.69219 16.9399 8.97219 17.0786 10.3324C17.2162 11.6936 17.2556 13.5301 17.2556 13.5301C17.2556 13.5301 17.4474 12.0438 17.2549 10.369C16.9812 8.21819 16.3581 6.75139 16.3878 6.69219Z" fill="#005B00" stroke="black" stroke-width="0.0492217"/>
<path fill-rule="evenodd" clip-rule="evenodd" d="M14.9288 6.755C14.9288 6.755 16.0021 8.569 16.4364 9.837C16.8698 11.107 17.2965 12.963 17.2965 12.963C17.2965 12.963 17.1928 11.243 16.6345 9.703C15.889 7.751 14.9091 6.845 14.9288 6.755Z" fill="#005B00" stroke="black" stroke-width="0.0506234"/>
<path fill-rule="evenodd" clip-rule="evenodd" d="M14.7275 8.01838C14.7275 8.01838 15.8599 9.45643 16.3768 10.5578C16.8931 11.6614 17.4679 13.3371 17.4679 13.3371C17.4679 13.3371 17.1889 11.6954 16.5344 10.3671C15.6718 8.69508 14.7202 8.11193 14.7275 8.01838Z" fill="#005B00" stroke="black" stroke-width="0.0476898"/>
<path fill-rule="evenodd" clip-rule="evenodd" d="M14.8745 7.35771C14.8745 7.35771 15.9162 9.04946 16.3697 10.2732C16.8225 11.4991 17.3045 13.3176 17.3045 13.3176C17.3045 13.3176 17.1115 11.5943 16.534 10.1121C15.769 8.23821 14.8627 7.45116 14.8745 7.35771Z" fill="#005B00" stroke="black" stroke-width="0.0475875"/>
<path fill-rule="evenodd" clip-rule="evenodd" d="M16.0027 6.16357C16.0027 6.16357 16.6724 8.49812 16.8384 9.92398C17.0031 11.351 17.0461 13.3017 17.0461 13.3017C17.0461 13.3017 17.2853 11.6842 17.0543 9.93242C16.7252 7.68727 15.9661 6.23182 16.0027 6.16357Z" fill="#005B00" stroke="black" stroke-width="0.0532434"/>
<path fill-rule="evenodd" clip-rule="evenodd" d="M15.0834 5.58154C15.0834 5.58154 16.0614 7.78069 16.4154 9.24924C16.7682 10.7197 17.0682 12.8238 17.0682 12.8238C17.0682 12.8238 17.0946 10.9373 16.6326 9.14709C16.0074 6.86964 15.0558 5.67479 15.0834 5.58154Z" fill="#005B00" stroke="black" stroke-width="0.0547386"/>
<path fill-rule="evenodd" clip-rule="evenodd" d="M16.6407 6.8593C16.6407 6.8593 17.0613 9.0486 17.1219 10.3455C17.1813 11.6431 17.1154 13.3868 17.1154 13.3868C17.1154 13.3868 17.3921 11.9865 17.2958 10.3888C17.1458 8.3355 16.6076 6.914 16.6407 6.8593Z" fill="#005B00" stroke="black" stroke-width="0.0473281"/>
<path fill-rule="evenodd" clip-rule="evenodd" d="M14.9584 6.48821C14.9584 6.48821 15.9364 8.38371 16.2904 9.68121C16.6432 10.9806 16.9432 12.8616 16.9432 12.8616C16.9432 12.8616 16.9696 11.1438 16.5076 9.56531C15.8824 7.56121 14.9308 6.57591 14.9584 6.48821Z" fill="#005B00" stroke="black" stroke-width="0.0517292"/>
<path fill-rule="evenodd" clip-rule="evenodd" d="M18.7852 7.94678C18.7852 7.94678 19.8118 18.3814 16.732 18.3814C14.1655 18.3814 14.1655 16.7353 13.6522 16.7353L14.1655 12.8913L18.7881 7.94678H18.7852Z" fill="#FFDF00" stroke="black" stroke-width="0.0999444"/>
<path fill-rule="evenodd" clip-rule="evenodd" d="M17.7586 9.04736C17.7586 9.59606 18.7852 15.638 16.2158 17.2841C15.1892 17.8328 13.6493 16.7354 13.6493 17.2841L14.1626 12.8914L17.7586 9.04736Z" fill="#0000C4" stroke="black" stroke-width="0.0999444"/>
<path fill-rule="evenodd" clip-rule="evenodd" d="M16.732 10.1448C16.732 10.6935 17.2453 15.0862 15.7025 16.1867C14.6759 17.2841 12.1065 16.9865 12.1065 16.9865L14.1626 12.8914L16.732 10.1448Z" fill="#E10000" stroke="black" stroke-width="0.0999444"/>
<path fill-rule="evenodd" clip-rule="evenodd" d="M18.81 7.90007L14.07 12.9001L13.985 12.8201L18.725 7.82507L18.81 7.90507V7.90007Z" fill="black"/>
<path fill-rule="evenodd" clip-rule="evenodd" d="M19.5393 7.30735L19.2384 7.36045L19.1499 7.44895C19.162 7.44805 19.0614 7.53745 19.1853 7.66135C19.3092 7.78525 19.4855 7.60755 19.4855 7.60755C19.4855 7.60755 19.4324 7.90845 19.2549 8.08595C19.0774 8.26345 18.8655 8.22755 18.8655 8.22755C18.8655 8.22755 19.0672 8.06225 18.9186 7.92665C18.7698 7.78985 18.7062 7.89125 18.7062 7.89125L18.5292 8.06825L18.4046 7.94365L19.1131 7.23515L19.1662 6.93425L19.6226 6.85865L19.5391 7.30615L19.5393 7.30735Z" fill="#CECECC" stroke="black" stroke-width="0.0278887"/>
<path fill-rule="evenodd" clip-rule="evenodd" d="M18.8411 5.20612L18.477 5.77052L18.0161 5.89492L18.317 6.08962L17.7683 6.07192L17.5198 6.24942L17.4308 6.10702L17.68 5.92902L17.8742 5.37952L17.9278 5.75202L18.2112 5.34362L18.8413 5.20482L18.8411 5.20612Z" fill="#CECECC" stroke="black" stroke-width="0.0300285"/>
<path fill-rule="evenodd" clip-rule="evenodd" d="M17.365 5.54498C17.365 5.57498 17.405 5.60048 17.451 5.60048C17.497 5.60048 17.539 5.57498 17.539 5.54498C17.539 5.51498 17.499 5.48798 17.451 5.48798C17.403 5.48798 17.365 5.51348 17.365 5.54498ZM17.489 5.66348C17.489 6.20048 17.071 8.48048 17.037 8.53598C17.035 8.60348 17.133 8.63198 17.179 8.54948C17.311 8.28848 17.595 6.14948 17.605 5.64998C17.611 5.44448 17.531 5.42798 17.439 5.43248C17.365 5.43548 17.273 5.48798 17.273 5.55098C17.273 5.62598 17.389 5.68148 17.489 5.66348Z" fill="#E10000" stroke="black" stroke-width="0.057735"/>
<path fill-rule="evenodd" clip-rule="evenodd" d="M17.2 6.07747C17.215 6.10747 17.2658 6.12297 17.3095 6.11147C17.3532 6.09997 17.3803 6.06397 17.3653 6.03397C17.3503 6.00397 17.2988 5.98697 17.2532 5.99897C17.2076 6.01097 17.1843 6.04597 17.2 6.07747ZM17.3771 6.16497C17.2391 7.24347 17.702 8.90897 17.6982 8.97447C17.7293 9.04097 17.8374 9.04647 17.8391 8.95097C17.8619 8.88897 17.3289 7.38447 17.4805 6.12247C17.3835 5.91547 17.2992 5.91897 17.2141 5.94647C17.1453 5.96797 17.0841 6.04347 17.1156 6.10647C17.1531 6.18147 17.2911 6.20797 17.3771 6.16497Z" fill="#0000C4" stroke="black" stroke-width="0.060506"/>
<path fill-rule="evenodd" clip-rule="evenodd" d="M18.67 7.57504C18.67 7.62504 18.72 7.67504 18.775 7.67504C18.835 7.67504 18.885 7.62504 18.885 7.57504C18.885 7.52504 18.835 7.48504 18.775 7.48504C18.715 7.48504 18.67 7.52504 18.67 7.57504ZM18.82 7.77504C18.7003 9.37883 18.5135 10.9769 18.26 12.565C18.26 12.675 18.375 12.725 18.435 12.585C18.6 12.15 18.955 8.58504 18.97 7.75504C18.975 7.41004 18.875 7.38504 18.76 7.39004C18.665 7.39504 18.555 7.48504 18.555 7.59004C18.555 7.71004 18.7 7.80504 18.825 7.77504H18.82Z" fill="#E10000" stroke="black" stroke-width="0.0875"/>
<path fill-rule="evenodd" clip-rule="evenodd" d="M18.395 8.03681C18.415 8.08481 18.48 8.11061 18.5352 8.09336C18.5904 8.07611 18.6238 8.01956 18.6038 7.97156C18.5838 7.92356 18.5178 7.89536 18.4602 7.91336C18.4026 7.93136 18.374 7.98641 18.395 8.03681ZM18.6228 8.17991C18.4808 9.88976 19.121 12.546 19.1182 12.6499C19.1598 12.7563 19.2974 12.7675 19.2966 12.6159C19.3236 12.5179 18.5994 10.1158 18.753 8.11481C18.6232 7.78376 18.5162 7.78736 18.4088 7.82906C18.322 7.86161 18.2466 7.98011 18.2886 8.08091C18.3386 8.20091 18.5148 8.24621 18.6228 8.17991Z" fill="#0000C4" stroke="black" stroke-width="0.0852291"/>
<path fill-rule="evenodd" clip-rule="evenodd" d="M10.3536 21.1279C10.5879 21.2718 10.8534 21.3475 11.1236 21.3475C11.3938 21.3475 11.6592 21.2718 11.8935 21.1279V16.7352H10.8669C11.3802 18.3813 11.3802 20.0305 10.3507 21.1279H10.3536Z" fill="#E10000" stroke="black" stroke-width="0.0999444"/>
<path fill-rule="evenodd" clip-rule="evenodd" d="M11.1665 16.8325C11.1665 19.93 10.4227 20.6195 10.4227 21.2425C10.7325 21.2425 10.939 20.952 11.1665 20.553C11.4762 19.93 11.506 16.7835 11.4762 16.8325H11.1665Z" fill="#0000C4" stroke="black" stroke-width="0.0824958"/>
<path fill-rule="evenodd" clip-rule="evenodd" d="M10.547 16.8325C10.5313 18.642 9.76303 20.3185 9.90828 20.6895C10.0728 21.022 10.547 19.93 11.1665 20.5495C11.4763 19.93 11.506 16.7835 11.4763 16.829H10.547V16.8325Z" fill="#0000C4" stroke="black" stroke-width="0.0824958"/>
<path fill-rule="evenodd" clip-rule="evenodd" d="M10.6165 16.5685C10.6165 18.604 9.90424 18.7397 9.90424 19.2825C10.214 19.2825 10.6147 18.9858 10.6165 19.0134C10.9262 18.604 10.956 16.5363 10.9262 16.5685H10.6165Z" fill="#FFDF00" stroke="black" stroke-width="0.0668747"/>
<path fill-rule="evenodd" clip-rule="evenodd" d="M9.99701 16.5685C9.98126 17.7576 9.23051 18.7696 9.37576 19.0134C9.54201 19.2296 9.99701 18.604 10.6165 19.0134C10.9263 18.604 10.956 16.5363 10.9263 16.5685H9.99701Z" fill="#FFDF00" stroke="black" stroke-width="0.0668747"/>
<path fill-rule="evenodd" clip-rule="evenodd" d="M13.6464 21.1279C13.4121 21.2718 13.1466 21.3475 12.8764 21.3475C12.6062 21.3475 12.3408 21.2718 12.1065 21.1279V16.7352H13.1331C12.6198 18.3813 12.6198 20.0305 13.6493 21.1279H13.6464Z" fill="#E10000" stroke="black" stroke-width="0.0999444"/>
<path fill-rule="evenodd" clip-rule="evenodd" d="M12.8335 16.8325C12.8335 19.93 13.5773 20.6195 13.5773 21.2425C13.2675 21.2425 13.061 20.952 12.8335 20.553C12.5238 19.93 12.494 16.7835 12.5238 16.8325H12.8335Z" fill="#0000C4" stroke="black" stroke-width="0.0824958"/>
<path fill-rule="evenodd" clip-rule="evenodd" d="M13.453 16.8325C13.4688 18.642 14.237 20.3185 14.0918 20.6895C13.9273 21.022 13.453 19.93 12.8335 20.5495C12.5238 19.93 12.494 16.7835 12.5238 16.829H13.453V16.8325Z" fill="#0000C4" stroke="black" stroke-width="0.0824958"/>
<path fill-rule="evenodd" clip-rule="evenodd" d="M13.3835 16.5685C13.3835 18.604 14.0958 18.7397 14.0958 19.2825C13.786 19.2825 13.3853 18.9858 13.3835 19.0134C13.0738 18.604 13.044 16.5363 13.0738 16.5685H13.3835Z" fill="#FFDF00" stroke="black" stroke-width="0.0668747"/>
<path fill-rule="evenodd" clip-rule="evenodd" d="M14.003 16.5685C14.0187 17.7576 14.7695 18.7696 14.6242 19.0134C14.458 19.2296 14.003 18.604 13.3835 19.0134C13.0737 18.604 13.044 16.5363 13.0737 16.5685H14.003Z" fill="#FFDF00" stroke="black" stroke-width="0.0668747"/>
<path fill-rule="evenodd" clip-rule="evenodd" d="M8.0816 17.078L7.5434 17.4674L8.0816 17.8568L8.3504 17.6621L8.4848 17.8568L8.6192 18.2462L8.7542 17.8568L8.8886 17.6621H16.1V17.2727H8.888L8.7536 17.0769C8.7536 16.8822 8.7818 16.6875 8.8886 16.6875H9.4262C9.4262 16.4928 9.1574 16.1034 8.6192 16.1034C8.0816 16.1034 7.8122 16.4928 7.8122 16.6875H8.3504C8.4566 16.6875 8.4848 16.8822 8.4848 17.078L8.3504 17.2727L8.081 17.0769L8.0816 17.078Z" fill="#908F8A" stroke="black" stroke-width="0.0913954"/>
<path fill-rule="evenodd" clip-rule="evenodd" d="M9.66022 18.022H14.374V18.2609H9.66162L9.66022 18.022ZM9.66022 17.7817H14.374V18.022H9.66162L9.66022 17.7817ZM9.66022 17.5427H14.374V17.783H9.66162L9.66022 17.5427ZM9.66022 17.3038H14.374V17.5427H9.66162L9.66022 17.3038ZM9.66022 17.0648H14.374V17.3038H9.66162L9.66022 17.0648ZM9.66022 16.8245H14.374V17.0648H9.66162L9.66022 16.8245ZM9.66022 16.5869H14.374V16.8245H9.66162L9.66022 16.5869Z" fill="#B74D00" stroke="black" stroke-width="0.0618648"/>
<path fill-rule="evenodd" clip-rule="evenodd" d="M9.88501 16.5728L11.6075 18.2468H11.8538L10.1325 16.5741H9.88626L9.88501 16.5728Z" fill="#908F8A" stroke="black" stroke-width="0.107171"/>
<path fill-rule="evenodd" clip-rule="evenodd" d="M9.88501 18.2972L11.6075 16.6232H11.8538L10.1325 18.2959H9.88626L9.88501 18.2972Z" fill="#908F8A" stroke="black" stroke-width="0.107171"/>
<path fill-rule="evenodd" clip-rule="evenodd" d="M9.9328 16.5728V18.2468H10.1806V16.5728H9.9328Z" fill="#908F8A" stroke="black" stroke-width="0.106545"/>
<path fill-rule="evenodd" clip-rule="evenodd" d="M12.1 16.5728L13.8225 18.2468H14.0687L12.3475 16.5741H12.1012L12.1 16.5728Z" fill="#908F8A" stroke="black" stroke-width="0.107171"/>
<path fill-rule="evenodd" clip-rule="evenodd" d="M12.1 18.2972L13.8225 16.6232H14.0687L12.3475 18.2959H12.1012L12.1 18.2972Z" fill="#908F8A" stroke="black" stroke-width="0.107171"/>
<path fill-rule="evenodd" clip-rule="evenodd" d="M13.8728 16.5728V18.2468H14.1206V16.5728H13.8728Z" fill="#908F8A" stroke="black" stroke-width="0.106545"/>
<path fill-rule="evenodd" clip-rule="evenodd" d="M12.1528 16.5728V18.2468H12.4006V16.5728H12.1528Z" fill="#908F8A" stroke="black" stroke-width="0.106545"/>
<path fill-rule="evenodd" clip-rule="evenodd" d="M11.6528 16.5728V18.2468H11.9006V16.5728H11.6528Z" fill="#908F8A" stroke="black" stroke-width="0.106545"/>
<path fill-rule="evenodd" clip-rule="evenodd" d="M15.4895 11.7939C15.4895 14.5219 13.8771 16.7353 11.8935 16.7353C9.90989 16.7353 8.29749 14.5219 8.29749 11.7939C8.29749 9.06587 9.90699 6.84937 11.8935 6.84937C13.88 6.84937 15.4895 9.06277 15.4895 11.7908V11.7939ZM14.9762 11.7939C14.9762 14.2181 13.5958 16.1866 11.8935 16.1866C10.1912 16.1866 8.81079 14.2181 8.81079 11.7939C8.81079 9.36657 10.1912 7.39807 11.8935 7.39807C13.5958 7.39807 14.9762 9.36657 14.9762 11.7939Z" fill="#FFDF00" stroke="black" stroke-width="0.0999444"/>
<path fill-rule="evenodd" clip-rule="evenodd" d="M13.2942 7.23997C12.8621 6.98887 12.3894 6.84937 11.8935 6.84937C11.3976 6.84937 10.9249 6.98887 10.4928 7.23687L10.6958 7.74527C11.0605 7.52056 11.474 7.40227 11.8949 7.40227C12.3159 7.40227 12.7294 7.52056 13.0941 7.74527L13.2942 7.23687V7.23997Z" fill="#FFDF00" stroke="black" stroke-width="0.0999444"/>
<path fill-rule="evenodd" clip-rule="evenodd" d="M13.3042 16.215C12.8721 16.4661 12.3994 16.6056 11.9035 16.6056C11.4076 16.6056 10.9349 16.4661 10.5028 16.2181L10.7058 15.7097C11.0705 15.9344 11.484 16.0527 11.905 16.0527C12.3259 16.0527 12.7394 15.9344 13.1041 15.7097L13.3042 16.2181V16.215Z" fill="#FFDF00" stroke="black" stroke-width="0.0999444"/>
<path fill-rule="evenodd" clip-rule="evenodd" d="M14.98 11.795C14.98 14.22 13.595 16.185 11.895 16.185C10.195 16.185 8.815 14.22 8.815 11.795C8.815 9.37002 10.195 7.39502 11.895 7.39502C13.595 7.39502 14.98 9.36502 14.98 11.795Z" fill="#A7CFFF"/>
<path fill-rule="evenodd" clip-rule="evenodd" d="M14.9762 11.7939C15.0081 12.6185 14.8428 13.0215 14.6311 13.8802C14.576 13.9732 14.3121 13.6787 14.1555 13.533C13.9989 13.3873 13.9293 13.6632 13.7321 13.44C13.5378 13.2106 13.4131 13.502 13.2681 13.3098C13.1231 13.1176 11.7804 13.0928 11.7804 13.0742C11.9138 13.006 12.5982 13.0804 12.488 12.7301C12.3633 12.3643 11.589 12.7177 11.4846 12.2527C11.4121 11.7877 9.93021 11.7691 9.82291 11.6575C9.86641 11.8311 10.9771 11.9055 10.951 12.355C10.9249 12.541 9.85771 12.5937 9.75331 12.7487C9.66631 12.944 10.5943 12.696 10.6262 12.9347C10.6262 13.0339 10.4899 12.9347 10.0085 13.0897C9.76491 13.1672 10.4551 13.409 10.1941 13.5423C9.93311 13.6756 9.37341 13.7345 9.39661 13.7903C9.48361 14.0693 10.6929 14.3979 10.574 14.4444C10.1448 14.649 9.91861 14.7823 9.71271 14.9001C9.1094 13.9943 8.79333 12.9057 8.81081 11.7939C9.73011 11.4405 9.53581 11.3661 11.2352 11.3661C12.9346 11.3661 13.4972 11.4374 14.9762 11.7939Z" fill="#AFFF7B" stroke="black" stroke-width="0.0999444"/>
<path fill-rule="evenodd" clip-rule="evenodd" d="M14.9762 11.7939C14.7442 11.7939 14.5006 11.8993 14.2512 11.8993C13.9989 11.8993 13.7437 11.7908 13.4827 11.7908C13.2217 11.7908 12.923 11.9334 12.6562 11.9334C12.3865 11.9334 12.1516 11.7939 11.8819 11.7939C11.6122 11.7939 11.3425 11.8993 11.0757 11.8993C10.8089 11.8993 10.545 11.7908 10.2869 11.7908C10.0288 11.7908 9.77359 11.8993 9.52709 11.8993C9.28059 11.8993 9.03989 11.7908 8.81079 11.7908C8.81079 11.1863 8.89779 10.6097 9.05439 10.0827C9.83739 10.1447 9.37339 9.59596 9.83739 9.59596C9.97284 9.58812 10.1083 9.61115 10.2348 9.66353C10.3613 9.7159 10.4759 9.79643 10.5711 9.89976C10.6407 9.89976 10.9887 9.54636 11.3802 9.59596C11.7688 9.64556 11.6267 10.4423 12.1458 10.4826C12.4068 10.6934 12.5605 10.8267 12.9201 10.9135C13.4334 10.9631 14.9037 10.836 14.9124 10.9073C14.9547 11.2006 14.9761 11.497 14.9762 11.7939Z" fill="white" stroke="black" stroke-width="0.0999444"/>
<path fill-rule="evenodd" clip-rule="evenodd" d="M12.359 14.351C12.359 14.2142 12.494 14.123 12.494 13.9046C12.494 13.6862 12.374 13.6814 12.37 13.4774C12.368 13.3934 12.473 13.3094 12.519 13.2998C12.565 13.2902 12.604 13.4774 12.604 13.5182C12.604 13.559 12.557 13.4174 12.518 13.415C12.479 13.4126 12.395 13.4294 12.395 13.4702C12.395 13.5518 12.543 13.6526 12.532 13.9262C12.521 14.195 12.405 14.2766 12.405 14.3582C12.405 14.4398 12.455 14.6654 12.455 14.6654C12.455 14.6654 12.358 14.4854 12.358 14.3486L12.359 14.351Z" fill="black" stroke="black" stroke-width="0.0516398"/>
<path fill-rule="evenodd" clip-rule="evenodd" d="M12.791 14.331C12.791 14.1942 12.656 14.103 12.656 13.8846C12.656 13.6662 12.776 13.6614 12.78 13.4574C12.79 13.3614 12.662 13.299 12.616 13.2918C12.57 13.2846 12.516 13.4838 12.516 13.5222C12.516 13.5606 12.57 13.3974 12.609 13.395C12.648 13.3926 12.755 13.4094 12.755 13.4502C12.755 13.5318 12.607 13.6326 12.618 13.9062C12.629 14.175 12.745 14.2566 12.745 14.3382C12.745 14.4198 12.695 14.6454 12.695 14.6454C12.695 14.6454 12.792 14.4654 12.792 14.3286L12.791 14.331Z" fill="black" stroke="black" stroke-width="0.0516398"/>
<path fill-rule="evenodd" clip-rule="evenodd" d="M12.65 13.245C12.65 13.31 12.615 13.365 12.575 13.365C12.535 13.365 12.505 13.31 12.505 13.24C12.505 13.17 12.535 13.12 12.575 13.12C12.615 13.12 12.65 13.175 12.65 13.245ZM13.5 13.695H13.52V14.67H13.495L13.5 13.695ZM13.705 13.615H13.73V14.6H13.705V13.615Z" fill="black"/>
<path fill-rule="evenodd" clip-rule="evenodd" d="M13.63 14.06V14.035L13.83 14.07V14.095L13.63 14.06Z" fill="black"/>
<path fill-rule="evenodd" clip-rule="evenodd" d="M10.7717 14.343C10.7717 14.343 11.5257 14.6964 11.691 14.9072C11.8534 15.118 11.7896 15.118 11.7896 15.118L13.4629 15.1893C13.4629 15.0839 13.7587 15.0839 13.8254 14.8359C13.8921 14.591 13.8921 14.5197 13.8921 14.5197L13.3672 14.6964L13.3962 14.3802H12.938L12.8713 14.6964L11.8853 14.6623L11.952 13.816L11.7548 13.8501L11.7258 14.6561C11.691 14.6561 10.8036 14.4112 10.7688 14.343H10.7717Z" fill="#B74D00" stroke="black" stroke-width="0.0999444"/>
<path fill-rule="evenodd" clip-rule="evenodd" d="M9.25452 9.29528C9.25452 9.29528 10.3478 8.94808 11.9254 8.97288C13.503 8.99768 14.5963 9.36968 14.5731 9.36968C14.5499 9.36968 14.2715 8.79928 14.2715 8.79928C14.2715 8.79928 13.1579 8.47378 11.9022 8.44898C10.6494 8.42418 9.55612 8.69698 9.58222 8.72178L9.25452 9.29528Z" fill="#FEDE00" stroke="#FEDE00" stroke-width="0.0999444"/>
<path fill-rule="evenodd" clip-rule="evenodd" d="M11.3 8.48997L11.98 8.47997L11.99 8.87497L11.31 8.88997L11.3 8.48997ZM9.74 8.70497L9.5 9.09997L10.31 8.99997L10.245 8.61497L9.74 8.71497V8.70497ZM10.425 8.55497L11.105 8.49997L11.135 8.88997L10.46 8.94997L10.425 8.55497ZM12.87 8.51997L12.195 8.46997L12.17 8.86997L12.845 8.90997L12.87 8.51997ZM14.33 8.76997L14.575 9.24997L13.845 9.06997L13.925 8.68497L14.325 8.76497L14.33 8.76997ZM13.74 8.61997L13.07 8.53497L13.02 8.92497L13.695 9.01497L13.74 8.61997Z" fill="#38A9F9"/>
<path fill-rule="evenodd" clip-rule="evenodd" d="M11.9254 9.51844L11.8529 9.09994L11.6325 9.45644L11.7137 9.03794L11.386 9.27664L11.6064 8.92634L11.2178 9.01314L11.5513 8.77754L11.1598 8.70004L11.5513 8.61944L11.2178 8.38384L11.6064 8.47064L11.3831 8.12034L11.7137 8.35904L11.6325 7.94054L11.8529 8.29704L11.9254 7.87854L12.0008 8.29704L12.2183 7.94054L12.14 8.35904L12.4677 8.12034L12.2444 8.47064L12.6359 8.38384L12.3024 8.61944L12.6939 8.70004L12.3024 8.77754L12.6359 9.01314L12.2444 8.92634L12.4677 9.27664L12.14 9.03794L12.2212 9.45644L12.0008 9.09994L11.9254 9.51844Z" fill="#FFDF00" stroke="black" stroke-width="0.0999444"/>
<path fill-rule="evenodd" clip-rule="evenodd" d="M12.5045 8.43751C12.5045 8.67001 12.3164 8.85751 12.0827 8.85751C11.849 8.85751 11.6609 8.67001 11.6609 8.43751C11.6609 8.20501 11.849 8.01501 12.0827 8.01501C12.3164 8.01501 12.5045 8.20501 12.5045 8.44001V8.43751Z" fill="#FFDF00" stroke="black" stroke-width="0.0889757"/>
<path fill-rule="evenodd" clip-rule="evenodd" d="M12.035 8.52998C12.035 8.55498 11.97 8.57998 11.895 8.57998C11.82 8.57998 11.755 8.55498 11.755 8.52998C11.755 8.50498 11.815 8.47998 11.895 8.47998C11.975 8.47998 12.035 8.49998 12.035 8.52998ZM12.335 8.52998C12.335 8.55498 12.29 8.57998 12.235 8.57998C12.18 8.57998 12.125 8.55498 12.125 8.52998C12.125 8.49998 12.175 8.47998 12.23 8.47998C12.285 8.47998 12.335 8.49998 12.335 8.52998Z" fill="black"/>
<path d="M12.0204 8.70246L12.0496 8.71926C11.9794 8.67636 12.0114 8.69226 12.1216 8.80086C12.1845 8.76426 12.1965 8.73096 12.2356 8.68566" stroke="black" stroke-width="0.100943"/>
<path d="M11.7412 8.92326L11.7644 8.94806C11.7093 8.88606 11.7354 8.91706 11.8572 8.99766C11.9732 9.01316 12.0921 8.96046 12.1617 8.87366" stroke="black" stroke-width="0.0999444"/>
<path fill-rule="evenodd" clip-rule="evenodd" d="M10.07 9.73999C10.07 9.73999 10.12 10.14 9.81498 10.64C9.51498 11.135 9.55999 10.96 9.55999 10.96C9.55999 10.96 9.69998 11.235 9.67498 11.235C9.64998 11.235 9.43998 10.985 9.43998 10.985L9.18998 11.26C9.18998 11.26 9.41998 10.835 9.39498 10.835C9.36998 10.835 9.32498 10.685 9.32498 10.685L9.50999 10.61C9.50999 10.61 9.78998 10.09 9.78998 10.115C9.78998 10.14 8.95499 10.685 8.95499 10.685L10.07 9.74499V9.73999ZM10.255 9.88999C10.23 9.88999 10.37 10.29 10.49 10.49C10.605 10.69 10.605 10.935 10.605 10.935L11 11.135L10.49 10.365L10.815 10.485L10.255 9.88999ZM10.255 10.935C10.255 10.935 10.535 11.235 10.555 11.335C10.575 11.435 10.58 11.655 10.58 11.655L10.465 11.405L10.3 11.63C10.3 11.63 10.42 11.28 10.395 11.255C10.37 11.23 10.21 11.38 10.21 11.38C10.21 11.38 10.28 11.18 10.28 11.16C10.28 11.14 10.28 11.01 10.255 10.935ZM8.85999 11.63C8.95499 11.555 9.13998 11.505 9.13998 11.505C9.13998 11.505 9.02498 11.705 8.99998 11.705C8.97498 11.705 8.90999 11.705 8.85999 11.63ZM12.065 10.54C12.065 10.54 12.67 10.91 12.67 10.935C12.67 10.96 12.275 10.76 12.275 10.76L12.065 10.54ZM10.975 9.76499C11.025 9.78999 11.86 10.485 11.835 10.485C11.81 10.485 11.465 10.285 11.465 10.315V10.485L11.275 10.09L11.23 10.24L10.98 9.76499H10.975ZM11.185 10.885L11.415 11.355L11.65 11.305C11.65 11.305 11.21 10.885 11.185 10.885ZM11.905 10.585L11.93 11.035C11.93 11.035 12.065 11.16 12.065 11.135C12.065 11.11 11.93 10.61 11.905 10.585Z" fill="#B7E1FF"/>
<path fill-rule="evenodd" clip-rule="evenodd" d="M5.13 4.475C5.13 4.475 6.18 3.895 7.375 3.465C8.25421 3.14195 9.16141 2.90093 10.085 2.745C10.435 2.745 11.045 3.63499 11.145 3.63499C11.245 3.63499 11.65 3.38499 12.16 3.38499C12.67 3.38499 12.965 3.78499 13.07 3.78499H13.98C14.08 3.78499 13.675 2.795 13.98 2.845C14.13 2.87 15.42 3.06999 16.62 3.45499C17.82 3.845 19.52 4.53499 19.52 4.53499C19.52 4.53499 16.745 4.9 16 4.795C15.9 4.845 16 5.44499 15.85 5.18C15.62 5.13 14.765 4.995 14.615 4.995C14.465 4.995 14.18 5.165 13.775 5.265C13.375 5.365 12.865 5.515 12.865 5.515L13.525 6.55L12.715 6.95C12.715 6.95 12.21 5.75999 12.005 5.75999C11.8 5.75999 11.705 6.6 11.45 6.55C11.2 6.49999 11.1 5.75999 10.895 5.55999C10.695 5.365 9.625 5.29 9.22 5.195C8.82 5.095 8.165 5.02 7.81 4.92C7.46 4.82 7.1 5.17 6.95 5.17C6.8 5.17 7.15 4.87 7 4.82C6.85 4.77 6.75 4.97 6.65 4.97C6.55 4.97 5.485 4.77 5.385 4.72C5.285 4.67 5.635 4.475 5.535 4.475H5.13Z" fill="#984000"/>
<path fill-rule="evenodd" clip-rule="evenodd" d="M12.673 3.97996C12.673 4.25556 12.4464 4.47916 12.1681 4.47916C11.8898 4.47916 11.6643 4.25556 11.6643 3.97996C11.6643 3.70436 11.8898 3.48206 12.1681 3.48206C12.4464 3.48206 12.673 3.70566 12.673 3.97996Z" fill="#808080" stroke="#772600" stroke-width="0.110614"/>
<path fill-rule="evenodd" clip-rule="evenodd" d="M10.1135 4.07499C10.2039 3.96939 10.316 3.80939 10.6089 3.80939C10.6764 3.78219 10.6764 3.62219 10.833 3.62219C10.991 3.62219 10.9451 3.78219 11.0585 3.83659C11.1705 3.88939 12.0926 3.78219 12.0926 3.78219C12.0926 3.78219 12.1817 3.86219 12.1817 3.96939C12.1817 4.07659 12.1142 4.15499 12.0926 4.15499C12.071 4.15499 11.1705 4.07499 11.103 4.10219C11.0355 4.12939 10.991 4.15499 10.833 4.15499C10.6764 4.15499 10.6305 3.96939 10.5185 3.96939C10.4064 3.96939 10.2944 3.94219 10.1135 4.07659V4.07499Z" fill="#984000" stroke="#772600" stroke-width="0.194734"/>
<path d="M12.8567 4.01943H13.2158C13.3454 4.02103 13.3899 4.06743 13.5087 4.07223H13.8233C13.938 4.06743 13.9988 4.03543 14.1149 4.01943C14.3106 4.01623 14.2445 3.99863 14.2053 3.85943C14.1702 3.75543 14.1648 3.70583 14.1149 3.64663C14.096 3.51863 14.0528 3.47383 14.0474 3.32663C14.0271 3.21463 13.9893 3.13943 14.0258 3.00663C14.0771 3.09783 14.0973 3.13463 14.2283 3.14103C14.3633 3.14103 14.4159 3.13623 14.4983 3.19383C14.5604 3.27223 14.6441 3.24663 14.7683 3.24663C14.8709 3.26903 14.8884 3.33143 14.9694 3.37943C15.0653 3.44343 15.1274 3.45943 15.261 3.45943C15.369 3.48343 15.4635 3.50103 15.531 3.53943C15.5891 3.62103 15.6795 3.64183 15.801 3.64663C15.8685 3.64663 15.9225 3.63863 15.9806 3.61943C16.0845 3.62583 16.1898 3.61943 16.3181 3.61943C16.4018 3.73463 16.4207 3.77783 16.5651 3.77943C16.665 3.86263 16.7487 3.87543 16.8351 3.91223H17.1726C17.2941 3.92343 17.3319 3.98263 17.4426 4.01943C17.5376 4.0703 17.635 4.11464 17.7342 4.15223C17.8309 4.17297 17.929 4.18208 18.0272 4.17943C18.1095 4.23063 18.2108 4.23383 18.2742 4.28503C18.3674 4.30903 18.4943 4.33783 18.5658 4.36503C18.6846 4.38423 18.7305 4.42903 18.8358 4.44503C18.9263 4.47703 18.8061 4.50263 18.7454 4.52503C18.6131 4.52023 18.6036 4.46103 18.4754 4.44503C18.4079 4.39863 18.3053 4.40503 18.2054 4.36503H18.1838C18.2729 4.42903 18.3593 4.46903 18.3188 4.57943C18.204 4.57943 18.1109 4.56183 18.0042 4.55223C17.8908 4.52663 17.8395 4.49943 17.7126 4.49943C17.8395 4.46263 17.8719 4.50263 17.9597 4.55223C17.9921 4.68023 17.9219 4.63223 17.8017 4.63223C17.6991 4.58903 17.637 4.53623 17.5101 4.52503H17.2401C17.3738 4.53143 17.4021 4.59063 17.4872 4.65943C17.4939 4.70103 17.4858 4.69783 17.4197 4.71223C17.3495 4.64023 17.259 4.61623 17.1497 4.57943C17.043 4.57463 16.931 4.56343 16.8351 4.52503C16.769 4.52023 16.7798 4.42743 16.9256 4.57943C17.0133 4.64023 17.0444 4.69143 17.0376 4.73943C16.9215 4.70423 16.8648 4.64983 16.7906 4.60503C16.6896 4.56352 16.5828 4.54559 16.476 4.55223C16.3599 4.51543 16.4882 4.49463 16.5651 4.63223C16.7325 4.77303 16.5435 4.71223 16.476 4.68503C16.3748 4.65143 16.2695 4.60183 16.1831 4.57943C16.1156 4.55543 16.0562 4.53303 15.9806 4.52503C16.098 4.53783 16.1372 4.58743 16.1831 4.68503C16.3019 4.78103 16.1777 4.73463 16.071 4.71223C16.0035 4.64183 15.9158 4.60503 15.8685 4.52503C15.7565 4.45943 15.7524 4.38103 15.824 4.55223C15.8415 4.60663 15.8375 4.72503 15.8456 4.73943C15.7632 4.63223 15.7808 4.60503 15.689 4.60503C15.6255 4.55383 15.5337 4.51383 15.4865 4.44503C15.4001 4.43543 15.3947 4.39863 15.3069 4.36503C15.3785 4.46583 15.4743 4.56503 15.531 4.65943C15.6336 4.72663 15.662 4.78743 15.7335 4.84503C15.7619 4.90423 15.8415 4.95223 15.7565 4.87223C15.6593 4.76023 15.5877 4.73303 15.4419 4.65943C15.3582 4.57943 15.3285 4.54743 15.2394 4.47223C15.1179 4.42583 15.1652 4.40023 15.2394 4.55223C15.3245 4.64503 15.3893 4.74743 15.4635 4.81943C15.5218 4.90187 15.59 4.97358 15.666 5.03223C15.6863 5.06743 15.747 5.07383 15.666 5.08503C15.5985 5.01143 15.4986 4.96503 15.419 4.89783C15.3069 4.86103 15.2543 4.79223 15.1719 4.71223C15.1179 4.61783 15.0315 4.54583 14.9694 4.47223C14.8398 4.41143 14.9951 4.52983 15.0369 4.60503C15.0653 4.70263 15.1017 4.78103 15.126 4.87223C15.1638 4.96023 15.0126 4.85143 14.9694 4.81943C14.8806 4.75124 14.7809 4.70548 14.6765 4.68503C14.587 4.66381 14.497 4.6462 14.4065 4.63223C14.3052 4.60023 14.4618 4.70903 14.5199 4.81943C14.6333 4.94583 14.4078 4.84183 14.3403 4.81943C14.2289 4.79699 14.1158 4.78788 14.0028 4.79223C13.8584 4.80183 13.9623 4.82423 14.0028 4.89783C14.0474 4.93943 14.0784 5.02583 14.0703 5.05783C13.9758 5.04183 13.8948 5.00983 13.7774 5.00503C13.6829 5.04183 13.5708 5.03223 13.4628 5.03223C13.4588 5.09943 13.4831 5.04183 13.5303 5.11223C13.6086 5.14903 13.6599 5.19383 13.6437 5.24503H12.9917C12.9201 5.26743 13.0065 5.25623 13.0592 5.35223C13.0295 5.43863 12.9917 5.40503 12.9012 5.40503C12.8405 5.37623 12.7176 5.36343 12.6542 5.32503C12.5907 5.32503 12.5961 5.30583 12.5421 5.29783C12.7311 5.45783 12.6366 5.41783 12.7446 5.53783C12.7622 5.54583 12.8054 5.56503 12.7662 5.56503M11.2826 6.41783C11.2691 6.41783 11.2394 6.33143 11.1935 6.25783C11.1611 6.16183 11.1206 6.21623 11.0801 6.07063C11.0855 5.92023 11.0895 5.89463 11.0801 5.75063C10.9883 5.67383 10.9491 5.65143 10.8776 5.51063C10.7642 5.39863 10.8951 5.20663 10.9167 5.06583C10.8168 5.04023 10.7682 5.24983 10.6157 5.32503C10.505 5.41303 10.6022 5.14263 10.5482 4.98583C10.5117 4.76343 10.4024 5.09783 10.3619 5.19223C10.2876 5.25143 10.2647 5.32823 10.1594 5.21783C10.1594 5.13623 10.2255 4.90583 10.1972 4.86103C10.0919 4.92343 9.95418 5.10903 9.84483 5.13783C9.73413 5.11063 9.86778 4.90103 9.86778 4.74583C9.82728 4.72983 9.66933 5.15863 9.60453 5.16183C9.53973 5.16503 9.56808 4.74583 9.53703 4.75543C9.48978 4.83543 9.39393 5.00183 9.32778 5.05943C9.19953 5.03863 9.34668 4.77943 9.36558 4.68343C9.38718 4.56823 9.24543 4.90423 9.16983 4.92503C9.11448 4.98263 9.00513 5.02103 8.96733 5.03223C9.01053 4.93303 9.22383 4.73303 9.21033 4.67543C9.08478 4.68023 8.89443 4.87543 8.78778 4.89943C8.71758 4.89943 8.62038 4.92663 8.60823 4.92503C8.61363 4.79703 8.87013 4.69143 8.91063 4.61303C8.78508 4.63703 8.54343 4.76823 8.47323 4.87223C8.38953 4.89303 8.28423 4.92023 8.20323 4.87223C8.21538 4.75223 8.40438 4.52023 8.44623 4.44343C8.33148 4.50263 8.27478 4.54903 8.15328 4.57623C8.13033 4.60343 8.06553 4.66103 8.08578 4.60343C8.12223 4.49143 8.17623 4.44343 8.22078 4.36343C8.11953 4.38583 8.08173 4.45463 7.97373 4.52343C7.90488 4.52663 7.70778 4.76183 7.64163 4.76503C7.52967 4.86963 7.39897 4.94243 7.25958 4.97783C7.15698 5.00023 7.10703 5.02583 7.05708 5.08503C7.10838 4.97783 7.18668 4.87703 7.25958 4.81943C7.30407 4.72231 7.37565 4.64653 7.46208 4.60503C7.48773 4.56823 7.55793 4.55863 7.48368 4.55223C7.42023 4.61943 7.31223 4.69623 7.25958 4.73943C7.19073 4.79063 7.11108 4.84183 7.07868 4.81943C7.11513 4.70423 7.17993 4.67543 7.23663 4.57943C7.35543 4.48983 7.23663 4.54743 7.14618 4.57943C7.08813 4.64023 6.98418 4.68663 6.89913 4.73943C6.80463 4.76823 6.74118 4.83543 6.62913 4.87223C6.62913 4.91063 6.66153 4.80343 6.67503 4.76503C6.76683 4.64663 6.79113 4.61303 6.89913 4.57943C6.92613 4.53303 6.95853 4.55223 6.87753 4.55223C6.81543 4.61623 6.73173 4.65143 6.65208 4.71223C6.57243 4.73303 6.46848 4.73943 6.36048 4.73943C6.22008 4.75863 6.23223 4.77143 6.36048 4.68503C6.43203 4.60503 6.49143 4.62583 6.49548 4.52503C6.41043 4.59863 6.30648 4.65303 6.20253 4.71223C6.11613 4.71543 6.09318 4.73943 6.00003 4.73943C6.04458 4.68503 6.07158 4.61623 6.13503 4.57943C6.22953 4.45623 6.07563 4.55543 6.04458 4.57943H5.70708C5.64768 4.66903 5.70438 4.57943 5.75298 4.52503C5.81103 4.48983 5.87178 4.44343 5.86503 4.41943C5.79753 4.48823 5.72058 4.52023 5.66253 4.57943C5.60043 4.60183 5.52753 4.61143 5.52753 4.63223C5.57748 4.54743 5.65713 4.49463 5.70843 4.41943C5.78403 4.40023 5.84883 4.37143 5.86503 4.33943H5.55048H5.77458C5.88933 4.33943 5.98653 4.32663 6.09048 4.31223C6.26868 4.27703 6.07428 4.25943 5.97708 4.25943C5.95953 4.21783 6.03378 4.19543 6.11208 4.17943C6.17958 4.14103 6.26463 4.10743 6.33753 4.07223C6.40188 4.049 6.46255 4.01332 6.51708 3.96663C6.44958 3.96983 6.44958 3.98903 6.38208 3.99223C6.48333 3.98423 6.55488 3.96663 6.67503 3.96663C6.77398 3.92797 6.87129 3.88365 6.96663 3.83383C7.00713 3.77623 7.02333 3.77943 6.92208 3.77943C7.01253 3.74583 7.14078 3.72823 7.21368 3.69943C7.30673 3.67633 7.3973 3.64091 7.48368 3.59383C7.54983 3.54103 7.58763 3.47863 7.66323 3.43383C7.75098 3.50423 7.75233 3.51383 7.91028 3.51383C8.03718 3.51223 8.11548 3.47543 8.18028 3.40663C8.27748 3.37463 8.29503 3.32023 8.40573 3.30103C8.50975 3.3204 8.615 3.32897 8.72028 3.32663C8.82828 3.29303 8.93223 3.23063 9.01188 3.16663C9.08073 3.12663 9.16308 3.06903 9.23733 3.03383C9.31833 3.08343 9.38313 3.12343 9.48438 3.14103C9.58833 3.12183 9.64368 3.06103 9.73143 3.03383C9.78555 2.96556 9.85637 2.91912 9.93393 2.90103C10.0649 2.82423 10.0554 2.92503 10.1135 3.00663C10.181 3.08983 10.2674 3.04983 10.3605 3.08663C10.4132 3.18263 10.451 3.24663 10.5185 3.29943C10.5711 3.37623 10.6332 3.39543 10.7439 3.40663C10.7844 3.47063 10.752 3.51543 10.833 3.53943C10.8654 3.58103 10.9208 3.59703 10.968 3.61943" stroke="#772600" stroke-width="0.128598"/>
<path d="M12.5974 5.73784V5.75064C12.5974 5.71384 12.5974 5.73464 12.6204 5.80504C12.6285 5.86264 12.6096 5.85624 12.5866 5.89784C12.5826 5.95704 12.5758 6.00024 12.5758 6.07064C12.5677 6.12824 12.5407 6.18264 12.5191 6.23064C12.4975 6.28024 12.4044 6.30904 12.4071 6.37784C12.3531 6.39544 12.3517 6.35384 12.3504 6.28344C12.318 6.24024 12.3072 6.18104 12.2829 6.12344C12.2694 6.06904 12.237 6.02744 12.2154 5.96344C12.183 5.90424 12.1546 5.88664 12.1263 5.81784C12.1141 5.78584 12.1168 5.74424 12.0925 5.72504C12.0561 5.66904 12.0318 5.66104 11.9683 5.65784C11.9197 5.67064 11.9008 5.69624 11.8563 5.71064C11.8212 5.72504 11.7537 5.72024 11.7105 5.73784C11.6997 5.75864 11.7321 5.76984 11.7442 5.81784C11.7145 5.84664 11.7037 5.89624 11.6875 5.93784C11.6605 5.97784 11.643 5.99704 11.6308 6.05784C11.6497 6.09464 11.6335 6.14424 11.6092 6.17784C11.6011 6.23864 11.5755 6.27224 11.5633 6.32344C11.5282 6.35384 11.5147 6.38104 11.485 6.43064C11.4594 6.47384 11.4364 6.47064 11.373 6.47064C11.323 6.45464 11.3163 6.42264 11.2717 6.40344C11.2677 6.38744 11.2636 6.38264 11.2488 6.37784" stroke="#782600" stroke-width="0.113901"/>
<path fill-rule="evenodd" clip-rule="evenodd" d="M11.38 6.275C11.38 6.275 11.36 6.525 11.2 6.69C11.04 6.855 10.71 7.045 10.71 7.045C10.71 7.045 11.155 6.835 11.2 6.88C11.25 6.93 10.915 7.295 10.915 7.295C10.915 7.295 11.35 6.91 11.405 6.91C11.46 6.91 11.585 7.285 11.635 7.275C11.68 7.265 11.535 6.8 11.555 6.725C11.575 6.655 11.555 6.26 11.555 6.26L11.385 6.275H11.38ZM12.405 6.245C12.405 6.245 12.385 6.51 12.225 6.685C12.065 6.86 11.735 7.065 11.735 7.065C11.735 7.065 12.18 6.84 12.225 6.89C12.275 6.94 11.94 7.33 11.94 7.33C11.94 7.33 12.375 6.92 12.43 6.92C12.485 6.92 12.61 7.32 12.66 7.31C12.705 7.3 12.56 6.8 12.58 6.725C12.6 6.645 12.58 6.225 12.58 6.225L12.405 6.245ZM10.97 3.845C10.97 3.89 10.92 3.93 10.865 3.93C10.81 3.93 10.755 3.89 10.755 3.84C10.755 3.79 10.805 3.75 10.865 3.75C10.925 3.75 10.97 3.79 10.97 3.84V3.845Z" fill="#812E00"/>
</g>
</g>
<defs>
<clipPath id="clip0_2_118">
<rect width="24" height="24" rx="12" fill="white"/>
</clipPath>
<clipPath id="clip1_2_118">
<rect width="32" height="24" fill="white" transform="translate(-4)"/>
</clipPath>
</defs>
</svg>
