<svg width="263" height="38" viewBox="0 0 263 38" fill="none" xmlns="http://www.w3.org/2000/svg">
<path d="M0.84 29V1.8H20.48C20.48 2.14667 20.4667 2.58666 20.44 3.12C20.4133 3.62667 20.3733 4.16 20.32 4.72C20.2933 5.25333 20.24 5.77333 20.16 6.28C20.08 6.78667 19.9733 7.21333 19.84 7.56H7.52V12.44H18.68C18.68 12.7333 18.6667 13.1333 18.64 13.64C18.64 14.1467 18.6133 14.68 18.56 15.24C18.5067 15.7733 18.44 16.3067 18.36 16.84C18.28 17.3733 18.1733 17.8267 18.04 18.2H7.52V23.24H20.48C20.48 23.5867 20.4667 24.0267 20.44 24.56C20.4133 25.0667 20.3733 25.6 20.32 26.16C20.2933 26.6933 20.24 27.2133 20.16 27.72C20.08 28.2267 19.9733 28.6533 19.84 29H0.84ZM29.9463 18.88L23.0263 9H30.2663L33.7063 13.8L37.3063 9H43.9863L36.9863 18.4L44.5863 29C44.2663 29.0533 43.8796 29.08 43.4263 29.08C42.9996 29.1067 42.5596 29.1333 42.1062 29.16C41.6796 29.1867 41.2796 29.2 40.9063 29.2C40.5329 29.2 40.2396 29.2 40.0263 29.2C39.3596 29.2 38.7996 29.1467 38.3463 29.04C37.9196 28.9333 37.5329 28.7867 37.1863 28.6C36.8663 28.3867 36.5729 28.12 36.3063 27.8C36.0396 27.48 35.7463 27.1067 35.4263 26.68L33.1863 23.52L29.1063 29H22.4263L29.9463 18.88ZM46.9541 9H53.1941C53.3274 10.0933 53.4341 11.0933 53.5141 12C53.5941 12.88 53.6607 13.7467 53.7141 14.6C54.1407 13.4533 54.6074 12.5067 55.1141 11.76C55.6207 10.9867 56.1541 10.3733 56.7141 9.92C57.2741 9.44 57.8741 9.10667 58.5141 8.92C59.1541 8.70666 59.8207 8.6 60.5141 8.6C61.5274 8.6 62.4074 8.81333 63.1541 9.24C63.9274 9.66667 64.5807 10.2667 65.1141 11.04C65.6474 11.8133 66.0474 12.7467 66.3141 13.84C66.5807 14.9333 66.7141 16.1467 66.7141 17.48C66.7141 19.6933 66.4074 21.56 65.7941 23.08C65.2074 24.6 64.3807 25.8267 63.3141 26.76C62.2474 27.6933 60.9807 28.3733 59.5141 28.8C58.0474 29.2 56.4474 29.4 54.7141 29.4H53.7541V37.8H47.3541V16.2C47.3541 14.7867 47.3007 13.5333 47.1941 12.44C47.1141 11.3467 47.0341 10.2 46.9541 9ZM55.5141 24.52C57.3541 24.52 58.6341 24.12 59.3541 23.32C60.1007 22.4933 60.4741 21.32 60.4741 19.8C60.4741 18.9467 60.4207 18.1467 60.3141 17.4C60.2074 16.6267 60.0341 15.9467 59.7941 15.36C59.5807 14.7733 59.3141 14.32 58.9941 14C58.6741 13.6533 58.3141 13.48 57.9141 13.48C57.2741 13.48 56.7007 13.7333 56.1941 14.24C55.7141 14.7467 55.2874 15.4667 54.9141 16.4C54.5407 17.3333 54.2074 18.48 53.9141 19.84C53.6207 21.1733 53.3541 22.6667 53.1141 24.32C53.4874 24.3733 53.8741 24.4267 54.2741 24.48C54.7007 24.5067 55.1141 24.52 55.5141 24.52ZM70.6353 0.199999H77.0353V29H70.6353V0.199999ZM80.9263 19C80.9263 15.5067 81.8863 12.9067 83.8063 11.2C85.7263 9.46667 88.3263 8.6 91.6063 8.6C94.9129 8.6 97.5129 9.46667 99.4062 11.2C101.3 12.9067 102.246 15.5067 102.246 19C102.246 22.4667 101.3 25.0667 99.4062 26.8C97.5129 28.5333 94.9129 29.4 91.6063 29.4C88.3263 29.4 85.7263 28.5333 83.8063 26.8C81.8863 25.0667 80.9263 22.4667 80.9263 19ZM87.4863 19C87.4863 20.7067 87.8196 22.0533 88.4863 23.04C89.1796 24.0267 90.2196 24.52 91.6063 24.52C93.0196 24.52 94.0596 24.0267 94.7263 23.04C95.3929 22.0533 95.7263 20.7067 95.7263 19C95.7263 17.2933 95.3929 15.9467 94.7263 14.96C94.0596 13.9733 93.0196 13.48 91.6063 13.48C90.2196 13.48 89.1796 13.9733 88.4863 14.96C87.8196 15.9467 87.4863 17.2933 87.4863 19ZM112.022 9C112.209 10.36 112.342 11.5733 112.422 12.64C112.529 13.68 112.582 14.76 112.582 15.88C113.596 13.4533 114.796 11.64 116.182 10.44C117.596 9.21333 119.036 8.6 120.502 8.6C120.662 9.50667 120.782 10.5333 120.862 11.68C120.942 12.8 120.982 13.8933 120.982 14.96C119.356 14.96 118.009 15.12 116.942 15.44C115.902 15.76 115.062 16.3333 114.422 17.16C113.809 17.96 113.356 19.0667 113.062 20.48C112.796 21.8933 112.636 23.7067 112.582 25.92V29H106.182V16.2C106.182 14.7867 106.129 13.5333 106.022 12.44C105.942 11.3467 105.862 10.2 105.782 9H112.022ZM122.45 19C122.45 17.24 122.716 15.7067 123.25 14.4C123.783 13.0933 124.516 12.0133 125.45 11.16C126.41 10.28 127.543 9.64 128.85 9.24C130.156 8.81333 131.583 8.6 133.13 8.6C136.17 8.6 138.503 9.45333 140.13 11.16C141.783 12.8667 142.61 15.3867 142.61 18.72C142.263 19.5467 141.81 20.28 141.25 20.92C138.663 20.92 136.396 20.9067 134.45 20.88C132.503 20.8267 130.716 20.68 129.09 20.44C129.303 21.6933 129.796 22.6933 130.57 23.44C131.343 24.16 132.53 24.52 134.13 24.52C135.703 24.52 137.09 24.44 138.29 24.28C139.516 24.12 140.53 23.9333 141.33 23.72C141.33 24.0667 141.303 24.4667 141.25 24.92C141.223 25.3733 141.17 25.8267 141.09 26.28C141.036 26.7067 140.956 27.1333 140.85 27.56C140.77 27.96 140.676 28.3067 140.57 28.6C139.876 28.8133 138.97 29 137.85 29.16C136.756 29.32 135.516 29.4 134.13 29.4C130.37 29.4 127.476 28.5333 125.45 26.8C123.45 25.0667 122.45 22.4667 122.45 19ZM129.05 18.2C130.33 17.88 131.53 17.6667 132.65 17.56C133.77 17.4267 134.983 17.3467 136.29 17.32C136.156 16.04 135.823 15.08 135.29 14.44C134.756 13.8 133.943 13.48 132.85 13.48C131.703 13.48 130.796 13.8933 130.13 14.72C129.49 15.52 129.13 16.68 129.05 18.2ZM154.061 15.4C154.061 12.9467 154.381 10.84 155.021 9.08C155.661 7.32 156.541 5.88 157.661 4.76C158.807 3.61333 160.181 2.77333 161.781 2.24C163.381 1.68 165.141 1.4 167.061 1.4C169.141 1.4 170.967 1.72 172.541 2.36C174.141 2.97333 175.474 3.84 176.541 4.96C177.607 6.08 178.407 7.4 178.941 8.92C179.501 10.44 179.781 12.1067 179.781 13.92C179.781 17.3867 178.954 20.2267 177.301 22.44C175.674 24.6267 173.474 26.1867 170.701 27.12L176.261 29.84C177.487 30.4533 178.301 31.3467 178.701 32.52C179.101 33.6933 178.861 35.28 177.981 37.28L163.381 29.96C161.354 28.9733 159.727 27.9467 158.501 26.88C157.301 25.8133 156.367 24.68 155.701 23.48C155.034 22.28 154.594 21.0133 154.381 19.68C154.167 18.3467 154.061 16.92 154.061 15.4ZM166.181 24.92L167.901 25.8C168.701 25.08 169.407 24.3733 170.021 23.68C170.661 22.9867 171.194 22.2533 171.621 21.48C172.047 20.68 172.367 19.8 172.581 18.84C172.821 17.8533 172.941 16.7067 172.941 15.4C172.941 12.4933 172.421 10.3467 171.381 8.96C170.341 7.57333 168.861 6.88 166.941 6.88C165.021 6.88 163.527 7.57333 162.461 8.96C161.421 10.3467 160.901 12.4933 160.901 15.4C160.901 16.7333 161.007 17.88 161.221 18.84C161.434 19.8 161.754 20.64 162.181 21.36C162.634 22.08 163.181 22.72 163.821 23.28C164.487 23.84 165.274 24.3867 166.181 24.92ZM183.192 20.52C183.192 18.3067 183.485 16.44 184.072 14.92C184.685 13.4 185.525 12.1733 186.592 11.24C187.659 10.3067 188.925 9.64 190.392 9.24C191.859 8.81333 193.459 8.6 195.192 8.6C196.419 8.6 197.632 8.64 198.832 8.72C200.059 8.8 201.299 8.89333 202.552 9V29H196.152V23.48C195.725 24.6 195.259 25.5467 194.752 26.32C194.272 27.0667 193.752 27.68 193.192 28.16C192.632 28.6133 192.032 28.9333 191.392 29.12C190.752 29.3067 190.085 29.4 189.392 29.4C188.405 29.4 187.525 29.1867 186.752 28.76C185.979 28.3333 185.325 27.7333 184.792 26.96C184.259 26.1867 183.859 25.2533 183.592 24.16C183.325 23.0667 183.192 21.8533 183.192 20.52ZM191.992 24.52C192.632 24.52 193.192 24.2667 193.672 23.76C194.179 23.2533 194.619 22.5333 194.992 21.6C195.365 20.64 195.699 19.4933 195.992 18.16C196.285 16.8267 196.552 15.3333 196.792 13.68C196.419 13.6267 196.019 13.5867 195.592 13.56C195.192 13.5067 194.792 13.48 194.392 13.48C192.552 13.48 191.259 13.8933 190.512 14.72C189.792 15.52 189.432 16.68 189.432 18.2C189.432 19.0533 189.485 19.8667 189.592 20.64C189.699 21.3867 189.859 22.0533 190.072 22.64C190.312 23.2267 190.592 23.6933 190.912 24.04C191.232 24.36 191.592 24.52 191.992 24.52ZM205.353 13.88C205.353 13.5333 205.353 13.1467 205.353 12.72C205.38 12.2667 205.406 11.8267 205.433 11.4C205.46 10.9467 205.5 10.52 205.553 10.12C205.606 9.69333 205.66 9.32 205.713 9H208.553V6.16C208.926 5.76 209.366 5.37333 209.873 5C210.406 4.62667 210.953 4.28 211.513 3.96C212.1 3.64 212.686 3.36 213.273 3.12C213.886 2.88 214.446 2.70667 214.953 2.6V9.48C216.233 9.29333 217.406 9.17333 218.473 9.12C219.54 9.04 220.673 9 221.873 9C221.873 9.48 221.846 9.92 221.793 10.32C221.766 10.72 221.713 11.1067 221.633 11.48C221.553 11.8533 221.46 12.24 221.353 12.64C221.246 13.0133 221.126 13.4267 220.993 13.88C220.06 13.88 219.126 13.8667 218.193 13.84C217.286 13.8133 216.206 13.7467 214.953 13.64V21.12C214.953 22.4533 215.286 23.36 215.953 23.84C216.646 24.2933 217.446 24.52 218.353 24.52C219.473 24.52 220.646 24.4 221.873 24.16C221.873 24.48 221.846 24.8533 221.793 25.28C221.766 25.68 221.713 26.0933 221.633 26.52C221.553 26.92 221.473 27.32 221.393 27.72C221.313 28.0933 221.233 28.4133 221.153 28.68C220.593 28.8933 219.873 29.0667 218.993 29.2C218.14 29.3333 217.313 29.4 216.513 29.4C213.926 29.4 211.953 28.8267 210.593 27.68C209.233 26.5067 208.553 24.6267 208.553 22.04V13.88H205.353ZM223.27 20.52C223.27 18.3067 223.563 16.44 224.15 14.92C224.763 13.4 225.603 12.1733 226.67 11.24C227.737 10.3067 229.003 9.64 230.47 9.24C231.937 8.81333 233.537 8.6 235.27 8.6C236.497 8.6 237.71 8.64 238.91 8.72C240.137 8.8 241.377 8.89333 242.63 9V29H236.23V23.48C235.803 24.6 235.337 25.5467 234.83 26.32C234.35 27.0667 233.83 27.68 233.27 28.16C232.71 28.6133 232.11 28.9333 231.47 29.12C230.83 29.3067 230.163 29.4 229.47 29.4C228.483 29.4 227.603 29.1867 226.83 28.76C226.057 28.3333 225.403 27.7333 224.87 26.96C224.337 26.1867 223.937 25.2533 223.67 24.16C223.403 23.0667 223.27 21.8533 223.27 20.52ZM232.07 24.52C232.71 24.52 233.27 24.2667 233.75 23.76C234.257 23.2533 234.697 22.5333 235.07 21.6C235.443 20.64 235.777 19.4933 236.07 18.16C236.363 16.8267 236.63 15.3333 236.87 13.68C236.497 13.6267 236.097 13.5867 235.67 13.56C235.27 13.5067 234.87 13.48 234.47 13.48C232.63 13.48 231.337 13.8933 230.59 14.72C229.87 15.52 229.51 16.68 229.51 18.2C229.51 19.0533 229.563 19.8667 229.67 20.64C229.777 21.3867 229.937 22.0533 230.15 22.64C230.39 23.2267 230.67 23.6933 230.99 24.04C231.31 24.36 231.67 24.52 232.07 24.52ZM253.311 9C253.498 10.36 253.631 11.5733 253.711 12.64C253.818 13.68 253.871 14.76 253.871 15.88C254.885 13.4533 256.085 11.64 257.471 10.44C258.885 9.21333 260.325 8.6 261.791 8.6C261.951 9.50667 262.071 10.5333 262.151 11.68C262.231 12.8 262.271 13.8933 262.271 14.96C260.645 14.96 259.298 15.12 258.231 15.44C257.191 15.76 256.351 16.3333 255.711 17.16C255.098 17.96 254.645 19.0667 254.351 20.48C254.085 21.8933 253.925 23.7067 253.871 25.92V29H247.471V16.2C247.471 14.7867 247.418 13.5333 247.311 12.44C247.231 11.3467 247.151 10.2 247.071 9H253.311Z" fill="#131415"/>
</svg>
