<svg width="20" height="19" viewBox="0 0 20 19" fill="none" xmlns="http://www.w3.org/2000/svg">
<g clip-path="url(#clip0_2_2461)">
<path fill-rule="evenodd" clip-rule="evenodd" d="M0.314148 9.23377C0.314148 13.312 2.98567 16.7747 6.66386 18.0058C7.12847 18.0828 7.28334 17.8135 7.28334 17.5442C7.28334 17.3133 7.28334 16.7362 7.28334 15.9667C4.68925 16.5438 4.14721 14.7356 4.14721 14.7356C3.72131 13.6583 3.10183 13.389 3.10183 13.389C2.25004 12.8119 3.17926 12.8119 3.17926 12.8119C4.10849 12.8888 4.61182 13.7737 4.61182 13.7737C5.42489 15.1972 6.78001 14.774 7.32206 14.5432C7.3995 13.9276 7.6318 13.5429 7.90283 13.312C5.85079 13.0812 3.68259 12.2732 3.68259 8.7336C3.68259 7.73328 4.03105 6.88685 4.65054 6.27127C4.5731 6.04042 4.22464 5.11704 4.72797 3.80893C4.72797 3.80893 5.50233 3.57808 7.28334 4.77078C8.01898 4.57841 8.83206 4.46299 9.60641 4.46299C10.3808 4.46299 11.1938 4.57841 11.9295 4.77078C13.7105 3.57808 14.4848 3.80893 14.4848 3.80893C14.9882 5.07857 14.6784 6.00195 14.5623 6.27127C15.143 6.92532 15.5302 7.73328 15.5302 8.7336C15.5302 12.2732 13.362 13.0427 11.2713 13.2735C11.6197 13.5429 11.8908 14.12 11.8908 14.9664C11.8908 16.1976 11.8908 17.1979 11.8908 17.5057C11.8908 17.7365 12.0456 18.0443 12.549 17.9674C16.2271 16.7747 18.8987 13.312 18.8987 9.23377C18.8987 4.11672 14.7559 0 9.60641 0C4.45695 0 0.314148 4.11672 0.314148 9.23377Z" fill="white"/>
</g>
<defs>
<clipPath id="clip0_2_2461">
<rect width="18.9143" height="18.0192" fill="white" transform="translate(0.314148)"/>
</clipPath>
</defs>
</svg>
