<svg width="21" height="20" viewBox="0 0 21 20" fill="none" xmlns="http://www.w3.org/2000/svg">
<g clip-path="url(#clip0_2_2451)">
<path fill-rule="evenodd" clip-rule="evenodd" d="M14.1796 1.79548C14.7956 1.80297 15.4058 1.91538 15.9837 2.12783C16.4027 2.28841 16.7832 2.5344 17.1008 2.84997C17.4184 3.16554 17.6659 3.54369 17.8275 3.96008C18.0413 4.53427 18.1544 5.14063 18.162 5.75281C18.2082 6.77098 18.2184 7.07621 18.2184 9.65359C18.2184 12.231 18.2087 12.5362 18.162 13.5544C18.1544 14.1666 18.0413 14.7729 17.8275 15.3471C17.6659 15.7635 17.4184 16.1416 17.1008 16.4572C16.7832 16.7728 16.4027 17.0188 15.9837 17.1794C15.4058 17.3918 14.7956 17.5042 14.1796 17.5117C13.1554 17.5577 12.8483 17.5678 10.2541 17.5678C7.65991 17.5678 7.35275 17.5581 6.32859 17.5117C5.71253 17.5042 5.10233 17.3918 4.5245 17.1794C4.10548 17.0188 3.72493 16.7728 3.40736 16.4572C3.08979 16.1416 2.84224 15.7635 2.68064 15.3471C2.46685 14.7729 2.35373 14.1666 2.34619 13.5544C2.29993 12.5362 2.28975 12.231 2.28975 9.65359C2.28975 7.07621 2.29947 6.77098 2.34619 5.75281C2.35373 5.14063 2.46685 4.53427 2.68064 3.96008C2.84224 3.54369 3.08979 3.16554 3.40736 2.84997C3.72493 2.5344 4.10548 2.28841 4.5245 2.12783C5.10233 1.91538 5.71253 1.80297 6.32859 1.79548C7.35321 1.74952 7.66037 1.7394 10.2541 1.7394C12.8478 1.7394 13.155 1.74906 14.1796 1.79548ZM6.24902 0.0579188C5.44276 0.0738547 4.64505 0.225553 3.88984 0.50656C3.24198 0.749114 2.65519 1.12922 2.17041 1.62035C1.67572 2.10226 1.29288 2.68568 1.04864 3.32987C0.765851 4.08033 0.613192 4.87302 0.597156 5.6742C0.550897 6.70295 0.539795 7.033 0.539795 9.65313C0.539795 12.2733 0.550897 12.6033 0.598081 13.633C0.614118 14.4342 0.766777 15.2269 1.04956 15.9773C1.29354 16.6214 1.67605 17.2048 2.17041 17.6868C2.65546 18.1781 3.24258 18.5582 3.89076 18.8006C4.64598 19.0816 5.44368 19.2333 6.24995 19.2493C7.28614 19.2952 7.61689 19.3072 10.255 19.3072C12.8931 19.3072 13.2239 19.2962 14.2601 19.2493C15.0663 19.2333 15.864 19.0816 16.6193 18.8006C17.2644 18.5521 17.8502 18.1726 18.3393 17.6863C18.8283 17.2 19.2099 16.6176 19.4595 15.9764C19.7423 15.2259 19.895 14.4333 19.911 13.6321C19.9573 12.6033 19.9684 12.2733 19.9684 9.65313C19.9684 7.033 19.9573 6.70295 19.9101 5.67329C19.8941 4.8721 19.7414 4.07941 19.4586 3.32895C19.2146 2.68485 18.8321 2.10143 18.3378 1.61943C17.8527 1.12819 17.2656 0.748076 16.6174 0.50564C15.8622 0.224633 15.0645 0.0729354 14.2582 0.0569995C13.223 0.0110322 12.8908 0 10.2541 0C7.61735 0 7.28521 0.0110321 6.24902 0.0579188Z" fill="white"/>
<path fill-rule="evenodd" clip-rule="evenodd" d="M7.48048 5.53171C6.66012 6.07641 6.02073 6.8506 5.64316 7.7564C5.26559 8.66219 5.1668 9.6589 5.35928 10.6205C5.55177 11.5821 6.02688 12.4653 6.72453 13.1586C7.42219 13.8519 8.31106 14.324 9.27874 14.5153C10.2464 14.7065 11.2494 14.6084 12.161 14.2332C13.0725 13.858 13.8516 13.2226 14.3998 12.4074C14.9479 11.5922 15.2405 10.6338 15.2405 9.6534C15.2405 8.3387 14.7149 7.07783 13.7794 6.14819C12.8438 5.21856 11.575 4.69629 10.2519 4.69629C9.26531 4.69629 8.30083 4.98702 7.48048 5.53171ZM8.45296 12.3288C7.92046 11.9753 7.50542 11.4727 7.26034 10.8848C7.01525 10.2968 6.95113 9.64983 7.07607 9.02566C7.20101 8.40148 7.50941 7.82814 7.96227 7.37814C8.41513 6.92813 8.9921 6.62168 9.62023 6.49752C10.2484 6.37336 10.8994 6.43708 11.4911 6.68063C12.0828 6.92417 12.5885 7.33659 12.9443 7.86574C13.3001 8.39489 13.49 9.017 13.49 9.6534C13.49 10.5068 13.1489 11.3252 12.5416 11.9287C11.9344 12.5321 11.1107 12.8711 10.2519 12.8711C9.61151 12.8711 8.98546 12.6824 8.45296 12.3288Z" fill="white"/>
<path fill-rule="evenodd" clip-rule="evenodd" d="M15.4389 5.65855C14.7951 5.65855 14.2732 5.13993 14.2732 4.50017C14.2732 3.86042 14.7951 3.3418 15.4389 3.3418C16.0827 3.3418 16.6046 3.86042 16.6046 4.50017C16.6046 5.13993 16.0827 5.65855 15.4389 5.65855Z" fill="white"/>
</g>
<defs>
<clipPath id="clip0_2_2451">
<rect width="19.7733" height="19.3072" fill="white" transform="translate(0.539795)"/>
</clipPath>
</defs>
</svg>
