<svg width="32" height="24" viewBox="0 0 32 24" fill="none" xmlns="http://www.w3.org/2000/svg">
<g clip-path="url(#clip0_3_4492)">
<path d="M12.8 0H32V24H12.8V0Z" fill="#FF0000"/>
<path d="M0 0H12.8V24H0V0Z" fill="#006600"/>
<path fill-rule="evenodd" clip-rule="evenodd" d="M16.975 15.3104C15.36 15.2604 7.97502 10.6504 7.92502 9.91035L8.33002 9.23535C9.06502 10.3004 16.615 14.7854 17.36 14.6254L16.975 15.3104Z" fill="#FFFF00" stroke="black" stroke-width="0.075" stroke-linecap="round" stroke-linejoin="round"/>
<path fill-rule="evenodd" clip-rule="evenodd" d="M8.24501 9.14014C8.10001 9.53014 10.175 10.8101 12.665 12.3301C15.16 13.8451 17.31 14.7801 17.465 14.6501L17.54 14.5101C17.51 14.5601 17.44 14.5751 17.325 14.5401C16.65 14.3451 14.895 13.5401 12.72 12.2201C10.54 10.9001 8.65001 9.68514 8.35501 9.17014C8.33202 9.12185 8.32169 9.06851 8.32501 9.01514H8.31501L8.25501 9.12514L8.24501 9.14014V9.14014ZM17.01 15.3301C16.985 15.3801 16.93 15.3801 16.835 15.3701C16.235 15.3051 14.405 14.4151 12.24 13.1201C9.72001 11.6101 7.64001 10.2401 7.87001 9.88014L7.93001 9.77014L7.94001 9.77514C7.74001 10.3851 12.045 12.8451 12.3 13.0051C14.79 14.5451 16.89 15.4501 17.075 15.2151L17.01 15.3301V15.3301Z" fill="#FFFF00" stroke="black" stroke-width="0.075" stroke-linecap="round" stroke-linejoin="round"/>
<path fill-rule="evenodd" clip-rule="evenodd" d="M12.81 10.3602C14.42 10.3452 16.41 10.1402 17.56 9.6802L17.31 9.2802C16.635 9.6552 14.635 9.9052 12.795 9.9402C10.625 9.9202 9.09003 9.7152 8.32003 9.2002L8.09003 9.6302C9.50003 10.2302 10.95 10.3552 12.81 10.3602" fill="#FFFF00"/>
<path d="M12.81 10.3602C14.42 10.3452 16.41 10.1402 17.56 9.6802L17.31 9.2802C16.635 9.6552 14.635 9.9052 12.795 9.9402C10.625 9.9202 9.09003 9.7152 8.32003 9.2002L8.09003 9.6302C9.50003 10.2302 10.95 10.3552 12.81 10.3602" stroke="black" stroke-width="0.075" stroke-linecap="round" stroke-linejoin="round"/>
<path fill-rule="evenodd" clip-rule="evenodd" d="M17.625 9.69027C17.585 9.75527 16.835 10.0103 15.735 10.2003C14.7653 10.3472 13.7858 10.4191 12.805 10.4153C11.8654 10.4188 10.9265 10.3587 9.99501 10.2353C8.84001 10.0553 8.24501 9.80527 8.02001 9.71527L8.07501 9.60527C8.71001 9.85527 9.31001 10.0053 10.01 10.1153C10.9347 10.2401 11.8669 10.3019 12.8 10.3003C13.7757 10.3013 14.7501 10.2294 15.715 10.0853C16.84 9.90027 17.455 9.66527 17.545 9.56027L17.625 9.69527V9.69027ZM17.405 9.28527C17.285 9.38527 16.675 9.60027 15.605 9.77027C14.681 9.90395 13.7486 9.97079 12.815 9.97027C11.715 9.97027 10.81 9.89027 10.125 9.79027C9.03501 9.65027 8.45501 9.39027 8.24501 9.32027L8.31001 9.21027C8.47501 9.29527 9.03001 9.52027 10.135 9.67527C11.0233 9.79426 11.9188 9.85106 12.815 9.84527C13.742 9.84556 14.6677 9.77872 15.585 9.64527C16.66 9.49527 17.24 9.22527 17.33 9.15527L17.405 9.28527V9.28527ZM7.51501 12.3003C8.50501 12.8353 10.71 13.1003 12.795 13.1203C14.695 13.1253 17.165 12.8303 18.09 12.3403L18.065 11.8053C17.775 12.2553 15.125 12.6903 12.775 12.6753C10.425 12.6553 8.24001 12.2953 7.51001 11.8253V12.3003" fill="#FFFF00"/>
<path d="M7.51501 12.3003C8.50501 12.8353 10.71 13.1003 12.795 13.1203C14.695 13.1253 17.165 12.8303 18.09 12.3403L18.065 11.8053C17.775 12.2553 15.125 12.6903 12.775 12.6753C10.425 12.6553 8.24001 12.2953 7.51001 11.8253V12.3003M17.625 9.69027C17.585 9.75527 16.835 10.0103 15.735 10.2003C14.7653 10.3472 13.7858 10.4191 12.805 10.4153C11.8654 10.4188 10.9265 10.3587 9.99501 10.2353C8.84001 10.0553 8.24501 9.80527 8.02001 9.71527L8.07501 9.60527C8.71001 9.85527 9.31001 10.0053 10.01 10.1153C10.9347 10.2401 11.8669 10.3019 12.8 10.3003C13.7757 10.3013 14.7501 10.2294 15.715 10.0853C16.84 9.90027 17.455 9.66527 17.545 9.56027L17.625 9.69527V9.69027ZM17.405 9.28527C17.285 9.38527 16.675 9.60027 15.605 9.77027C14.681 9.90395 13.7486 9.97079 12.815 9.97027C11.715 9.97027 10.81 9.89027 10.125 9.79027C9.03501 9.65027 8.45501 9.39027 8.24501 9.32027L8.31001 9.21027C8.47501 9.29527 9.03001 9.52027 10.135 9.67527C11.0233 9.79426 11.9188 9.85106 12.815 9.84527C13.742 9.84556 14.6677 9.77872 15.585 9.64527C16.66 9.49527 17.24 9.22527 17.33 9.15527L17.405 9.28527V9.28527Z" stroke="black" stroke-width="0.075" stroke-linecap="round" stroke-linejoin="round"/>
<path fill-rule="evenodd" clip-rule="evenodd" d="M18.14 12.2254V12.3504C18 12.5204 17.13 12.7704 16.04 12.9504C14.9571 13.106 13.864 13.1796 12.77 13.1704C11.7327 13.1792 10.6962 13.1073 9.67001 12.9554C8.90429 12.8669 8.15606 12.6647 7.45001 12.3554V12.2104C7.93501 12.5304 9.24501 12.7704 9.68501 12.8404C10.475 12.9604 11.49 13.0504 12.77 13.0504C14.115 13.0504 15.19 12.9554 16.02 12.8304C16.805 12.7154 17.92 12.4204 18.14 12.2254V12.2254ZM18.14 11.7754V11.9004C18 12.0654 17.13 12.3154 16.04 12.4954C14.9572 12.6527 13.8641 12.7279 12.77 12.7204C11.7328 12.7265 10.6965 12.6546 9.67001 12.5054C8.90429 12.4169 8.15606 12.2147 7.45001 11.9054V11.7554C7.93501 12.0804 9.25001 12.3154 9.68501 12.3854C10.7064 12.535 11.7377 12.6069 12.77 12.6004C14.115 12.6004 15.195 12.5004 16.02 12.3754C16.805 12.2654 17.92 11.9704 18.14 11.7754V11.7754ZM12.79 15.2154C10.51 15.2054 8.55501 14.5954 8.14001 14.4954L8.44001 14.9654C9.84247 15.4621 11.3224 15.7042 12.81 15.6804C14.545 15.6304 16.06 15.4954 17.125 14.9754L17.435 14.4854C16.71 14.8304 14.235 15.2154 12.785 15.2154" fill="#FFFF00"/>
<path d="M12.79 15.2154C10.51 15.2054 8.55501 14.5954 8.14001 14.4954L8.44001 14.9654C9.84247 15.4621 11.3224 15.7042 12.81 15.6804C14.545 15.6304 16.06 15.4954 17.125 14.9754L17.435 14.4854C16.71 14.8304 14.235 15.2154 12.785 15.2154M18.14 12.2254V12.3504C18 12.5204 17.13 12.7704 16.04 12.9504C14.9571 13.106 13.864 13.1796 12.77 13.1704C11.7327 13.1792 10.6962 13.1073 9.67001 12.9554C8.90429 12.8669 8.15606 12.6647 7.45001 12.3554V12.2104C7.93501 12.5304 9.24501 12.7704 9.68501 12.8404C10.475 12.9604 11.49 13.0504 12.77 13.0504C14.115 13.0504 15.19 12.9554 16.02 12.8304C16.805 12.7154 17.92 12.4204 18.14 12.2254V12.2254ZM18.14 11.7754V11.9004C18 12.0654 17.13 12.3154 16.04 12.4954C14.9572 12.6527 13.8641 12.7279 12.77 12.7204C11.7328 12.7265 10.6965 12.6546 9.67001 12.5054C8.90429 12.4169 8.15606 12.2147 7.45001 11.9054V11.7554C7.93501 12.0804 9.25001 12.3154 9.68501 12.3854C10.7064 12.535 11.7377 12.6069 12.77 12.6004C14.115 12.6004 15.195 12.5004 16.02 12.3754C16.805 12.2654 17.92 11.9704 18.14 11.7754V11.7754Z" stroke="black" stroke-width="0.075" stroke-linecap="round" stroke-linejoin="round"/>
<path fill-rule="evenodd" clip-rule="evenodd" d="M17.245 14.8649C17.1995 14.9324 17.1528 14.9991 17.105 15.0649C16.605 15.2449 15.805 15.4349 15.475 15.4849C14.5895 15.6499 13.6908 15.7336 12.79 15.7349C10.77 15.7049 9.11502 15.3099 8.34002 14.9699L8.27502 14.8649L8.28502 14.8449L8.39002 14.8899C9.81303 15.3608 11.3011 15.6055 12.8 15.6149C13.74 15.6149 14.675 15.5099 15.43 15.3749C16.59 15.1399 17.06 14.9649 17.205 14.8849L17.24 14.8649H17.245ZM17.51 14.4249C17.4771 14.4835 17.4438 14.5418 17.41 14.5999C17.14 14.6999 16.41 14.9099 15.345 15.0599C14.645 15.1549 14.21 15.2499 12.815 15.2749C11.2203 15.2589 9.63544 15.0234 8.10502 14.5749L8.05002 14.4499C9.60494 14.8797 11.2072 15.1148 12.82 15.1499C14.095 15.1249 14.64 15.0299 15.335 14.9349C16.575 14.7449 17.2 14.5349 17.385 14.4799C17.3851 14.4766 17.3851 14.4733 17.385 14.4699L17.515 14.4199L17.51 14.4249Z" fill="#FFFF00" stroke="black" stroke-width="0.075" stroke-linecap="round" stroke-linejoin="round"/>
<path fill-rule="evenodd" clip-rule="evenodd" d="M17.54 11.88C17.545 13.38 16.775 14.73 16.16 15.32C15.2517 16.2059 14.0387 16.7104 12.77 16.73C11.255 16.755 9.83002 15.77 9.44502 15.335C8.58373 14.4216 8.09353 13.2202 8.07002 11.965C8.16002 10.325 8.80502 9.185 9.73502 8.4C10.6384 7.65629 11.7749 7.25445 12.945 7.265C13.6281 7.29812 14.2967 7.47356 14.908 7.78008C15.5193 8.0866 16.0599 8.51744 16.495 9.045C17.12 9.805 17.395 10.63 17.54 11.88V11.88ZM12.78 6.75C14.1788 6.74996 15.5208 7.30286 16.5136 8.28817C17.5064 9.27347 18.0695 10.6113 18.08 12.01C18.08 12.704 17.9433 13.3913 17.6777 14.0325C17.4121 14.6737 17.0228 15.2563 16.5321 15.7471C16.0413 16.2378 15.4587 16.6271 14.8175 16.8927C14.1763 17.1583 13.4891 17.295 12.795 17.295C12.101 17.295 11.4137 17.1583 10.7725 16.8927C10.1313 16.6271 9.54872 16.2378 9.05796 15.7471C8.5672 15.2563 8.17791 14.6737 7.91231 14.0325C7.64672 13.3913 7.51002 12.704 7.51002 12.01C7.50502 9.11 9.87502 6.75 12.78 6.75" fill="#FFFF00"/>
<path d="M12.78 6.75C14.1788 6.74996 15.5208 7.30286 16.5136 8.28817C17.5064 9.27347 18.0695 10.6113 18.08 12.01C18.08 12.704 17.9433 13.3913 17.6777 14.0325C17.4121 14.6737 17.0228 15.2563 16.5321 15.7471C16.0413 16.2378 15.4587 16.6271 14.8175 16.8927C14.1763 17.1583 13.4891 17.295 12.795 17.295C12.101 17.295 11.4137 17.1583 10.7725 16.8927C10.1313 16.6271 9.54872 16.2378 9.05796 15.7471C8.5672 15.2563 8.17791 14.6737 7.91231 14.0325C7.64672 13.3913 7.51002 12.704 7.51002 12.01C7.50502 9.11 9.87502 6.75 12.78 6.75M17.54 11.88C17.545 13.38 16.775 14.73 16.16 15.32C15.2517 16.2059 14.0387 16.7104 12.77 16.73C11.255 16.755 9.83002 15.77 9.44502 15.335C8.58373 14.4216 8.09353 13.2202 8.07002 11.965C8.16002 10.325 8.80502 9.185 9.73502 8.4C10.6384 7.65629 11.7749 7.25445 12.945 7.265C13.6281 7.29812 14.2967 7.47356 14.908 7.78008C15.5193 8.0866 16.0599 8.51744 16.495 9.045C17.12 9.805 17.395 10.63 17.54 11.88V11.88Z" stroke="black" stroke-width="0.075" stroke-linecap="round" stroke-linejoin="round"/>
<path fill-rule="evenodd" clip-rule="evenodd" d="M12.795 6.7251C15.705 6.7251 18.075 9.0951 18.075 12.0051C18.075 14.9151 15.705 17.2851 12.8 17.2851C9.89502 17.2851 7.52002 14.9151 7.52002 12.0051C7.52002 9.0951 9.89002 6.7251 12.8 6.7251H12.795ZM7.63002 12.0001C7.63002 14.8401 9.96502 17.1651 12.795 17.1651C15.625 17.1651 17.96 14.8401 17.96 12.0001C17.96 9.1601 15.625 6.8351 12.795 6.8351C9.96502 6.8351 7.63002 9.1601 7.63002 12.0001Z" fill="#FFFF00" stroke="black" stroke-width="0.075" stroke-linecap="round" stroke-linejoin="round"/>
<path fill-rule="evenodd" clip-rule="evenodd" d="M12.8 7.16504C14.0811 7.169 15.3086 7.67967 16.2145 8.58555C17.1204 9.49143 17.6311 10.7189 17.635 12C17.6311 13.2816 17.1206 14.5096 16.2148 15.4163C15.3091 16.323 14.0816 16.8348 12.8 16.84C10.15 16.84 7.96503 14.66 7.96503 12C7.97029 10.7193 8.48138 9.49259 9.38698 8.58699C10.2926 7.68139 11.5193 7.1703 12.8 7.16504V7.16504ZM8.08003 12C8.08003 14.6 10.21 16.72 12.8 16.72C15.39 16.72 17.52 14.595 17.52 12C17.52 9.40004 15.39 7.28004 12.8 7.28004C11.5498 7.2853 10.3523 7.78428 9.4683 8.66831C8.58427 9.55234 8.08529 10.7498 8.08003 12V12Z" fill="#FFFF00" stroke="black" stroke-width="0.075" stroke-linecap="round" stroke-linejoin="round"/>
<path fill-rule="evenodd" clip-rule="evenodd" d="M13.015 6.7002H12.56V17.3152H13.01L13.015 6.7002Z" fill="#FFFF00" stroke="black" stroke-width="0.075" stroke-linecap="round" stroke-linejoin="round"/>
<path fill-rule="evenodd" clip-rule="evenodd" d="M12.965 6.64014H13.08V17.3751H12.97V6.64014H12.965ZM12.515 6.64014H12.635V17.3751H12.52V6.64014H12.515Z" fill="#FFFF00" stroke="black" stroke-width="0.075" stroke-linecap="round" stroke-linejoin="round"/>
<path fill-rule="evenodd" clip-rule="evenodd" d="M18.08 12.2099V11.8199L17.76 11.5199L15.945 11.0399L13.335 10.7749L10.185 10.9349L7.94503 11.4649L7.49503 11.7999V12.1949L8.64003 11.6799L11.36 11.2549H13.975L15.895 11.4649L17.225 11.7849L18.08 12.2099Z" fill="#FFFF00" stroke="black" stroke-width="0.075" stroke-linecap="round" stroke-linejoin="round"/>
<path fill-rule="evenodd" clip-rule="evenodd" d="M12.8 11.1901C14.045 11.1901 15.25 11.3051 16.215 11.4901C17.205 11.6901 17.9 11.9401 18.14 12.2151V12.3551C17.85 12.0051 16.915 11.7551 16.19 11.6051C15.24 11.4251 14.04 11.3051 12.795 11.3051C11.49 11.3051 10.27 11.4351 9.33001 11.6151C8.58001 11.7651 7.57501 12.0651 7.45001 12.3551V12.2101C7.51501 12.0101 8.26501 11.7101 9.31501 11.4951C10.26 11.3101 11.48 11.1901 12.795 11.1901H12.8ZM12.8 10.7351C13.945 10.7328 15.0879 10.8332 16.215 11.0351C17.205 11.2351 17.9 11.4851 18.14 11.7651V11.9001C17.85 11.5551 16.915 11.3001 16.19 11.1551C15.24 10.9701 14.04 10.8551 12.795 10.8551C11.6346 10.8514 10.4763 10.9552 9.33501 11.1651C8.61001 11.3001 7.56501 11.6101 7.45001 11.9001V11.7601C7.52001 11.5601 8.28001 11.2451 9.31501 11.0451C10.265 10.8601 11.48 10.7351 12.8 10.7351V10.7351ZM12.77 8.42506C14.735 8.41506 16.45 8.70006 17.235 9.10006L17.52 9.60006C16.84 9.23006 14.99 8.85006 12.775 8.90006C10.97 8.91506 9.04001 9.10006 8.07501 9.62006L8.41501 9.05006C9.21001 8.63506 11.08 8.42506 12.77 8.42506" fill="#FFFF00"/>
<path d="M12.77 8.42506C14.735 8.41506 16.45 8.70006 17.235 9.10006L17.52 9.60006C16.84 9.23006 14.99 8.85006 12.775 8.90006C10.97 8.91506 9.04001 9.10006 8.07501 9.62006L8.41501 9.05006C9.21001 8.63506 11.08 8.42506 12.77 8.42506M12.8 11.1901C14.045 11.1901 15.25 11.3051 16.215 11.4901C17.205 11.6901 17.9 11.9401 18.14 12.2151V12.3551C17.85 12.0051 16.915 11.7551 16.19 11.6051C15.24 11.4251 14.04 11.3051 12.795 11.3051C11.49 11.3051 10.27 11.4351 9.33001 11.6151C8.58001 11.7651 7.57501 12.0651 7.45001 12.3551V12.2101C7.51501 12.0101 8.26501 11.7101 9.31501 11.4951C10.26 11.3101 11.48 11.1901 12.795 11.1901H12.8ZM12.8 10.7351C13.945 10.7328 15.0879 10.8332 16.215 11.0351C17.205 11.2351 17.9 11.4851 18.14 11.7651V11.9001C17.85 11.5551 16.915 11.3001 16.19 11.1551C15.24 10.9701 14.04 10.8551 12.795 10.8551C11.6346 10.8514 10.4763 10.9552 9.33501 11.1651C8.61001 11.3001 7.56501 11.6101 7.45001 11.9001V11.7601C7.52001 11.5601 8.28001 11.2451 9.31501 11.0451C10.265 10.8601 11.48 10.7351 12.8 10.7351V10.7351Z" stroke="black" stroke-width="0.075" stroke-linecap="round" stroke-linejoin="round"/>
<path fill-rule="evenodd" clip-rule="evenodd" d="M12.8 8.83497C13.826 8.81765 14.8515 8.88959 15.865 9.04997C16.665 9.19997 17.43 9.41997 17.54 9.53997L17.625 9.68997C17.36 9.51997 16.695 9.32497 15.845 9.16497C14.995 9.00497 13.91 8.94997 12.795 8.95497C11.53 8.94997 10.545 9.01497 9.70501 9.16497C9.12596 9.24612 8.56376 9.42001 8.04001 9.67997L8.12501 9.52497C8.42501 9.37497 8.89001 9.18997 9.68001 9.04497C10.555 8.88497 11.55 8.83997 12.8 8.83497V8.83497ZM12.8 8.38497C13.87 8.37497 14.93 8.43497 15.755 8.58497C16.2895 8.66432 16.8068 8.83337 17.285 9.08497L17.41 9.28497C17.2 9.04997 16.41 8.82497 15.705 8.70497C14.885 8.55997 13.87 8.50497 12.8 8.49497C11.804 8.48609 10.8089 8.55967 9.82501 8.71497C9.31055 8.78665 8.81089 8.94026 8.34501 9.16997L8.45501 9.00497C8.74501 8.85497 9.21501 8.71497 9.80501 8.59997C10.7954 8.44263 11.7973 8.36904 12.8 8.37997V8.38497ZM15.42 14.2C14.5534 14.0499 13.6744 13.9829 12.795 14C9.52001 14.04 8.46501 14.675 8.33501 14.865L8.08501 14.465C8.92501 13.865 10.705 13.525 12.815 13.555C13.91 13.575 14.855 13.65 15.645 13.805L15.42 14.205" fill="#FFFF00"/>
<path d="M15.42 14.2C14.5534 14.0499 13.6744 13.9829 12.795 14C9.52001 14.04 8.46501 14.675 8.33501 14.865L8.08501 14.465C8.92501 13.865 10.705 13.525 12.815 13.555C13.91 13.575 14.855 13.65 15.645 13.805L15.42 14.205M12.8 8.83497C13.826 8.81765 14.8515 8.88959 15.865 9.04997C16.665 9.19997 17.43 9.41997 17.54 9.53997L17.625 9.68997C17.36 9.51997 16.695 9.32497 15.845 9.16497C14.995 9.00497 13.91 8.94997 12.795 8.95497C11.53 8.94997 10.545 9.01497 9.70501 9.16497C9.12596 9.24612 8.56376 9.42001 8.04001 9.67997L8.12501 9.52497C8.42501 9.37497 8.89001 9.18997 9.68001 9.04497C10.555 8.88497 11.55 8.83997 12.8 8.83497V8.83497ZM12.8 8.38497C13.87 8.37497 14.93 8.43497 15.755 8.58497C16.2895 8.66432 16.8068 8.83337 17.285 9.08497L17.41 9.28497C17.2 9.04997 16.41 8.82497 15.705 8.70497C14.885 8.55997 13.87 8.50497 12.8 8.49497C11.804 8.48609 10.8089 8.55967 9.82501 8.71497C9.31055 8.78665 8.81089 8.94026 8.34501 9.16997L8.45501 9.00497C8.74501 8.85497 9.21501 8.71497 9.80501 8.59997C10.7954 8.44263 11.7973 8.36904 12.8 8.37997V8.38497Z" stroke="black" stroke-width="0.075" stroke-linecap="round" stroke-linejoin="round"/>
<path fill-rule="evenodd" clip-rule="evenodd" d="M12.78 13.9454C13.69 13.9604 14.58 13.9954 15.445 14.1554L15.385 14.2654C14.585 14.1154 13.725 14.0654 12.785 14.0654C11.57 14.0554 10.35 14.1704 9.28501 14.4754C8.95001 14.5704 8.39501 14.7854 8.33501 14.9654L8.27501 14.8654C8.29501 14.7554 8.62501 14.5354 9.25501 14.3654C10.475 14.0154 11.615 13.9504 12.78 13.9454ZM12.82 13.4854C13.7805 13.4844 14.7392 13.568 15.685 13.7354L15.62 13.8504C14.6964 13.6809 13.759 13.5989 12.82 13.6054C11.61 13.6054 10.325 13.6954 9.15501 14.0354C8.78001 14.1454 8.12501 14.3854 8.10501 14.5704L8.04501 14.4604C8.05501 14.2904 8.62001 14.0654 9.13001 13.9204C10.305 13.5754 11.595 13.4904 12.82 13.4854V13.4854Z" fill="#FFFF00" stroke="black" stroke-width="0.075" stroke-linecap="round" stroke-linejoin="round"/>
<path fill-rule="evenodd" clip-rule="evenodd" d="M17.47 14.5251L17.08 15.1401L15.945 14.1351L13.015 12.1601L9.70502 10.3451L7.99002 9.76014L8.35502 9.08014L8.48002 9.01514L9.54502 9.28014L13.065 11.0951L15.095 12.3751L16.8 13.6001L17.495 14.4001L17.47 14.5251Z" fill="#FFFF00" stroke="black" stroke-width="0.075" stroke-linecap="round" stroke-linejoin="round"/>
<path fill-rule="evenodd" clip-rule="evenodd" d="M7.93002 9.77517C8.23002 9.57517 10.44 10.5552 12.76 11.9552C15.065 13.3552 17.275 14.9352 17.075 15.2302L17.01 15.3352L16.98 15.3602C16.985 15.3552 17.02 15.3102 16.98 15.2052C16.88 14.8802 15.31 13.6302 12.715 12.0602C10.18 10.5552 8.07002 9.64517 7.86502 9.90517L7.93002 9.77517V9.77517ZM17.55 14.5202C17.74 14.1402 15.69 12.5952 13.145 11.0902C10.545 9.61517 8.66502 8.74517 8.32002 9.00517L8.25002 9.15017C8.25002 9.15517 8.25002 9.14017 8.27002 9.12517C8.33002 9.07517 8.43502 9.07517 8.48002 9.07517C9.07002 9.08517 10.755 9.86017 13.12 11.2152C14.16 11.8152 17.5 13.9652 17.485 14.5652C17.485 14.6152 17.49 14.6252 17.47 14.6552L17.555 14.5252L17.55 14.5202Z" fill="#FFFF00" stroke="black" stroke-width="0.075" stroke-linecap="round" stroke-linejoin="round"/>
<path d="M9.63202 12.5882C9.63281 13.0022 9.71571 13.412 9.87592 13.7937C10.0361 14.1755 10.2705 14.5217 10.5654 14.8122C10.8567 15.108 11.2036 15.3432 11.5862 15.5043C11.9688 15.6654 12.3796 15.7492 12.7947 15.7509C13.6349 15.7508 14.4406 15.417 15.0347 14.8229C15.3286 14.5307 15.5618 14.1834 15.7211 13.8008C15.8803 13.4182 15.9624 13.008 15.9627 12.5936V8.36955L9.63202 8.35889V12.5882V12.5882Z" fill="white" stroke="black" stroke-width="0.0933336"/>
<path d="M9.74936 12.5936C9.75049 12.9907 9.83024 13.3837 9.98403 13.7498C10.1378 14.116 10.3626 14.4481 10.6454 14.7269C11.2132 15.2977 11.9842 15.6199 12.7894 15.6229C13.5931 15.6234 14.3641 15.305 14.9334 14.7376C15.2152 14.4583 15.439 14.126 15.5918 13.7599C15.7447 13.3938 15.8236 13.001 15.824 12.6042V8.49756H9.76003V12.5936M14.6134 9.72956V12.3376L14.608 12.6096C14.6098 12.8478 14.5635 13.084 14.4719 13.304C14.3802 13.5239 14.2452 13.7231 14.0747 13.8896C13.7355 14.2299 13.2752 14.4217 12.7947 14.4229C12.2934 14.4229 11.8507 14.2096 11.52 13.8789C11.1797 13.5397 10.9879 13.0794 10.9867 12.5989V9.7189L14.6134 9.72956Z" fill="#FF0000"/>
<path d="M9.74936 12.5936C9.75049 12.9907 9.83024 13.3837 9.98403 13.7498C10.1378 14.116 10.3626 14.4481 10.6454 14.7269C11.2132 15.2977 11.9842 15.6199 12.7894 15.6229C13.5931 15.6234 14.3641 15.305 14.9334 14.7376C15.2152 14.4583 15.439 14.126 15.5918 13.7599C15.7447 13.3938 15.8236 13.001 15.824 12.6042V8.49756H9.76003V12.5936M14.6134 9.72956V12.3376L14.608 12.6096C14.6098 12.8478 14.5635 13.084 14.4719 13.304C14.3802 13.5239 14.2452 13.7231 14.0747 13.8896C13.7355 14.2299 13.2752 14.4217 12.7947 14.4229C12.2934 14.4229 11.8507 14.2096 11.52 13.8789C11.1797 13.5397 10.9879 13.0794 10.9867 12.5989V9.7189L14.6134 9.72956Z" stroke="black" stroke-width="0.0666669"/>
<path d="M10.144 9.5697C10.1493 9.27636 10.3573 9.20703 10.3573 9.20703C10.3627 9.20703 10.5867 9.2817 10.5867 9.57503H10.144" fill="#FFFF00"/>
<path d="M9.96268 9.21236L9.92535 9.54837H10.1494C10.1494 9.27103 10.3627 9.22836 10.3627 9.22836C10.368 9.22836 10.576 9.28703 10.5814 9.54837H10.8054L10.7627 9.20703H9.96268V9.21236ZM9.90935 9.5537H10.816C10.832 9.5537 10.848 9.5697 10.848 9.59103C10.848 9.6177 10.832 9.6337 10.816 9.6337H9.90935C9.89335 9.6337 9.87735 9.6177 9.87735 9.59103C9.87735 9.5697 9.89335 9.5537 9.91468 9.5537H9.90935Z" fill="#FFFF00" stroke="black" stroke-width="0.0666669"/>
<path d="M10.24 9.54831C10.24 9.37231 10.3627 9.32431 10.3627 9.32431C10.3627 9.32431 10.4854 9.37764 10.4854 9.54831H10.24ZM9.93068 9.0683H10.8C10.816 9.0683 10.832 9.08964 10.832 9.11097C10.832 9.12697 10.816 9.14297 10.8 9.14297H9.93068C9.91468 9.14297 9.89868 9.12697 9.89868 9.10564C9.89868 9.08964 9.91468 9.07364 9.93068 9.07364V9.0683ZM9.95202 9.14831H10.7734C10.7894 9.14831 10.8054 9.1643 10.8054 9.18564C10.8054 9.20697 10.7894 9.22297 10.7734 9.22297H9.94668C9.92535 9.22297 9.91468 9.20697 9.91468 9.18564C9.91468 9.1643 9.92535 9.14831 9.94668 9.14831H9.95202ZM10.2187 8.58297H10.2827V8.62564H10.3307V8.58297H10.4V8.63097H10.448V8.57764H10.512V8.6843C10.512 8.70564 10.5014 8.7163 10.4854 8.7163H10.2507C10.2347 8.7163 10.2187 8.70564 10.2187 8.68964V8.58297ZM10.464 8.72697L10.48 9.0683H10.2507L10.2667 8.72164H10.464" fill="#FFFF00"/>
<path d="M10.464 8.72697L10.48 9.0683H10.2507L10.2667 8.72164H10.464M10.24 9.54831C10.24 9.37231 10.3627 9.32431 10.3627 9.32431C10.3627 9.32431 10.4854 9.37764 10.4854 9.54831H10.24ZM9.93068 9.0683H10.8C10.816 9.0683 10.832 9.08964 10.832 9.11097C10.832 9.12697 10.816 9.14297 10.8 9.14297H9.93068C9.91468 9.14297 9.89868 9.12697 9.89868 9.10564C9.89868 9.08964 9.91468 9.07364 9.93068 9.07364V9.0683ZM9.95202 9.14831H10.7734C10.7894 9.14831 10.8054 9.1643 10.8054 9.18564C10.8054 9.20697 10.7894 9.22297 10.7734 9.22297H9.94668C9.92535 9.22297 9.91468 9.20697 9.91468 9.18564C9.91468 9.1643 9.92535 9.14831 9.94668 9.14831H9.95202ZM10.2187 8.58297H10.2827V8.62564H10.3307V8.58297H10.4V8.63097H10.448V8.57764H10.512V8.6843C10.512 8.70564 10.5014 8.7163 10.4854 8.7163H10.2507C10.2347 8.7163 10.2187 8.70564 10.2187 8.68964V8.58297Z" stroke="black" stroke-width="0.0666669"/>
<path d="M10.1867 8.88721V9.06854H9.97336V8.88721H10.1867Z" fill="#FFFF00" stroke="black" stroke-width="0.0666669"/>
<path d="M10.1867 8.88721V9.06854H9.97336V8.88721H10.1867Z" fill="#FFFF00" stroke="black" stroke-width="0.0666669"/>
<path d="M9.936 8.74854H10V8.80187H10.048V8.74854H10.112V8.80187H10.16V8.74854H10.224V8.8552C10.224 8.87654 10.2133 8.8872 10.1973 8.8872H9.968C9.95952 8.8872 9.95138 8.88383 9.94538 8.87783C9.93938 8.87183 9.936 8.86369 9.936 8.8552V8.74854V8.74854Z" fill="#FFFF00" stroke="black" stroke-width="0.0666669"/>
<path d="M9.936 8.74854H10V8.80187H10.048V8.74854H10.112V8.80187H10.16V8.74854H10.224V8.8552C10.224 8.87654 10.2133 8.8872 10.1973 8.8872H9.968C9.95952 8.8872 9.95138 8.88383 9.94538 8.87783C9.93938 8.87183 9.936 8.86369 9.936 8.8552V8.74854V8.74854Z" fill="#FFFF00" stroke="black" stroke-width="0.0666669"/>
<path d="M10.3413 8.83357C10.3413 8.80157 10.3893 8.80157 10.3893 8.83357V8.9189H10.3413V8.83357Z" fill="black"/>
<path d="M10.0587 8.95076C10.0587 8.91876 10.1014 8.91876 10.1014 8.95076V9.01476H10.0587V8.95076Z" fill="black"/>
<path d="M10.0587 8.95076C10.0587 8.91876 10.1014 8.91876 10.1014 8.95076V9.01476H10.0587V8.95076Z" fill="black"/>
<path d="M10.144 9.5697C10.1493 9.27636 10.3573 9.20703 10.3573 9.20703C10.3627 9.20703 10.5867 9.2817 10.5867 9.57503H10.144" fill="#FFFF00"/>
<path d="M9.96268 9.21236L9.92535 9.54837H10.1494C10.1494 9.27103 10.3627 9.22836 10.3627 9.22836C10.368 9.22836 10.576 9.28703 10.5814 9.54837H10.8054L10.7627 9.20703H9.96268V9.21236ZM9.90935 9.5537H10.816C10.832 9.5537 10.848 9.5697 10.848 9.59103C10.848 9.6177 10.832 9.6337 10.816 9.6337H9.90935C9.89335 9.6337 9.87735 9.6177 9.87735 9.59103C9.87735 9.5697 9.89335 9.5537 9.91468 9.5537H9.90935Z" fill="#FFFF00" stroke="black" stroke-width="0.0666669"/>
<path d="M10.24 9.54831C10.24 9.37231 10.3627 9.32431 10.3627 9.32431C10.3627 9.32431 10.4854 9.37764 10.4854 9.54831H10.24ZM9.93068 9.0683H10.8C10.816 9.0683 10.832 9.08964 10.832 9.11097C10.832 9.12697 10.816 9.14297 10.8 9.14297H9.93068C9.91468 9.14297 9.89868 9.12697 9.89868 9.10564C9.89868 9.08964 9.91468 9.07364 9.93068 9.07364V9.0683ZM9.95202 9.14831H10.7734C10.7894 9.14831 10.8054 9.1643 10.8054 9.18564C10.8054 9.20697 10.7894 9.22297 10.7734 9.22297H9.94668C9.92535 9.22297 9.91468 9.20697 9.91468 9.18564C9.91468 9.1643 9.92535 9.14831 9.94668 9.14831H9.95202ZM10.2187 8.58297H10.2827V8.62564H10.3307V8.58297H10.4V8.63097H10.448V8.57764H10.512V8.6843C10.512 8.70564 10.5014 8.7163 10.4854 8.7163H10.2507C10.2347 8.7163 10.2187 8.70564 10.2187 8.68964V8.58297ZM10.464 8.72697L10.48 9.0683H10.2507L10.2667 8.72164H10.464" fill="#FFFF00"/>
<path d="M10.464 8.72697L10.48 9.0683H10.2507L10.2667 8.72164H10.464M10.24 9.54831C10.24 9.37231 10.3627 9.32431 10.3627 9.32431C10.3627 9.32431 10.4854 9.37764 10.4854 9.54831H10.24ZM9.93068 9.0683H10.8C10.816 9.0683 10.832 9.08964 10.832 9.11097C10.832 9.12697 10.816 9.14297 10.8 9.14297H9.93068C9.91468 9.14297 9.89868 9.12697 9.89868 9.10564C9.89868 9.08964 9.91468 9.07364 9.93068 9.07364V9.0683ZM9.95202 9.14831H10.7734C10.7894 9.14831 10.8054 9.1643 10.8054 9.18564C10.8054 9.20697 10.7894 9.22297 10.7734 9.22297H9.94668C9.92535 9.22297 9.91468 9.20697 9.91468 9.18564C9.91468 9.1643 9.92535 9.14831 9.94668 9.14831H9.95202ZM10.2187 8.58297H10.2827V8.62564H10.3307V8.58297H10.4V8.63097H10.448V8.57764H10.512V8.6843C10.512 8.70564 10.5014 8.7163 10.4854 8.7163H10.2507C10.2347 8.7163 10.2187 8.70564 10.2187 8.68964V8.58297Z" stroke="black" stroke-width="0.0666669"/>
<path d="M10.1867 8.88721V9.06854H9.97336V8.88721H10.1867Z" fill="#FFFF00" stroke="black" stroke-width="0.0666669"/>
<path d="M10.1867 8.88721V9.06854H9.97336V8.88721H10.1867Z" fill="#FFFF00" stroke="black" stroke-width="0.0666669"/>
<path d="M9.936 8.74854H10V8.80187H10.048V8.74854H10.112V8.80187H10.16V8.74854H10.224V8.8552C10.224 8.87654 10.2133 8.8872 10.1973 8.8872H9.968C9.95952 8.8872 9.95138 8.88383 9.94538 8.87783C9.93938 8.87183 9.936 8.86369 9.936 8.8552V8.74854V8.74854Z" fill="#FFFF00" stroke="black" stroke-width="0.0666669"/>
<path d="M9.936 8.74854H10V8.80187H10.048V8.74854H10.112V8.80187H10.16V8.74854H10.224V8.8552C10.224 8.87654 10.2133 8.8872 10.1973 8.8872H9.968C9.95952 8.8872 9.95138 8.88383 9.94538 8.87783C9.93938 8.87183 9.936 8.86369 9.936 8.8552V8.74854V8.74854Z" fill="#FFFF00" stroke="black" stroke-width="0.0666669"/>
<path d="M10.3413 8.83357C10.3413 8.80157 10.3893 8.80157 10.3893 8.83357V8.9189H10.3413V8.83357Z" fill="black"/>
<path d="M10.0587 8.95076C10.0587 8.91876 10.1014 8.91876 10.1014 8.95076V9.01476H10.0587V8.95076Z" fill="black"/>
<path d="M10.0587 8.95076C10.0587 8.91876 10.1014 8.91876 10.1014 8.95076V9.01476H10.0587V8.95076Z" fill="black"/>
<path d="M11.1065 14.613C10.9021 14.4025 10.9995 14.206 10.9995 14.206C11.0033 14.2023 11.2141 14.0959 11.4222 14.3026L11.1103 14.6167" fill="#FFFF00"/>
<path d="M10.7252 14.4896L10.9373 14.7528L11.0951 14.5939C10.8984 14.3985 11.0184 14.217 11.0184 14.217C11.0222 14.2133 11.2104 14.107 11.3996 14.2874L11.5574 14.1284L11.2851 13.9182L10.7214 14.4858L10.7252 14.4896ZM10.9298 14.768L11.5687 14.1246C11.58 14.1133 11.6026 14.1132 11.6177 14.1282C11.6367 14.147 11.6367 14.1696 11.6255 14.181L10.9866 14.8243C10.9753 14.8357 10.9527 14.8358 10.9338 14.817C10.9186 14.8019 10.9185 14.7793 10.9336 14.7642L10.9298 14.768Z" fill="#FFFF00" stroke="black" stroke-width="0.0666669"/>
<path d="M11.159 14.5297C11.0342 14.4056 11.0865 14.2848 11.0865 14.2848C11.0865 14.2848 11.2108 14.2353 11.3319 14.3556L11.159 14.5297ZM10.6005 14.4109L11.213 13.7941C11.2243 13.7827 11.2507 13.7864 11.2659 13.8014C11.2772 13.8127 11.2773 13.8353 11.266 13.8467L10.6535 14.4635C10.6422 14.4749 10.6196 14.475 10.6044 14.4599C10.5931 14.4487 10.593 14.426 10.6043 14.4147L10.6005 14.4109ZM10.6723 14.4522L11.251 13.8694C11.2623 13.858 11.2849 13.8579 11.3001 13.873C11.3152 13.888 11.3153 13.9106 11.304 13.922L10.7215 14.5086C10.7065 14.5237 10.6876 14.52 10.6725 14.505C10.6573 14.4899 10.6535 14.4711 10.6685 14.4559L10.6723 14.4522ZM10.459 13.8646L10.5041 13.8192L10.5344 13.8492L10.5682 13.8152L10.538 13.7851L10.5868 13.7359L10.6209 13.7697L10.6547 13.7357L10.6168 13.6981L10.6619 13.6527L10.7376 13.7278C10.7528 13.7429 10.7528 13.758 10.7415 13.7693L10.5762 13.9358C10.5649 13.9472 10.5461 13.951 10.5347 13.9397L10.459 13.8646ZM10.7341 13.792L10.9876 14.0211L10.826 14.1839L10.5913 13.9282L10.7303 13.7882" fill="#FFFF00"/>
<path d="M10.7341 13.792L10.9876 14.0211L10.826 14.1839L10.5913 13.9282L10.7303 13.7882M11.159 14.5297C11.0342 14.4056 11.0865 14.2848 11.0865 14.2848C11.0865 14.2848 11.2108 14.2353 11.3319 14.3556L11.159 14.5297ZM10.6005 14.4109L11.213 13.7941C11.2243 13.7827 11.2507 13.7864 11.2659 13.8014C11.2772 13.8127 11.2773 13.8353 11.266 13.8467L10.6535 14.4635C10.6422 14.4749 10.6196 14.475 10.6044 14.4599C10.5931 14.4487 10.593 14.426 10.6043 14.4147L10.6005 14.4109ZM10.6723 14.4522L11.251 13.8694C11.2623 13.858 11.2849 13.8579 11.3001 13.873C11.3152 13.888 11.3153 13.9106 11.304 13.922L10.7215 14.5086C10.7065 14.5237 10.6876 14.52 10.6725 14.505C10.6573 14.4899 10.6535 14.4711 10.6685 14.4559L10.6723 14.4522ZM10.459 13.8646L10.5041 13.8192L10.5344 13.8492L10.5682 13.8152L10.538 13.7851L10.5868 13.7359L10.6209 13.7697L10.6547 13.7357L10.6168 13.6981L10.6619 13.6527L10.7376 13.7278C10.7528 13.7429 10.7528 13.758 10.7415 13.7693L10.5762 13.9358C10.5649 13.9472 10.5461 13.951 10.5347 13.9397L10.459 13.8646Z" stroke="black" stroke-width="0.0666669"/>
<path d="M10.6522 14.1016L10.7809 14.2293L10.6305 14.3807L10.5019 14.2529L10.6522 14.1016Z" fill="#FFFF00" stroke="black" stroke-width="0.0666669"/>
<path d="M10.6522 14.1016L10.7809 14.2293L10.6305 14.3807L10.5019 14.2529L10.6522 14.1016Z" fill="#FFFF00" stroke="black" stroke-width="0.0666669"/>
<path d="M10.3772 14.1816L10.4223 14.1362L10.4601 14.1738L10.4939 14.1397L10.4561 14.1022L10.5012 14.0568L10.539 14.0943L10.5728 14.0603L10.535 14.0227L10.5801 13.9773L10.6558 14.0524C10.6709 14.0675 10.671 14.0826 10.6597 14.0939L10.4981 14.2566C10.4921 14.2627 10.484 14.2661 10.4755 14.2661C10.467 14.2661 10.4589 14.2628 10.4529 14.2568L10.3772 14.1816V14.1816Z" fill="#FFFF00" stroke="black" stroke-width="0.0666669"/>
<path d="M10.3772 14.1816L10.4223 14.1362L10.4601 14.1738L10.4939 14.1397L10.4561 14.1022L10.5012 14.0568L10.539 14.0943L10.5728 14.0603L10.535 14.0227L10.5801 13.9773L10.6558 14.0524C10.6709 14.0675 10.671 14.0826 10.6597 14.0939L10.4981 14.2566C10.4921 14.2627 10.484 14.2661 10.4755 14.2661C10.467 14.2661 10.4589 14.2628 10.4529 14.2568L10.3772 14.1816V14.1816Z" fill="#FFFF00" stroke="black" stroke-width="0.0666669"/>
<path d="M10.7233 13.9544C10.7006 13.9319 10.7344 13.8978 10.7572 13.9204L10.8177 13.9805L10.7839 14.0145L10.7233 13.9544Z" fill="black"/>
<path d="M10.6074 14.2376C10.5847 14.2151 10.6147 14.1848 10.6375 14.2073L10.6829 14.2524L10.6528 14.2827L10.6074 14.2376Z" fill="black"/>
<path d="M10.6074 14.2376C10.5847 14.2151 10.6147 14.1848 10.6375 14.2073L10.6829 14.2524L10.6528 14.2827L10.6074 14.2376Z" fill="black"/>
<path d="M10.144 9.5697C10.1493 9.27636 10.3573 9.20703 10.3573 9.20703C10.3627 9.20703 10.5867 9.2817 10.5867 9.57503H10.144" fill="#FFFF00"/>
<path d="M9.96268 9.21236L9.92535 9.54837H10.1494C10.1494 9.27103 10.3627 9.22836 10.3627 9.22836C10.368 9.22836 10.576 9.28703 10.5814 9.54837H10.8054L10.7627 9.20703H9.96268V9.21236ZM9.90935 9.5537H10.816C10.832 9.5537 10.848 9.5697 10.848 9.59103C10.848 9.6177 10.832 9.6337 10.816 9.6337H9.90935C9.89335 9.6337 9.87735 9.6177 9.87735 9.59103C9.87735 9.5697 9.89335 9.5537 9.91468 9.5537H9.90935Z" fill="#FFFF00" stroke="black" stroke-width="0.0666669"/>
<path d="M10.24 9.54831C10.24 9.37231 10.3627 9.32431 10.3627 9.32431C10.3627 9.32431 10.4854 9.37764 10.4854 9.54831H10.24ZM9.93068 9.0683H10.8C10.816 9.0683 10.832 9.08964 10.832 9.11097C10.832 9.12697 10.816 9.14297 10.8 9.14297H9.93068C9.91468 9.14297 9.89868 9.12697 9.89868 9.10564C9.89868 9.08964 9.91468 9.07364 9.93068 9.07364V9.0683ZM9.95202 9.14831H10.7734C10.7894 9.14831 10.8054 9.1643 10.8054 9.18564C10.8054 9.20697 10.7894 9.22297 10.7734 9.22297H9.94668C9.92535 9.22297 9.91468 9.20697 9.91468 9.18564C9.91468 9.1643 9.92535 9.14831 9.94668 9.14831H9.95202ZM10.2187 8.58297H10.2827V8.62564H10.3307V8.58297H10.4V8.63097H10.448V8.57764H10.512V8.6843C10.512 8.70564 10.5014 8.7163 10.4854 8.7163H10.2507C10.2347 8.7163 10.2187 8.70564 10.2187 8.68964V8.58297ZM10.464 8.72697L10.48 9.0683H10.2507L10.2667 8.72164H10.464" fill="#FFFF00"/>
<path d="M10.464 8.72697L10.48 9.0683H10.2507L10.2667 8.72164H10.464M10.24 9.54831C10.24 9.37231 10.3627 9.32431 10.3627 9.32431C10.3627 9.32431 10.4854 9.37764 10.4854 9.54831H10.24ZM9.93068 9.0683H10.8C10.816 9.0683 10.832 9.08964 10.832 9.11097C10.832 9.12697 10.816 9.14297 10.8 9.14297H9.93068C9.91468 9.14297 9.89868 9.12697 9.89868 9.10564C9.89868 9.08964 9.91468 9.07364 9.93068 9.07364V9.0683ZM9.95202 9.14831H10.7734C10.7894 9.14831 10.8054 9.1643 10.8054 9.18564C10.8054 9.20697 10.7894 9.22297 10.7734 9.22297H9.94668C9.92535 9.22297 9.91468 9.20697 9.91468 9.18564C9.91468 9.1643 9.92535 9.14831 9.94668 9.14831H9.95202ZM10.2187 8.58297H10.2827V8.62564H10.3307V8.58297H10.4V8.63097H10.448V8.57764H10.512V8.6843C10.512 8.70564 10.5014 8.7163 10.4854 8.7163H10.2507C10.2347 8.7163 10.2187 8.70564 10.2187 8.68964V8.58297Z" stroke="black" stroke-width="0.0666669"/>
<path d="M10.1867 8.88721V9.06854H9.97336V8.88721H10.1867Z" fill="#FFFF00" stroke="black" stroke-width="0.0666669"/>
<path d="M10.1867 8.88721V9.06854H9.97336V8.88721H10.1867Z" fill="#FFFF00" stroke="black" stroke-width="0.0666669"/>
<path d="M9.936 8.74854H10V8.80187H10.048V8.74854H10.112V8.80187H10.16V8.74854H10.224V8.8552C10.224 8.87654 10.2133 8.8872 10.1973 8.8872H9.968C9.95952 8.8872 9.95138 8.88383 9.94538 8.87783C9.93938 8.87183 9.936 8.86369 9.936 8.8552V8.74854V8.74854Z" fill="#FFFF00" stroke="black" stroke-width="0.0666669"/>
<path d="M9.936 8.74854H10V8.80187H10.048V8.74854H10.112V8.80187H10.16V8.74854H10.224V8.8552C10.224 8.87654 10.2133 8.8872 10.1973 8.8872H9.968C9.95952 8.8872 9.95138 8.88383 9.94538 8.87783C9.93938 8.87183 9.936 8.86369 9.936 8.8552V8.74854V8.74854Z" fill="#FFFF00" stroke="black" stroke-width="0.0666669"/>
<path d="M10.3413 8.83357C10.3413 8.80157 10.3893 8.80157 10.3893 8.83357V8.9189H10.3413V8.83357Z" fill="black"/>
<path d="M10.0587 8.95076C10.0587 8.91876 10.1014 8.91876 10.1014 8.95076V9.01476H10.0587V8.95076Z" fill="black"/>
<path d="M10.0587 8.95076C10.0587 8.91876 10.1014 8.91876 10.1014 8.95076V9.01476H10.0587V8.95076Z" fill="black"/>
<path d="M15.4454 9.5697C15.44 9.27636 15.232 9.20703 15.232 9.20703C15.2267 9.20703 15.0027 9.2817 15.0027 9.57503H15.4454" fill="#FFFF00"/>
<path d="M15.6267 9.21236L15.664 9.54837H15.44C15.44 9.27103 15.2267 9.22836 15.2267 9.22836C15.2214 9.22836 15.0134 9.28703 15.008 9.54837H14.784L14.8267 9.20703H15.6267V9.21236ZM15.68 9.5537H14.7734C14.7574 9.5537 14.7414 9.5697 14.7414 9.59103C14.7414 9.6177 14.7574 9.6337 14.7734 9.6337H15.68C15.696 9.6337 15.712 9.6177 15.712 9.59103C15.712 9.5697 15.696 9.5537 15.6747 9.5537H15.68Z" fill="#FFFF00" stroke="black" stroke-width="0.0666669"/>
<path d="M15.3494 9.54831C15.3494 9.37231 15.2267 9.32431 15.2267 9.32431C15.2267 9.32431 15.104 9.37764 15.104 9.54831H15.3494ZM15.6587 9.0683H14.7894C14.7734 9.0683 14.7574 9.08964 14.7574 9.11097C14.7574 9.12697 14.7734 9.14297 14.7894 9.14297H15.6587C15.6747 9.14297 15.6907 9.12697 15.6907 9.10564C15.6907 9.08964 15.6747 9.07364 15.6587 9.07364V9.0683ZM15.6374 9.14831H14.816C14.8 9.14831 14.784 9.1643 14.784 9.18564C14.784 9.20697 14.8 9.22297 14.816 9.22297H15.6427C15.664 9.22297 15.6747 9.20697 15.6747 9.18564C15.6747 9.1643 15.664 9.14831 15.6427 9.14831H15.6374ZM15.3707 8.58297H15.3067V8.62564H15.2587V8.58297H15.1894V8.63097H15.1414V8.57764H15.0774V8.6843C15.0774 8.70564 15.088 8.7163 15.104 8.7163H15.3387C15.3547 8.7163 15.3707 8.70564 15.3707 8.68964V8.58297ZM15.1254 8.72697L15.1094 9.0683H15.3387L15.3227 8.72164H15.1254" fill="#FFFF00"/>
<path d="M15.1254 8.72697L15.1094 9.0683H15.3387L15.3227 8.72164H15.1254M15.3494 9.54831C15.3494 9.37231 15.2267 9.32431 15.2267 9.32431C15.2267 9.32431 15.104 9.37764 15.104 9.54831H15.3494ZM15.6587 9.0683H14.7894C14.7734 9.0683 14.7574 9.08964 14.7574 9.11097C14.7574 9.12697 14.7734 9.14297 14.7894 9.14297H15.6587C15.6747 9.14297 15.6907 9.12697 15.6907 9.10564C15.6907 9.08964 15.6747 9.07364 15.6587 9.07364V9.0683ZM15.6374 9.14831H14.816C14.8 9.14831 14.784 9.1643 14.784 9.18564C14.784 9.20697 14.8 9.22297 14.816 9.22297H15.6427C15.664 9.22297 15.6747 9.20697 15.6747 9.18564C15.6747 9.1643 15.664 9.14831 15.6427 9.14831H15.6374ZM15.3707 8.58297H15.3067V8.62564H15.2587V8.58297H15.1894V8.63097H15.1414V8.57764H15.0774V8.6843C15.0774 8.70564 15.088 8.7163 15.104 8.7163H15.3387C15.3547 8.7163 15.3707 8.70564 15.3707 8.68964V8.58297Z" stroke="black" stroke-width="0.0666669"/>
<path d="M15.4027 8.88721V9.06854H15.616V8.88721H15.4027Z" fill="#FFFF00" stroke="black" stroke-width="0.0666669"/>
<path d="M15.4027 8.88721V9.06854H15.616V8.88721H15.4027Z" fill="#FFFF00" stroke="black" stroke-width="0.0666669"/>
<path d="M15.6534 8.74854H15.5894V8.80187H15.5414V8.74854H15.4774V8.80187H15.4294V8.74854H15.3654V8.8552C15.3654 8.87654 15.376 8.8872 15.392 8.8872H15.6214C15.6299 8.8872 15.638 8.88383 15.644 8.87783C15.65 8.87183 15.6534 8.86369 15.6534 8.8552V8.74854V8.74854Z" fill="#FFFF00" stroke="black" stroke-width="0.0666669"/>
<path d="M15.6534 8.74854H15.5894V8.80187H15.5414V8.74854H15.4774V8.80187H15.4294V8.74854H15.3654V8.8552C15.3654 8.87654 15.376 8.8872 15.392 8.8872H15.6214C15.6299 8.8872 15.638 8.88383 15.644 8.87783C15.65 8.87183 15.6534 8.86369 15.6534 8.8552V8.74854V8.74854Z" fill="#FFFF00" stroke="black" stroke-width="0.0666669"/>
<path d="M15.248 8.83357C15.248 8.80157 15.2 8.80157 15.2 8.83357V8.9189H15.248V8.83357Z" fill="black"/>
<path d="M15.5307 8.95076C15.5307 8.91876 15.488 8.91876 15.488 8.95076V9.01476H15.5307V8.95076Z" fill="black"/>
<path d="M15.5307 8.95076C15.5307 8.91876 15.488 8.91876 15.488 8.95076V9.01476H15.5307V8.95076Z" fill="black"/>
<path d="M15.4454 9.5697C15.44 9.27636 15.232 9.20703 15.232 9.20703C15.2267 9.20703 15.0027 9.2817 15.0027 9.57503H15.4454" fill="#FFFF00"/>
<path d="M15.6267 9.21236L15.664 9.54837H15.44C15.44 9.27103 15.2267 9.22836 15.2267 9.22836C15.2214 9.22836 15.0134 9.28703 15.008 9.54837H14.784L14.8267 9.20703H15.6267V9.21236ZM15.68 9.5537H14.7734C14.7574 9.5537 14.7414 9.5697 14.7414 9.59103C14.7414 9.6177 14.7574 9.6337 14.7734 9.6337H15.68C15.696 9.6337 15.712 9.6177 15.712 9.59103C15.712 9.5697 15.696 9.5537 15.6747 9.5537H15.68Z" fill="#FFFF00" stroke="black" stroke-width="0.0666669"/>
<path d="M15.3494 9.54831C15.3494 9.37231 15.2267 9.32431 15.2267 9.32431C15.2267 9.32431 15.104 9.37764 15.104 9.54831H15.3494ZM15.6587 9.0683H14.7894C14.7734 9.0683 14.7574 9.08964 14.7574 9.11097C14.7574 9.12697 14.7734 9.14297 14.7894 9.14297H15.6587C15.6747 9.14297 15.6907 9.12697 15.6907 9.10564C15.6907 9.08964 15.6747 9.07364 15.6587 9.07364V9.0683ZM15.6374 9.14831H14.816C14.8 9.14831 14.784 9.1643 14.784 9.18564C14.784 9.20697 14.8 9.22297 14.816 9.22297H15.6427C15.664 9.22297 15.6747 9.20697 15.6747 9.18564C15.6747 9.1643 15.664 9.14831 15.6427 9.14831H15.6374ZM15.3707 8.58297H15.3067V8.62564H15.2587V8.58297H15.1894V8.63097H15.1414V8.57764H15.0774V8.6843C15.0774 8.70564 15.088 8.7163 15.104 8.7163H15.3387C15.3547 8.7163 15.3707 8.70564 15.3707 8.68964V8.58297ZM15.1254 8.72697L15.1094 9.0683H15.3387L15.3227 8.72164H15.1254" fill="#FFFF00"/>
<path d="M15.1254 8.72697L15.1094 9.0683H15.3387L15.3227 8.72164H15.1254M15.3494 9.54831C15.3494 9.37231 15.2267 9.32431 15.2267 9.32431C15.2267 9.32431 15.104 9.37764 15.104 9.54831H15.3494ZM15.6587 9.0683H14.7894C14.7734 9.0683 14.7574 9.08964 14.7574 9.11097C14.7574 9.12697 14.7734 9.14297 14.7894 9.14297H15.6587C15.6747 9.14297 15.6907 9.12697 15.6907 9.10564C15.6907 9.08964 15.6747 9.07364 15.6587 9.07364V9.0683ZM15.6374 9.14831H14.816C14.8 9.14831 14.784 9.1643 14.784 9.18564C14.784 9.20697 14.8 9.22297 14.816 9.22297H15.6427C15.664 9.22297 15.6747 9.20697 15.6747 9.18564C15.6747 9.1643 15.664 9.14831 15.6427 9.14831H15.6374ZM15.3707 8.58297H15.3067V8.62564H15.2587V8.58297H15.1894V8.63097H15.1414V8.57764H15.0774V8.6843C15.0774 8.70564 15.088 8.7163 15.104 8.7163H15.3387C15.3547 8.7163 15.3707 8.70564 15.3707 8.68964V8.58297Z" stroke="black" stroke-width="0.0666669"/>
<path d="M15.4027 8.88721V9.06854H15.616V8.88721H15.4027Z" fill="#FFFF00" stroke="black" stroke-width="0.0666669"/>
<path d="M15.4027 8.88721V9.06854H15.616V8.88721H15.4027Z" fill="#FFFF00" stroke="black" stroke-width="0.0666669"/>
<path d="M15.6534 8.74854H15.5894V8.80187H15.5414V8.74854H15.4774V8.80187H15.4294V8.74854H15.3654V8.8552C15.3654 8.87654 15.376 8.8872 15.392 8.8872H15.6214C15.6299 8.8872 15.638 8.88383 15.644 8.87783C15.65 8.87183 15.6534 8.86369 15.6534 8.8552V8.74854V8.74854Z" fill="#FFFF00" stroke="black" stroke-width="0.0666669"/>
<path d="M15.6534 8.74854H15.5894V8.80187H15.5414V8.74854H15.4774V8.80187H15.4294V8.74854H15.3654V8.8552C15.3654 8.87654 15.376 8.8872 15.392 8.8872H15.6214C15.6299 8.8872 15.638 8.88383 15.644 8.87783C15.65 8.87183 15.6534 8.86369 15.6534 8.8552V8.74854V8.74854Z" fill="#FFFF00" stroke="black" stroke-width="0.0666669"/>
<path d="M15.248 8.83357C15.248 8.80157 15.2 8.80157 15.2 8.83357V8.9189H15.248V8.83357Z" fill="black"/>
<path d="M15.5307 8.95076C15.5307 8.91876 15.488 8.91876 15.488 8.95076V9.01476H15.5307V8.95076Z" fill="black"/>
<path d="M15.5307 8.95076C15.5307 8.91876 15.488 8.91876 15.488 8.95076V9.01476H15.5307V8.95076Z" fill="black"/>
<path d="M14.4829 14.613C14.6872 14.4025 14.5899 14.206 14.5899 14.206C14.5861 14.2023 14.3753 14.0959 14.1672 14.3026L14.4791 14.6167" fill="#FFFF00"/>
<path d="M14.8642 14.4896L14.6521 14.7528L14.4942 14.5939C14.691 14.3985 14.571 14.217 14.571 14.217C14.5672 14.2133 14.379 14.107 14.1898 14.2874L14.032 14.1284L14.3043 13.9182L14.868 14.4858L14.8642 14.4896ZM14.6596 14.768L14.0207 14.1246C14.0094 14.1133 13.9868 14.1132 13.9717 14.1282C13.9527 14.147 13.9527 14.1696 13.9639 14.181L14.6028 14.8243C14.6141 14.8357 14.6367 14.8358 14.6556 14.817C14.6708 14.8019 14.6708 14.7793 14.6558 14.7642L14.6596 14.768Z" fill="#FFFF00" stroke="black" stroke-width="0.0666669"/>
<path d="M14.4303 14.5297C14.5552 14.4056 14.5029 14.2848 14.5029 14.2848C14.5029 14.2848 14.3786 14.2353 14.2575 14.3556L14.4303 14.5297ZM14.9889 14.4109L14.3763 13.7941C14.3651 13.7827 14.3387 13.7864 14.3235 13.8014C14.3122 13.8127 14.3121 13.8353 14.3234 13.8467L14.9359 14.4635C14.9472 14.4749 14.9698 14.475 14.985 14.4599C14.9963 14.4487 14.9964 14.426 14.9851 14.4147L14.9889 14.4109ZM14.9171 14.4522L14.3384 13.8694C14.3271 13.858 14.3045 13.8579 14.2893 13.873C14.2742 13.888 14.2741 13.9106 14.2854 13.922L14.8679 14.5086C14.8829 14.5237 14.9018 14.52 14.9169 14.505C14.9321 14.4899 14.9359 14.4711 14.9209 14.4559L14.9171 14.4522ZM15.1304 13.8646L15.0853 13.8192L15.055 13.8492L15.0212 13.8152L15.0514 13.7851L15.0026 13.7359L14.9685 13.7697L14.9347 13.7357L14.9725 13.6981L14.9274 13.6527L14.8518 13.7278C14.8366 13.7429 14.8366 13.758 14.8478 13.7693L15.0132 13.9358C15.0245 13.9472 15.0433 13.951 15.0547 13.9397L15.1304 13.8646ZM14.8553 13.792L14.6018 14.0211L14.7634 14.1839L14.9981 13.9282L14.8591 13.7882" fill="#FFFF00"/>
<path d="M14.8553 13.792L14.6018 14.0211L14.7634 14.1839L14.9981 13.9282L14.8591 13.7882M14.4303 14.5297C14.5552 14.4056 14.5029 14.2848 14.5029 14.2848C14.5029 14.2848 14.3786 14.2353 14.2575 14.3556L14.4303 14.5297ZM14.9889 14.4109L14.3763 13.7941C14.3651 13.7827 14.3387 13.7864 14.3235 13.8014C14.3122 13.8127 14.3121 13.8353 14.3234 13.8467L14.9359 14.4635C14.9472 14.4749 14.9698 14.475 14.985 14.4599C14.9963 14.4487 14.9964 14.426 14.9851 14.4147L14.9889 14.4109ZM14.9171 14.4522L14.3384 13.8694C14.3271 13.858 14.3045 13.8579 14.2893 13.873C14.2742 13.888 14.2741 13.9106 14.2854 13.922L14.8679 14.5086C14.8829 14.5237 14.9018 14.52 14.9169 14.505C14.9321 14.4899 14.9359 14.4711 14.9209 14.4559L14.9171 14.4522ZM15.1304 13.8646L15.0853 13.8192L15.055 13.8492L15.0212 13.8152L15.0514 13.7851L15.0026 13.7359L14.9685 13.7697L14.9347 13.7357L14.9725 13.6981L14.9274 13.6527L14.8518 13.7278C14.8366 13.7429 14.8366 13.758 14.8478 13.7693L15.0132 13.9358C15.0245 13.9472 15.0433 13.951 15.0547 13.9397L15.1304 13.8646Z" stroke="black" stroke-width="0.0666669"/>
<path d="M14.9372 14.1016L14.8085 14.2293L14.9589 14.3807L15.0875 14.2529L14.9372 14.1016Z" fill="#FFFF00" stroke="black" stroke-width="0.0666669"/>
<path d="M14.9372 14.1016L14.8085 14.2293L14.9589 14.3807L15.0875 14.2529L14.9372 14.1016Z" fill="#FFFF00" stroke="black" stroke-width="0.0666669"/>
<path d="M15.2122 14.1816L15.1671 14.1362L15.1293 14.1738L15.0955 14.1397L15.1333 14.1022L15.0882 14.0568L15.0504 14.0943L15.0165 14.0603L15.0544 14.0227L15.0093 13.9773L14.9336 14.0524C14.9185 14.0675 14.9184 14.0826 14.9297 14.0939L15.0913 14.2566C15.0973 14.2627 15.1054 14.2661 15.1139 14.2661C15.1224 14.2661 15.1305 14.2628 15.1365 14.2568L15.2122 14.1816V14.1816Z" fill="#FFFF00" stroke="black" stroke-width="0.0666669"/>
<path d="M15.2122 14.1816L15.1671 14.1362L15.1293 14.1738L15.0955 14.1397L15.1333 14.1022L15.0882 14.0568L15.0504 14.0943L15.0165 14.0603L15.0544 14.0227L15.0093 13.9773L14.9336 14.0524C14.9185 14.0675 14.9184 14.0826 14.9297 14.0939L15.0913 14.2566C15.0973 14.2627 15.1054 14.2661 15.1139 14.2661C15.1224 14.2661 15.1305 14.2628 15.1365 14.2568L15.2122 14.1816V14.1816Z" fill="#FFFF00" stroke="black" stroke-width="0.0666669"/>
<path d="M14.8661 13.9544C14.8888 13.9319 14.8549 13.8978 14.8322 13.9204L14.7717 13.9805L14.8055 14.0145L14.8661 13.9544Z" fill="black"/>
<path d="M14.982 14.2376C15.0047 14.2151 14.9746 14.1848 14.9519 14.2073L14.9065 14.2524L14.9366 14.2827L14.982 14.2376Z" fill="black"/>
<path d="M14.982 14.2376C15.0047 14.2151 14.9746 14.1848 14.9519 14.2073L14.9065 14.2524L14.9366 14.2827L14.982 14.2376Z" fill="black"/>
<path d="M12.4054 12.1297C12.4044 12.2423 12.4463 12.351 12.5227 12.4337C12.5583 12.4735 12.6018 12.5055 12.6505 12.5275C12.6992 12.5496 12.7519 12.5612 12.8054 12.5617C12.9174 12.5617 13.0187 12.5084 13.088 12.4337C13.1644 12.351 13.2063 12.2423 13.2054 12.1297V11.5537H12.4054V12.1297Z" fill="#003399"/>
<path d="M12.592 11.8524C12.6362 11.8524 12.672 11.8166 12.672 11.7724C12.672 11.7282 12.6362 11.6924 12.592 11.6924C12.5478 11.6924 12.512 11.7282 12.512 11.7724C12.512 11.8166 12.5478 11.8524 12.592 11.8524Z" fill="white"/>
<path d="M13.0347 11.8524C13.0789 11.8524 13.1147 11.8166 13.1147 11.7724C13.1147 11.7282 13.0789 11.6924 13.0347 11.6924C12.9905 11.6924 12.9547 11.7282 12.9547 11.7724C12.9547 11.8166 12.9905 11.8524 13.0347 11.8524Z" fill="white"/>
<path d="M12.8107 12.0658C12.8549 12.0658 12.8907 12.0299 12.8907 11.9858C12.8907 11.9416 12.8549 11.9058 12.8107 11.9058C12.7665 11.9058 12.7307 11.9416 12.7307 11.9858C12.7307 12.0299 12.7665 12.0658 12.8107 12.0658Z" fill="white"/>
<path d="M12.592 12.2899C12.6362 12.2899 12.672 12.2541 12.672 12.2099C12.672 12.1657 12.6362 12.1299 12.592 12.1299C12.5478 12.1299 12.512 12.1657 12.512 12.2099C12.512 12.2541 12.5478 12.2899 12.592 12.2899Z" fill="white"/>
<path d="M13.0347 12.2899C13.0789 12.2899 13.1147 12.2541 13.1147 12.2099C13.1147 12.1657 13.0789 12.1299 13.0347 12.1299C12.9905 12.1299 12.9547 12.1657 12.9547 12.2099C12.9547 12.2541 12.9905 12.2899 13.0347 12.2899Z" fill="white"/>
<path d="M12.4054 12.1297C12.4044 12.2423 12.4463 12.351 12.5227 12.4337C12.5583 12.4735 12.6018 12.5055 12.6505 12.5275C12.6992 12.5496 12.7519 12.5612 12.8054 12.5617C12.9174 12.5617 13.0187 12.5084 13.088 12.4337C13.1644 12.351 13.2063 12.2423 13.2054 12.1297V11.5537H12.4054V12.1297Z" fill="#003399"/>
<path d="M12.592 11.8524C12.6362 11.8524 12.672 11.8166 12.672 11.7724C12.672 11.7282 12.6362 11.6924 12.592 11.6924C12.5478 11.6924 12.512 11.7282 12.512 11.7724C12.512 11.8166 12.5478 11.8524 12.592 11.8524Z" fill="white"/>
<path d="M13.0347 11.8524C13.0789 11.8524 13.1147 11.8166 13.1147 11.7724C13.1147 11.7282 13.0789 11.6924 13.0347 11.6924C12.9905 11.6924 12.9547 11.7282 12.9547 11.7724C12.9547 11.8166 12.9905 11.8524 13.0347 11.8524Z" fill="white"/>
<path d="M12.8107 12.0658C12.8549 12.0658 12.8907 12.0299 12.8907 11.9858C12.8907 11.9416 12.8549 11.9058 12.8107 11.9058C12.7665 11.9058 12.7307 11.9416 12.7307 11.9858C12.7307 12.0299 12.7665 12.0658 12.8107 12.0658Z" fill="white"/>
<path d="M12.592 12.2899C12.6362 12.2899 12.672 12.2541 12.672 12.2099C12.672 12.1657 12.6362 12.1299 12.592 12.1299C12.5478 12.1299 12.512 12.1657 12.512 12.2099C12.512 12.2541 12.5478 12.2899 12.592 12.2899Z" fill="white"/>
<path d="M13.0347 12.2899C13.0789 12.2899 13.1147 12.2541 13.1147 12.2099C13.1147 12.1657 13.0789 12.1299 13.0347 12.1299C12.9905 12.1299 12.9547 12.1657 12.9547 12.2099C12.9547 12.2541 12.9905 12.2899 13.0347 12.2899Z" fill="white"/>
<path d="M12.4054 12.1297C12.4044 12.2423 12.4463 12.351 12.5227 12.4337C12.5583 12.4735 12.6018 12.5055 12.6505 12.5275C12.6992 12.5496 12.7519 12.5612 12.8054 12.5617C12.9174 12.5617 13.0187 12.5084 13.088 12.4337C13.1644 12.351 13.2063 12.2423 13.2054 12.1297V11.5537H12.4054V12.1297Z" fill="#003399"/>
<path d="M12.592 11.8524C12.6362 11.8524 12.672 11.8166 12.672 11.7724C12.672 11.7282 12.6362 11.6924 12.592 11.6924C12.5478 11.6924 12.512 11.7282 12.512 11.7724C12.512 11.8166 12.5478 11.8524 12.592 11.8524Z" fill="white"/>
<path d="M13.0347 11.8524C13.0789 11.8524 13.1147 11.8166 13.1147 11.7724C13.1147 11.7282 13.0789 11.6924 13.0347 11.6924C12.9905 11.6924 12.9547 11.7282 12.9547 11.7724C12.9547 11.8166 12.9905 11.8524 13.0347 11.8524Z" fill="white"/>
<path d="M12.8107 12.0658C12.8549 12.0658 12.8907 12.0299 12.8907 11.9858C12.8907 11.9416 12.8549 11.9058 12.8107 11.9058C12.7665 11.9058 12.7307 11.9416 12.7307 11.9858C12.7307 12.0299 12.7665 12.0658 12.8107 12.0658Z" fill="white"/>
<path d="M12.592 12.2899C12.6362 12.2899 12.672 12.2541 12.672 12.2099C12.672 12.1657 12.6362 12.1299 12.592 12.1299C12.5478 12.1299 12.512 12.1657 12.512 12.2099C12.512 12.2541 12.5478 12.2899 12.592 12.2899Z" fill="white"/>
<path d="M13.0347 12.2899C13.0789 12.2899 13.1147 12.2541 13.1147 12.2099C13.1147 12.1657 13.0789 12.1299 13.0347 12.1299C12.9905 12.1299 12.9547 12.1657 12.9547 12.2099C12.9547 12.2541 12.9905 12.2899 13.0347 12.2899Z" fill="white"/>
<path d="M12.4054 12.1297C12.4044 12.2423 12.4463 12.351 12.5227 12.4337C12.5583 12.4735 12.6018 12.5055 12.6505 12.5275C12.6992 12.5496 12.7519 12.5612 12.8054 12.5617C12.9174 12.5617 13.0187 12.5084 13.088 12.4337C13.1644 12.351 13.2063 12.2423 13.2054 12.1297V11.5537H12.4054V12.1297Z" fill="#003399"/>
<path d="M12.592 11.8524C12.6362 11.8524 12.672 11.8166 12.672 11.7724C12.672 11.7282 12.6362 11.6924 12.592 11.6924C12.5478 11.6924 12.512 11.7282 12.512 11.7724C12.512 11.8166 12.5478 11.8524 12.592 11.8524Z" fill="white"/>
<path d="M13.0347 11.8524C13.0789 11.8524 13.1147 11.8166 13.1147 11.7724C13.1147 11.7282 13.0789 11.6924 13.0347 11.6924C12.9905 11.6924 12.9547 11.7282 12.9547 11.7724C12.9547 11.8166 12.9905 11.8524 13.0347 11.8524Z" fill="white"/>
<path d="M12.8107 12.0658C12.8549 12.0658 12.8907 12.0299 12.8907 11.9858C12.8907 11.9416 12.8549 11.9058 12.8107 11.9058C12.7665 11.9058 12.7307 11.9416 12.7307 11.9858C12.7307 12.0299 12.7665 12.0658 12.8107 12.0658Z" fill="white"/>
<path d="M12.592 12.2899C12.6362 12.2899 12.672 12.2541 12.672 12.2099C12.672 12.1657 12.6362 12.1299 12.592 12.1299C12.5478 12.1299 12.512 12.1657 12.512 12.2099C12.512 12.2541 12.5478 12.2899 12.592 12.2899Z" fill="white"/>
<path d="M13.0347 12.2899C13.0789 12.2899 13.1147 12.2541 13.1147 12.2099C13.1147 12.1657 13.0789 12.1299 13.0347 12.1299C12.9905 12.1299 12.9547 12.1657 12.9547 12.2099C12.9547 12.2541 12.9905 12.2899 13.0347 12.2899Z" fill="white"/>
<path d="M12.4054 12.1297C12.4044 12.2423 12.4463 12.351 12.5227 12.4337C12.5583 12.4735 12.6018 12.5055 12.6505 12.5275C12.6992 12.5496 12.7519 12.5612 12.8054 12.5617C12.9174 12.5617 13.0187 12.5084 13.088 12.4337C13.1644 12.351 13.2063 12.2423 13.2054 12.1297V11.5537H12.4054V12.1297Z" fill="#003399"/>
<path d="M12.592 11.8524C12.6362 11.8524 12.672 11.8166 12.672 11.7724C12.672 11.7282 12.6362 11.6924 12.592 11.6924C12.5478 11.6924 12.512 11.7282 12.512 11.7724C12.512 11.8166 12.5478 11.8524 12.592 11.8524Z" fill="white"/>
<path d="M13.0347 11.8524C13.0789 11.8524 13.1147 11.8166 13.1147 11.7724C13.1147 11.7282 13.0789 11.6924 13.0347 11.6924C12.9905 11.6924 12.9547 11.7282 12.9547 11.7724C12.9547 11.8166 12.9905 11.8524 13.0347 11.8524Z" fill="white"/>
<path d="M12.8107 12.0658C12.8549 12.0658 12.8907 12.0299 12.8907 11.9858C12.8907 11.9416 12.8549 11.9058 12.8107 11.9058C12.7665 11.9058 12.7307 11.9416 12.7307 11.9858C12.7307 12.0299 12.7665 12.0658 12.8107 12.0658Z" fill="white"/>
<path d="M12.592 12.2899C12.6362 12.2899 12.672 12.2541 12.672 12.2099C12.672 12.1657 12.6362 12.1299 12.592 12.1299C12.5478 12.1299 12.512 12.1657 12.512 12.2099C12.512 12.2541 12.5478 12.2899 12.592 12.2899Z" fill="white"/>
<path d="M13.0347 12.2899C13.0789 12.2899 13.1147 12.2541 13.1147 12.2099C13.1147 12.1657 13.0789 12.1299 13.0347 12.1299C12.9905 12.1299 12.9547 12.1657 12.9547 12.2099C12.9547 12.2541 12.9905 12.2899 13.0347 12.2899Z" fill="white"/>
</g>
<defs>
<clipPath id="clip0_3_4492">
<rect width="32" height="24" fill="white"/>
</clipPath>
</defs>
</svg>
