<svg width="550" height="110" viewBox="0 0 550 110" fill="none" xmlns="http://www.w3.org/2000/svg">
<path d="M236 69L167 67.5L162 69.5L141 67V67C141 74.1797 146.82 80 154 80H228.295C233.985 80 237.944 74.3468 236 69V69Z" fill="white"/>
<path d="M4.608 46.36C4.608 40.472 5.376 35.416 6.912 31.192C8.448 26.968 10.56 23.512 13.248 20.824C16 18.072 19.296 16.056 23.136 14.776C26.976 13.432 31.2 12.76 35.808 12.76C40.8 12.76 45.184 13.528 48.96 15.064C52.8 16.536 56 18.616 58.56 21.304C61.12 23.992 63.04 27.16 64.32 30.808C65.664 34.456 66.336 38.456 66.336 42.808C66.336 51.128 64.352 57.944 60.384 63.256C56.48 68.504 51.2 72.248 44.544 74.488L57.888 81.016C60.832 82.488 62.784 84.632 63.744 87.448C64.704 90.264 64.128 94.072 62.016 98.872L26.976 81.304C22.112 78.936 18.208 76.472 15.264 73.912C12.384 71.352 10.144 68.632 8.544 65.752C6.944 62.872 5.888 59.832 5.376 56.632C4.864 53.432 4.608 50.008 4.608 46.36ZM33.696 69.208L37.824 71.32C39.744 69.592 41.44 67.896 42.912 66.232C44.448 64.568 45.728 62.808 46.752 60.952C47.776 59.032 48.544 56.92 49.056 54.616C49.632 52.248 49.92 49.496 49.92 46.36C49.92 39.384 48.672 34.232 46.176 30.904C43.68 27.576 40.128 25.912 35.52 25.912C30.912 25.912 27.328 27.576 24.768 30.904C22.272 34.232 21.024 39.384 21.024 46.36C21.024 49.56 21.28 52.312 21.792 54.616C22.304 56.92 23.072 58.936 24.096 60.664C25.184 62.392 26.496 63.928 28.032 65.272C29.632 66.616 31.52 67.928 33.696 69.208ZM74.523 58.648C74.523 53.336 75.227 48.856 76.635 45.208C78.107 41.56 80.123 38.616 82.683 36.376C85.243 34.136 88.283 32.536 91.803 31.576C95.323 30.552 99.163 30.04 103.323 30.04C106.267 30.04 109.179 30.136 112.059 30.328C115.003 30.52 117.979 30.744 120.987 31V79H105.627V65.752C104.603 68.44 103.483 70.712 102.267 72.568C101.115 74.36 99.867 75.832 98.523 76.984C97.179 78.072 95.739 78.84 94.203 79.288C92.667 79.736 91.067 79.96 89.403 79.96C87.035 79.96 84.923 79.448 83.067 78.424C81.211 77.4 79.643 75.96 78.363 74.104C77.083 72.248 76.123 70.008 75.483 67.384C74.843 64.76 74.523 61.848 74.523 58.648ZM95.643 68.248C97.179 68.248 98.523 67.64 99.675 66.424C100.891 65.208 101.947 63.48 102.843 61.24C103.739 58.936 104.539 56.184 105.243 52.984C105.947 49.784 106.587 46.2 107.163 42.232C106.267 42.104 105.307 42.008 104.283 41.944C103.323 41.816 102.363 41.752 101.403 41.752C96.987 41.752 93.883 42.744 92.091 44.728C90.363 46.648 89.499 49.432 89.499 53.08C89.499 55.128 89.627 57.08 89.883 58.936C90.139 60.728 90.523 62.328 91.035 63.736C91.611 65.144 92.283 66.264 93.051 67.096C93.819 67.864 94.683 68.248 95.643 68.248ZM127.71 42.712C127.71 41.88 127.71 40.952 127.71 39.928C127.774 38.84 127.838 37.784 127.902 36.76C127.966 35.672 128.062 34.648 128.19 33.688C128.318 32.664 128.446 31.768 128.574 31H135.39V24.184C136.286 23.224 137.342 22.296 138.558 21.4C139.838 20.504 141.15 19.672 142.494 18.904C143.902 18.136 145.31 17.464 146.718 16.888C148.19 16.312 149.534 15.896 150.75 15.64V32.152C153.822 31.704 156.638 31.416 159.198 31.288C161.758 31.096 164.478 31 167.358 31C167.358 32.152 167.294 33.208 167.166 34.168C167.102 35.128 166.974 36.056 166.782 36.952C166.59 37.848 166.366 38.776 166.11 39.736C165.854 40.632 165.566 41.624 165.246 42.712C163.006 42.712 160.766 42.68 158.526 42.616C156.35 42.552 153.758 42.392 150.75 42.136V60.088C150.75 63.288 151.55 65.464 153.15 66.616C154.814 67.704 156.734 68.248 158.91 68.248C161.598 68.248 164.414 67.96 167.358 67.384C167.358 68.152 167.294 69.048 167.166 70.072C167.102 71.032 166.974 72.024 166.782 73.048C166.59 74.008 166.398 74.968 166.206 75.928C166.014 76.824 165.822 77.592 165.63 78.232C164.286 78.744 162.558 79.16 160.446 79.48C158.398 79.8 156.414 79.96 154.494 79.96C148.286 79.96 143.55 78.584 140.286 75.832C137.022 73.016 135.39 68.504 135.39 62.296V42.712H127.71ZM211.398 58.648C211.398 53.336 212.102 48.856 213.51 45.208C214.982 41.56 216.998 38.616 219.558 36.376C222.118 34.136 225.158 32.536 228.678 31.576C232.198 30.552 236.038 30.04 240.198 30.04C243.142 30.04 246.054 30.136 248.934 30.328C251.878 30.52 254.854 30.744 257.862 31V79H242.502V65.752C241.478 68.44 240.358 70.712 239.142 72.568C237.99 74.36 236.742 75.832 235.398 76.984C234.054 78.072 232.614 78.84 231.078 79.288C229.542 79.736 227.942 79.96 226.278 79.96C223.91 79.96 221.798 79.448 219.942 78.424C218.086 77.4 216.518 75.96 215.238 74.104C213.958 72.248 212.998 70.008 212.358 67.384C211.718 64.76 211.398 61.848 211.398 58.648ZM232.518 68.248C234.054 68.248 235.398 67.64 236.55 66.424C237.766 65.208 238.822 63.48 239.718 61.24C240.614 58.936 241.414 56.184 242.118 52.984C242.822 49.784 243.462 46.2 244.038 42.232C243.142 42.104 242.182 42.008 241.158 41.944C240.198 41.816 239.238 41.752 238.278 41.752C233.862 41.752 230.758 42.744 228.966 44.728C227.238 46.648 226.374 49.432 226.374 53.08C226.374 55.128 226.502 57.08 226.758 58.936C227.014 60.728 227.398 62.328 227.91 63.736C228.486 65.144 229.158 66.264 229.926 67.096C230.694 67.864 231.558 68.248 232.518 68.248ZM283.497 31C283.945 34.264 284.265 37.176 284.457 39.736C284.713 42.232 284.841 44.824 284.841 47.512C287.273 41.688 290.153 37.336 293.481 34.456C296.873 31.512 300.329 30.04 303.849 30.04C304.233 32.216 304.521 34.68 304.713 37.432C304.905 40.12 305.001 42.744 305.001 45.304C301.097 45.304 297.865 45.688 295.305 46.456C292.809 47.224 290.793 48.6 289.257 50.584C287.785 52.504 286.697 55.16 285.993 58.552C285.353 61.944 284.969 66.296 284.841 71.608V79H269.481V48.28C269.481 44.888 269.353 41.88 269.097 39.256C268.905 36.632 268.713 33.88 268.521 31H283.497ZM329.228 66.52C334.732 62.36 339.372 58.744 343.148 55.672C346.924 52.6 349.964 49.848 352.268 47.416C354.572 44.984 356.204 42.744 357.164 40.696C358.188 38.648 358.7 36.6 358.7 34.552C358.7 31.608 357.772 29.432 355.916 28.024C354.06 26.616 351.692 25.912 348.812 25.912C346.38 25.912 343.692 26.232 340.748 26.872C337.868 27.512 334.892 28.44 331.82 29.656C331.564 28.952 331.308 28.056 331.052 26.968C330.86 25.816 330.668 24.632 330.476 23.416C330.284 22.136 330.124 20.888 329.996 19.672C329.932 18.456 329.9 17.4 329.9 16.504C333.484 15.224 337.164 14.296 340.94 13.72C344.716 13.08 348.14 12.76 351.212 12.76C355.18 12.76 358.636 13.272 361.58 14.296C364.524 15.256 366.956 16.6 368.876 18.328C370.86 19.992 372.332 21.976 373.292 24.28C374.252 26.584 374.732 29.048 374.732 31.672C374.732 34.616 374.156 37.496 373.004 40.312C371.916 43.128 370.06 45.912 367.436 48.664C364.876 51.352 361.516 54.072 357.356 56.824C353.196 59.576 348.044 62.36 341.9 65.176H376.076V79H329.228V66.52ZM383.733 46.264C383.733 40.888 384.373 36.12 385.653 31.96C386.933 27.8 388.757 24.312 391.125 21.496C393.557 18.616 396.469 16.44 399.861 14.968C403.317 13.496 407.189 12.76 411.477 12.76C415.765 12.76 419.605 13.496 422.997 14.968C426.453 16.44 429.365 18.616 431.733 21.496C434.165 24.312 436.021 27.8 437.301 31.96C438.581 36.12 439.221 40.888 439.221 46.264C439.221 51.704 438.581 56.536 437.301 60.76C436.021 64.92 434.165 68.44 431.733 71.32C429.365 74.136 426.453 76.28 422.997 77.752C419.605 79.224 415.765 79.96 411.477 79.96C407.189 79.96 403.317 79.224 399.861 77.752C396.469 76.28 393.557 74.136 391.125 71.32C388.757 68.44 386.933 64.92 385.653 60.76C384.373 56.536 383.733 51.704 383.733 46.264ZM411.477 66.808C413.589 66.808 415.349 66.328 416.757 65.368C418.229 64.408 419.413 63.032 420.309 61.24C421.205 59.448 421.845 57.304 422.229 54.808C422.613 52.248 422.805 49.4 422.805 46.264C422.805 39.992 421.941 35.032 420.213 31.384C418.549 27.736 415.637 25.912 411.477 25.912C407.317 25.912 404.373 27.736 402.645 31.384C400.981 35.032 400.149 39.992 400.149 46.264C400.149 49.4 400.341 52.248 400.725 54.808C401.109 57.304 401.749 59.448 402.645 61.24C403.541 63.032 404.693 64.408 406.101 65.368C407.573 66.328 409.365 66.808 411.477 66.808ZM446.885 66.52C452.389 62.36 457.029 58.744 460.805 55.672C464.581 52.6 467.621 49.848 469.925 47.416C472.229 44.984 473.861 42.744 474.821 40.696C475.845 38.648 476.357 36.6 476.357 34.552C476.357 31.608 475.429 29.432 473.573 28.024C471.717 26.616 469.349 25.912 466.469 25.912C464.037 25.912 461.349 26.232 458.405 26.872C455.525 27.512 452.549 28.44 449.477 29.656C449.221 28.952 448.965 28.056 448.709 26.968C448.517 25.816 448.325 24.632 448.133 23.416C447.941 22.136 447.781 20.888 447.653 19.672C447.589 18.456 447.557 17.4 447.557 16.504C451.141 15.224 454.821 14.296 458.597 13.72C462.373 13.08 465.797 12.76 468.869 12.76C472.837 12.76 476.293 13.272 479.237 14.296C482.181 15.256 484.613 16.6 486.533 18.328C488.517 19.992 489.989 21.976 490.949 24.28C491.909 26.584 492.389 29.048 492.389 31.672C492.389 34.616 491.813 37.496 490.661 40.312C489.573 43.128 487.717 45.912 485.093 48.664C482.533 51.352 479.173 54.072 475.013 56.824C470.853 59.576 465.701 62.36 459.557 65.176H493.733V79H446.885V66.52ZM499.853 66.52C505.357 62.36 509.997 58.744 513.773 55.672C517.549 52.6 520.589 49.848 522.893 47.416C525.197 44.984 526.829 42.744 527.789 40.696C528.813 38.648 529.325 36.6 529.325 34.552C529.325 31.608 528.397 29.432 526.541 28.024C524.685 26.616 522.317 25.912 519.437 25.912C517.005 25.912 514.317 26.232 511.373 26.872C508.493 27.512 505.517 28.44 502.445 29.656C502.189 28.952 501.933 28.056 501.677 26.968C501.485 25.816 501.293 24.632 501.101 23.416C500.909 22.136 500.749 20.888 500.621 19.672C500.557 18.456 500.525 17.4 500.525 16.504C504.109 15.224 507.789 14.296 511.565 13.72C515.341 13.08 518.765 12.76 521.837 12.76C525.805 12.76 529.261 13.272 532.205 14.296C535.149 15.256 537.581 16.6 539.501 18.328C541.485 19.992 542.957 21.976 543.917 24.28C544.877 26.584 545.357 29.048 545.357 31.672C545.357 34.616 544.781 37.496 543.629 40.312C542.541 43.128 540.685 45.912 538.061 48.664C535.501 51.352 532.141 54.072 527.981 56.824C523.821 59.576 518.669 62.36 512.525 65.176H546.701V79H499.853V66.52Z" fill="white"/>
<path d="M36 39L44 47L36 55L28 47L36 39Z" fill="white"/>
</svg>
