<svg width="24" height="24" viewBox="0 0 24 24" fill="none" xmlns="http://www.w3.org/2000/svg">
<g clip-path="url(#clip0_2_542)">
<rect width="24" height="24" rx="12" fill="white"/>
<g clip-path="url(#clip1_2_542)">
<path fill-rule="evenodd" clip-rule="evenodd" d="M-7.0625 0H30.0625V25H-7.0625V0Z" fill="#199D00"/>
<path fill-rule="evenodd" clip-rule="evenodd" d="M2.29126 7.08494C2.25259 7.67088 2.19458 8.69627 2.69248 8.80369C3.28706 8.86229 2.95835 7.78807 3.17588 7.59275C3.21455 7.4951 3.28706 7.4951 3.29189 7.61717V8.53025C3.29189 8.82322 3.48525 8.91111 3.63027 8.96971C3.78496 8.95994 3.89131 8.96971 3.94932 9.11619L4.02666 10.6933C4.02666 10.6933 4.38437 10.8008 4.40371 9.80955C4.41821 9.22361 4.28769 8.74021 4.36504 8.62791C4.36504 8.51561 4.51006 8.51072 4.60674 8.56443C4.76143 8.67186 4.8291 8.80857 5.0708 8.75975C5.43818 8.65232 5.66055 8.47166 5.66538 8.18846C5.65812 7.91014 5.60079 7.63549 5.49619 7.37791C5.51553 7.32908 5.42851 7.19725 5.44785 7.14842C5.51069 7.25584 5.61221 7.24607 5.63154 7.14842C5.5687 6.94334 5.47202 6.74314 5.31733 6.66014C5.18682 6.54295 4.99346 6.56248 4.93061 6.80662C4.89194 7.08494 5.02729 7.41209 5.22549 7.68553C5.26899 7.78807 5.327 7.96385 5.30283 8.1201C5.19648 8.18357 5.09014 8.15428 4.99829 8.0615C4.99829 8.0615 4.70825 7.84178 4.70825 7.78807C4.78559 7.29002 4.72275 7.23143 4.67925 7.08982C4.65024 6.89939 4.5584 6.83592 4.48589 6.70896C4.41338 6.63084 4.3167 6.63084 4.26836 6.70896C4.13784 6.93357 4.20068 7.41697 4.29253 7.6367C4.3602 7.83689 4.46172 7.96385 4.41338 7.96385C4.37471 8.07615 4.29253 8.04686 4.22969 7.91502C4.15894 7.63757 4.12481 7.35189 4.12817 7.06541C4.104 6.8408 4.075 6.36228 3.92515 6.23533C3.83813 6.11814 3.70762 6.17674 3.65928 6.28416C3.64651 6.50229 3.65136 6.72112 3.67378 6.93846C3.77046 7.29979 3.8043 7.62205 3.85264 7.98826C3.86714 8.48143 3.57226 8.2031 3.58677 7.95408C3.65018 7.64102 3.64523 7.31775 3.57226 7.00682C3.52392 6.87986 3.47075 6.85057 3.3499 6.8701C3.25806 6.8701 3.02119 7.12889 2.95351 7.56834C2.95351 7.56834 2.89551 7.79295 2.87134 7.99314C2.8375 8.21775 2.69248 8.38377 2.58613 7.96385C2.49912 7.65623 2.44111 6.90916 2.29609 7.08494H2.29126Z" fill="white"/>
<path fill-rule="evenodd" clip-rule="evenodd" d="M3.91064 9.48242L2.36377 10.2344C2.37827 9.87793 3.0937 9.23828 3.58677 9.2334C3.90098 9.23828 3.82363 9.35547 3.90581 9.48242H3.91064Z" fill="white"/>
<path fill-rule="evenodd" clip-rule="evenodd" d="M3.6351 9.97071C2.82299 12.0947 5.54453 12.3926 5.84907 10.0586C5.87807 9.96095 5.99409 9.86818 6.01342 10.0244C5.95058 12.1387 3.90581 12.2803 3.55776 11.6162C3.47588 11.3877 3.43496 11.1463 3.43691 10.9033C3.38857 10.4883 3.17104 10.6494 3.1372 11.0596C3.10337 11.2891 3.11303 11.3526 3.11303 11.5723C3.21938 13.2422 5.8539 12.5244 6.28413 11.1475C6.51132 10.3858 6.24546 9.82423 6.36631 9.82423C6.62734 10.1074 6.99472 9.86329 7.0769 9.76564C7.11074 9.71681 7.19775 9.68263 7.25576 9.74611C7.45879 9.89259 7.8165 9.82423 7.89384 9.56544C7.93735 9.30665 7.97119 9.04298 7.98086 8.77443C7.81167 8.82325 7.69082 8.85743 7.67631 8.93068L7.64248 9.15529C7.62797 9.22853 7.48779 9.22853 7.47812 9.13575C7.41528 8.84279 7.15424 8.80861 6.99472 9.25782C6.89321 9.34572 6.69985 9.36525 6.68051 9.23341C6.70468 8.93068 6.58383 8.89161 6.34214 9.03322L6.1101 7.26564C6.20678 7.26564 6.30346 7.33888 6.39531 7.22169C6.29863 6.90431 6.0811 6.25978 5.96025 6.21095C5.90708 6.14259 5.85874 6.18654 5.78139 6.20607C5.65571 6.24513 5.53969 6.35255 5.57837 6.56739C5.72339 7.48536 5.82007 8.18361 5.96992 9.10646C5.99409 9.209 5.90708 9.3506 5.79106 9.33595C5.5977 9.20411 5.54936 8.93556 5.21098 8.94532C4.96928 8.94532 4.69858 9.21388 4.66474 9.46779C4.62124 9.67286 4.60673 9.89259 4.66474 10.0684C4.83393 10.2734 5.03696 10.2539 5.21582 10.21C5.36084 10.1465 5.48169 10 5.53486 10.0342C5.5687 10.0781 5.53969 10.5664 4.8436 10.9375C4.42304 11.1328 4.08466 11.1719 3.90581 10.8252C3.79463 10.6055 3.91548 9.78029 3.6351 9.97071Z" fill="white"/>
<path fill-rule="evenodd" clip-rule="evenodd" d="M7.10107 7.81254C7.26059 7.75395 8.03403 6.85551 8.03403 6.85551L7.91801 6.75785C7.87451 6.72367 7.87934 6.68461 7.91801 6.65043C8.11137 6.53324 8.04853 6.2891 7.95185 6.17192C7.88622 6.1396 7.81402 6.12321 7.741 6.12406C7.66799 6.1249 7.59618 6.14296 7.5313 6.1768C7.39594 6.30863 7.36694 6.5186 7.47329 6.64555C7.5748 6.69438 7.67632 6.8018 7.60864 6.86039C7.2896 7.20219 6.42431 7.79301 6.52583 7.81254C6.54516 7.84184 7.08174 7.84184 7.09624 7.81254H7.10107ZM2.41211 10.9864C2.12207 11.4551 2.0979 12.1534 2.25742 12.3633C2.34443 12.461 2.48462 12.5049 2.58613 12.4707C2.76982 12.3926 2.852 12.0166 2.80849 11.8848C2.74565 11.7871 2.69731 11.7725 2.63447 11.8506C2.50879 12.1143 2.45561 11.9336 2.44111 11.7871C2.42726 11.5391 2.44022 11.2902 2.47978 11.045C2.51362 10.8399 2.47978 10.8985 2.41211 10.9864ZM14.8403 10.2393C14.5599 9.62406 14.1684 9.0186 14.0475 8.7891C13.6708 8.18756 13.2709 7.60117 12.8487 7.03129C12.549 6.66996 13.3417 7.18266 12.752 6.46L12.3218 6.09379C12.2251 6.02543 11.9931 5.89848 11.9544 6.10356C11.9351 6.2891 11.9447 6.38676 11.9737 6.53813C11.9979 6.63578 12.1429 6.80668 12.2154 6.90434C13.2065 8.23024 14.0769 9.64387 14.8161 11.128C14.9418 11.0645 14.9128 10.3418 14.8403 10.2393Z" fill="white"/>
<path fill-rule="evenodd" clip-rule="evenodd" d="M13.6076 12.2802C13.5496 12.3437 13.743 12.6123 13.9943 12.6123C14.4101 12.5635 14.7774 12.3291 15.1158 11.7041C15.2533 11.4962 15.341 11.2588 15.372 11.0107C15.413 9.82537 15.3189 8.6392 15.0917 7.47556C15.0771 7.3779 15.0917 7.26072 15.1013 7.23142C15.1303 7.19724 15.2222 7.23142 15.2705 7.14841C15.343 7.07517 15.0771 6.46482 14.9321 6.23533C14.8838 6.1279 14.8596 6.05954 14.7726 6.24509C14.6676 6.44983 14.6176 6.6788 14.6276 6.90915C14.8258 8.30076 14.8886 9.51658 15.0143 10.9082C15.0288 11.0449 15.0095 11.2402 14.9176 11.3183C14.5529 11.7286 14.1065 12.0563 13.6076 12.2802ZM19.2392 12.2754C18.9395 12.4511 18.9395 12.6513 19.1812 12.6562C19.5969 12.6074 20.09 12.5732 20.4284 12.0556C20.5479 11.8119 20.617 11.546 20.6314 11.2744C20.6923 10.1073 20.616 8.93703 20.4042 7.78806C20.3945 7.6904 20.351 7.46091 20.3655 7.43161C20.3945 7.36326 20.5299 7.4365 20.5782 7.35837C20.6459 7.28513 20.2253 6.73826 20.0755 6.50388C20.0271 6.39646 20.0078 6.3281 19.916 6.51365C19.8186 6.72027 19.7882 6.95262 19.829 7.17771C20.0513 8.69138 20.2157 9.82419 20.2495 11.1621C20.2302 11.289 20.2253 11.3574 20.1673 11.5185C20.0368 11.6845 19.8918 11.8994 19.7564 12.0019C19.6211 12.0996 19.3311 12.1972 19.2392 12.2754Z" fill="white"/>
<path fill-rule="evenodd" clip-rule="evenodd" d="M19.4616 10.9229C19.4616 10.5664 19.4664 10.2637 19.4567 9.99512C19.4536 9.76768 19.4043 9.54332 19.3117 9.33594C19.2247 9.13575 19.2779 8.97462 19.2344 8.75977C19.1957 8.54493 19.2054 8.22266 19.1474 7.97364C19.128 7.87598 19.0797 7.5586 19.0942 7.52442C19.1184 7.45606 19.2102 7.52442 19.2585 7.4463C19.3262 7.37305 19.0168 6.56739 18.8622 6.3379C18.809 6.23536 18.7026 6.26954 18.5818 6.43555C18.4609 6.54786 18.5044 6.79688 18.5528 7.03614C18.8477 8.61329 19.0749 10.044 19.0265 11.543C19.0072 11.6699 19.4616 11.1621 19.4616 10.9229ZM17.2524 8.96973C17.0639 8.95997 16.6724 8.59376 16.5564 8.3838C16.5374 8.33248 16.5293 8.27771 16.5326 8.22303C16.5359 8.16835 16.5506 8.11499 16.5757 8.06641C16.6482 8.01759 16.7545 7.96876 16.8367 8.01759C16.8367 8.01759 16.9189 8.13477 16.9044 8.14942C17.0011 8.19825 17.0494 8.17384 17.0591 8.12989C17.0639 8.05665 17.0301 8.0127 17.0301 7.93458C17.0736 7.70997 17.3201 7.67579 17.4168 7.81739C17.4845 7.90528 17.5135 8.08595 17.5183 8.20802C17.5183 8.27149 17.4216 8.19825 17.3588 8.20802C17.3056 8.22755 17.2911 8.29591 17.2863 8.3545C17.2766 8.51563 17.2573 8.77442 17.2524 8.96485V8.96973ZM13.7816 11.3135C13.83 10.835 13.7623 9.98048 13.7575 9.69727C13.7316 8.96893 13.6719 8.24222 13.5786 7.51954C13.5206 7.10938 13.743 7.56348 13.714 7.32423C13.6415 6.91895 13.4191 6.64063 13.1532 6.27442C13.0711 6.15235 13.071 6.12794 12.9405 6.30372C12.7955 6.63087 12.9212 6.86036 12.9599 7.11915C13.1484 7.95899 13.2596 8.73048 13.3127 9.49708C13.3684 10.2934 13.3749 11.0925 13.3321 11.8897C13.4771 11.8945 13.6995 11.6602 13.7816 11.3135Z" fill="white"/>
<path fill-rule="evenodd" clip-rule="evenodd" d="M20.1045 10.5469C19.771 9.98045 19.273 9.37498 19.1377 9.14549C18.6895 8.5132 18.2186 7.89756 17.7262 7.29979C17.3153 6.86033 17.9195 7.22654 17.6488 6.88475C17.4216 6.63572 17.3588 6.55272 17.1606 6.40135C17.0639 6.33787 17.0059 6.2158 16.9672 6.42576C16.9518 6.60763 16.9486 6.79034 16.9576 6.97264C16.9576 7.05565 17.0446 7.21678 17.1219 7.31444C18.1226 8.55955 19.2199 9.82908 20.0997 11.4258C20.2253 11.3623 20.1818 10.6445 20.0997 10.5469H20.1045Z" fill="white"/>
<path fill-rule="evenodd" clip-rule="evenodd" d="M5.05146 9.50689C5.02729 9.55084 4.97412 9.60455 4.99345 9.65826C5.02729 9.70709 5.06113 9.72174 5.11914 9.72174C5.17231 9.72174 5.24965 9.73639 5.26416 9.70709C5.29316 9.67291 5.3125 9.60943 5.29316 9.54596C5.23515 9.39947 5.08046 9.45807 5.05146 9.50689Z" fill="#1BA400"/>
<path fill-rule="evenodd" clip-rule="evenodd" d="M16.247 17.7002C16.6917 17.7197 16.9817 17.7246 17.3733 17.7685L17.8374 17.7197C18.3498 17.6709 18.3691 18.457 18.3691 18.457C18.3691 18.9209 18.1902 18.9453 17.963 18.9941C17.8325 19.0137 17.7697 18.916 17.6972 18.8183C17.5878 18.8537 17.4714 18.8605 17.3588 18.8379C17.1703 18.8281 16.9866 18.8281 16.8029 18.8135C16.6095 18.7988 16.5032 18.8379 16.305 18.8183C16.2663 18.8818 16.2083 18.9697 16.0923 18.9453C15.9956 18.9307 15.8748 18.6523 15.9086 18.4326C15.9811 18.2764 15.9569 18.3301 15.9569 18.2617C14.1394 18.2129 12.3073 18.1299 10.5284 18.1543C9.13618 18.1592 7.76333 18.2178 6.38564 18.2764C5.65088 18.2666 5.09013 18.1494 4.70341 17.5781C4.74209 17.5781 6.579 17.6807 7.11557 17.6465C8.10654 17.6367 9.01533 17.5537 10.0256 17.5244C12.0172 17.5586 13.9943 17.5586 15.9859 17.7002C15.7926 17.5683 15.7926 17.2607 16.0826 17.1826C16.1068 17.1631 16.1213 17.334 16.1648 17.3291C16.4017 17.3144 16.2953 17.6367 16.247 17.7002ZM8.24189 6.60644C7.94218 7.47558 8.41591 8.43261 8.74463 8.33983C8.98632 8.43749 9.13134 7.97851 9.22802 7.48046C9.30053 7.33886 9.34887 7.32421 9.38271 7.39745C9.37304 8.06151 9.43105 8.21288 9.60024 8.41308C9.97729 8.70604 10.2915 8.45214 10.3157 8.42772L10.6057 8.12987C10.6734 8.05663 10.7604 8.05663 10.8522 8.11522C10.9441 8.19823 10.9296 8.33983 11.1229 8.43749C11.2873 8.50585 11.6305 8.45702 11.7127 8.31542C11.819 8.12499 11.848 8.06151 11.8964 7.99315C11.9737 7.89061 12.1042 7.93456 12.1042 7.96874C12.0897 8.02733 12.0124 8.08104 12.0656 8.18847C12.1623 8.25683 12.1816 8.21288 12.2348 8.19823C12.4281 8.10058 12.5731 7.68065 12.5731 7.68065C12.578 7.5244 12.491 7.53417 12.433 7.57323L12.2831 7.67577C12.1864 7.69042 12.0076 7.7539 11.9157 7.61229C11.8239 7.44628 11.8239 7.20702 11.7562 7.03612C11.7562 7.02636 11.6305 6.76757 11.7465 6.75292C11.8045 6.76269 11.9254 6.79686 11.9447 6.69433C12.0027 6.59179 11.819 6.3037 11.6885 6.15722C11.5773 6.03515 11.4227 6.0205 11.2728 6.14745C11.1665 6.24511 11.181 6.35253 11.1616 6.45507C11.1433 6.52855 11.1425 6.60538 11.1593 6.67924C11.1761 6.75309 11.21 6.82186 11.2583 6.87987C11.3646 7.08495 11.5532 7.35351 11.4903 7.73436C11.4903 7.73436 11.3791 7.91015 11.1858 7.88573C11.1036 7.87108 10.9731 7.8369 10.9054 7.30956C10.8522 6.91893 10.9151 6.36229 10.7507 6.10351C10.6879 5.94237 10.6444 5.79101 10.4994 6.05956C10.4607 6.16698 10.2915 6.32811 10.4124 6.65526C10.5267 6.95007 10.5601 7.2706 10.509 7.583C10.4365 7.69042 10.422 7.7246 10.3302 7.82714C10.2045 7.97362 10.0643 7.93456 9.95796 7.88085C9.86128 7.81737 9.78393 7.78319 9.73559 7.56347C9.74526 7.22167 9.7646 6.66015 9.70176 6.54296C9.60991 6.35741 9.46006 6.42577 9.39721 6.48436C9.10966 6.80704 8.91711 7.20448 8.84131 7.63183C8.75429 7.91503 8.66245 7.83202 8.59961 7.71972C8.44492 7.57323 8.43042 6.41601 8.24189 6.60644Z" fill="white"/>
<path fill-rule="evenodd" clip-rule="evenodd" d="M9.15068 8.50101C9.29087 8.40335 9.22802 8.33499 9.43105 8.54007C9.69311 9.00843 9.84526 9.53129 9.87578 10.0684C9.86611 10.1953 9.95312 10.2735 9.99663 10.2442C10.016 9.95121 10.7266 9.54105 11.3791 9.48246C11.4758 9.45804 11.4275 9.26761 11.442 9.16996C11.4033 8.80375 11.645 8.47171 11.9834 8.4473C12.4475 8.51566 12.6021 8.76468 12.6118 9.14066C12.5586 9.87308 11.8045 9.99515 11.384 10.0537C11.3211 10.0782 11.2921 10.1075 11.384 10.1416L13.1532 10.1514L13.2451 10.2002C13.2547 10.2491 13.2161 10.21 13.1484 10.3272C13.0511 10.4999 12.9902 10.6911 12.9695 10.8887C12.4426 11.0645 11.8964 11.1328 11.3453 11.2061C11.152 11.3037 11.0553 11.4356 11.0939 11.5821C11.1616 11.7432 11.587 11.9092 11.587 11.9141C11.6692 11.9629 11.761 12.085 11.5628 12.334C10.7024 12.295 10.0305 11.9239 9.79843 11.4014C9.73076 11.3477 9.65342 11.4014 9.60508 11.4698C9.2667 11.9092 8.93799 12.2998 8.36274 12.5147C8.02436 12.6026 7.67148 12.461 7.50713 12.2364C7.39594 12.1045 7.40078 11.9629 7.36211 11.9336C7.17358 12.0166 5.57837 12.7002 5.78139 12.378C6.16811 11.9629 6.84487 11.6504 7.43462 11.2403C7.47812 11.0987 7.55547 10.6299 7.7875 10.4786C7.802 10.4786 7.75366 10.752 7.75849 10.8692C7.75849 10.9668 7.74883 11.001 7.76816 10.9766C7.81167 10.9522 8.5271 10.3809 8.58994 10.2051C8.65761 10.1075 8.60444 9.85355 8.60444 9.84378C8.46909 9.49222 8.28056 9.46292 8.21289 9.28714C8.15005 9.05765 8.17905 8.79398 8.30957 8.71585C8.42558 8.61332 8.56093 8.62308 8.69145 8.74027C8.83647 8.8721 8.96216 9.13089 9.00083 9.32132C8.97666 9.39457 8.80747 9.2725 8.75913 9.30668C8.85217 9.41468 8.91404 9.54643 8.93798 9.68753C9.03466 10.0879 9.00566 10.2442 8.90898 10.503C8.58994 11.1817 8.18388 11.3819 7.82617 11.6358C7.8165 11.6358 7.81167 11.8067 7.94218 11.8994C7.99052 11.9483 8.17905 11.9727 8.39658 11.8994C8.86131 11.6388 9.23709 11.2422 9.47456 10.7618C9.51563 10.3962 9.47601 10.026 9.35854 9.67777C9.21836 9.35062 9.054 8.88675 9.054 8.87699C9.04917 8.67191 9.06367 8.60355 9.15068 8.50101ZM4.51972 6.61625C4.72275 6.7139 5.10947 6.66996 5.09013 6.33793L5.08047 6.18656C5.04179 6.0889 4.92578 6.11332 4.90161 6.21097C4.89194 6.24515 4.91611 6.29886 4.88711 6.31351C4.86777 6.33304 4.80493 6.32328 4.80493 6.2305C4.80493 6.20121 4.78559 6.17191 4.77109 6.15238C4.76142 6.14261 4.75175 6.14261 4.72758 6.14261C4.69858 6.14261 4.69858 6.1475 4.68408 6.17191C4.67925 6.19632 4.66958 6.22074 4.66958 6.25003C4.66958 6.28421 4.65024 6.29398 4.63091 6.29886C4.6019 6.29886 4.60674 6.29886 4.58257 6.2891C4.5729 6.27445 4.5584 6.26957 4.5584 6.24027L4.54389 6.16214C4.53423 6.1475 4.51489 6.13773 4.49555 6.13285C4.38437 6.13285 4.3747 6.26468 4.38437 6.31351C4.3747 6.32328 4.36987 6.55277 4.51972 6.61625Z" fill="white"/>
<path fill-rule="evenodd" clip-rule="evenodd" d="M10.4897 9.165C10.6927 9.26265 11.181 9.20894 11.0601 8.89156L11.0504 8.73531C11.0069 8.63765 10.8957 8.66207 10.8716 8.76461C10.8619 8.7939 10.8861 8.84761 10.8522 8.86226C10.8377 8.88179 10.7701 8.87203 10.7749 8.78414C10.7749 8.75484 10.7556 8.72066 10.7411 8.70113C10.7266 8.69625 10.7217 8.69136 10.6927 8.69136C10.6686 8.69136 10.6686 8.70113 10.654 8.72554C10.6444 8.74996 10.6395 8.77437 10.6395 8.80367C10.6347 8.83297 10.6202 8.84273 10.596 8.8525C10.5719 8.8525 10.5767 8.8525 10.5574 8.83785C10.5429 8.8232 10.5284 8.81832 10.5284 8.7939L10.5139 8.71578C10.5042 8.70113 10.4849 8.69136 10.4655 8.68648C10.3543 8.68648 10.3447 8.81343 10.3495 8.86226C10.3447 8.87203 10.3398 9.1064 10.4945 9.165H10.4897ZM13.9702 8.11031C14.1732 8.20797 14.5551 8.16402 14.5406 7.83687L14.5309 7.68062C14.4874 7.58297 14.3762 7.60738 14.352 7.70504C14.3424 7.73922 14.3665 7.79293 14.3327 7.81246C14.3182 7.82711 14.2505 7.81734 14.2554 7.72457C14.2554 7.69527 14.236 7.66597 14.2215 7.64644C14.207 7.63668 14.2022 7.63668 14.1732 7.63668C14.149 7.63668 14.149 7.64644 14.1345 7.67086L14.12 7.7441C14.1152 7.77828 14.1007 7.79293 14.0765 7.79293C14.0523 7.79293 14.0572 7.79293 14.0378 7.78316C14.0233 7.76851 14.0088 7.76363 14.0088 7.73922C14.0088 7.7148 14.004 7.67574 13.9943 7.65621C13.9847 7.64156 13.9653 7.63668 13.946 7.63179C13.8348 7.63179 13.8251 7.75875 13.83 7.80758C13.8251 7.81734 13.8203 8.04683 13.975 8.11031H13.9702ZM15.7732 10.7617C15.4204 11.167 15.575 11.8359 15.6572 11.9824C15.7732 12.2168 15.8651 12.3681 16.0923 12.4853C16.3001 12.6367 16.4645 12.5439 16.5515 12.4365C16.7594 12.2168 16.7642 11.6552 16.8609 11.5478C16.9286 11.3427 17.1026 11.3769 17.1848 11.4697C17.2616 11.5799 17.3647 11.6689 17.4845 11.7285C17.6778 11.8994 17.9099 11.9336 18.1419 11.7773C18.2966 11.6845 18.3981 11.5722 18.4899 11.3427C18.5866 11.0693 18.5383 9.79976 18.5141 9.04781L18.3111 7.99801C18.3111 7.98824 18.2869 7.49996 18.2627 7.38765C18.2627 7.33883 18.2482 7.32418 18.2966 7.32906C18.3498 7.37789 18.3546 7.37789 18.3933 7.39254C18.4416 7.4023 18.4899 7.30953 18.4561 7.2314L17.9727 6.3232C17.934 6.28414 17.8809 6.24508 17.818 6.33297C17.7809 6.36687 17.7514 6.40835 17.7314 6.45465C17.7114 6.50094 17.7014 6.55101 17.702 6.60152C17.7165 6.81636 17.7503 7.03609 17.7648 7.25093L17.9582 8.35445C18.021 9.1357 18.0355 9.78023 18.0984 10.5664C18.0887 10.8984 17.9872 11.1865 17.8905 11.2304C17.8905 11.2304 17.7455 11.3134 17.6488 11.2207C17.5763 11.1914 17.2911 10.7373 17.2911 10.7373C17.1461 10.6054 17.0494 10.6396 16.9479 10.7373C16.6579 11.0205 16.5322 11.538 16.334 11.8994C16.2856 11.9824 16.1406 12.0459 15.9859 11.8945C15.5895 11.3427 15.8216 10.5615 15.7732 10.7617ZM14.062 6.18648C14.2457 6.25972 14.3714 6.6357 14.3327 6.82125C14.294 7.04097 14.1974 7.28511 14.1297 7.25582C14.0523 7.22652 14.178 7.03121 14.1055 6.82613C14.0668 6.68941 13.8155 6.44527 13.8445 6.37691C13.7961 6.22554 13.9508 6.15718 14.062 6.1816V6.18648Z" fill="white"/>
<path fill-rule="evenodd" clip-rule="evenodd" d="M16.363 10.9863C16.3968 10.5371 16.334 10.2637 16.3243 9.99998C16.3146 9.73631 16.0294 7.72459 15.9714 7.52928C15.8989 7.14842 16.247 7.48045 16.2083 7.25584C16.0875 6.9824 15.7926 6.57713 15.7007 6.33787C15.6427 6.24021 15.6669 6.14256 15.5412 6.31346C15.433 6.61309 15.3949 6.93398 15.43 7.25096C15.7297 8.8281 16.0343 10.1367 15.9859 11.6357C16.131 11.6357 16.2905 11.3086 16.363 10.9863ZM19.4761 6.82127C19.6453 6.90428 19.7419 7.37303 19.7226 7.50486C19.6888 7.749 19.6018 8.01267 19.5389 7.9785C19.4664 7.9492 19.5534 7.61717 19.5196 7.51463C19.4809 7.36814 19.2537 7.10447 19.2779 7.02635C19.2295 6.86033 19.3746 6.79197 19.4761 6.82127ZM7.11558 10.1367C7.2751 10.2002 7.37178 10.542 7.35728 10.6396C7.31861 10.8203 7.23643 11.0156 7.17359 10.9863C7.11074 10.9668 7.18809 10.7226 7.15908 10.6445C7.14458 10.4638 6.92222 10.3662 6.92705 10.2881C6.88838 10.1416 7.02373 10.1172 7.12041 10.1367H7.11558Z" fill="white"/>
<path fill-rule="evenodd" clip-rule="evenodd" d="M10.9634 10.6543C11.1665 10.6641 11.268 10.8301 11.0794 10.8984C10.8861 10.9619 10.7072 11.0156 10.7024 11.2891C10.7749 11.6797 10.6057 11.543 10.509 11.4941C10.393 11.4062 10.0643 11.2012 10.016 10.7617C10.0111 10.6592 10.0933 10.5664 10.2238 10.5664C10.4172 10.6201 10.7072 10.625 10.9634 10.6543Z" fill="#1B9D00"/>
<path fill-rule="evenodd" clip-rule="evenodd" d="M2.8665 6.07425C3.09854 6.14261 3.11304 6.49418 3.09854 6.59672C3.0647 6.78226 2.98252 6.98246 2.92451 6.95804C2.85684 6.93363 2.92451 6.67972 2.89067 6.6016C2.85684 6.49418 2.65864 6.2891 2.67798 6.2305C2.63447 6.10843 2.77466 6.04984 2.8665 6.07425ZM7.5023 7.71488C7.3186 7.81254 7.25093 8.1055 7.36211 8.28129C7.46846 8.42777 7.63281 8.37406 7.65215 8.37406C7.83101 8.39359 7.93735 8.03715 7.93735 8.03715C7.93735 8.03715 7.94219 7.93949 7.73433 8.12992C7.64248 8.14457 7.63765 8.11039 7.61348 8.06156C7.59135 7.9686 7.59983 7.87089 7.63765 7.78324C7.67149 7.69535 7.60381 7.65629 7.5023 7.71488ZM8.85581 5.93754C8.75913 6.00101 8.58027 6.19144 8.57544 6.40629C8.57061 6.52836 8.54644 6.52836 8.62378 6.6016C8.68662 6.68949 8.7398 6.68461 8.85581 6.62113C8.88472 6.60275 8.90953 6.5785 8.92867 6.54992C8.94781 6.52134 8.96086 6.48906 8.96699 6.45511C8.996 6.31839 8.82197 6.52347 8.80264 6.36722C8.76397 6.22074 8.87515 6.16215 8.98149 6.02543C8.98149 5.92777 8.98149 5.86429 8.85098 5.93754H8.85581ZM9.93862 6.13285C9.89601 6.31065 9.87011 6.49212 9.86128 6.67484C9.83228 6.81156 10.0063 6.87015 10.0788 6.69437C10.1948 6.37699 10.1948 6.24027 10.2045 6.10843C10.1707 5.89847 10.0305 5.90336 9.93862 6.13285ZM16.8029 9.66312C16.8222 9.63871 17.7697 8.96 17.7697 8.96C17.8664 8.92582 17.8422 9.31156 17.7987 9.30668C17.5048 9.59272 17.1669 9.82855 16.798 10.0049C16.7497 10.0391 16.7062 9.74613 16.798 9.66312H16.8029ZM17.6585 9.65336C17.8277 9.73636 17.8954 10.2295 17.876 10.3614C17.876 10.625 17.7165 10.8301 17.6488 10.8008C17.5812 10.7666 17.6585 10.4737 17.6247 10.3711C17.586 10.2246 17.4458 9.95609 17.47 9.87797C17.4216 9.71195 17.557 9.62406 17.6633 9.65336H17.6585ZM12.0511 11.7725C12.1295 11.68 12.2207 11.5995 12.3218 11.5332C12.4185 11.4844 12.5055 11.5723 12.5006 11.5674C12.5151 11.6651 12.4426 11.7481 12.4668 11.875C12.4861 11.9239 12.5006 11.9825 12.5925 11.9629C12.7423 11.8409 12.8825 11.8311 13.0275 11.8262C13.1484 11.8311 13.1532 12.0313 13.0759 12.0313C12.8003 12.0899 12.6795 12.168 12.4813 12.2412C12.3846 12.2998 12.3073 12.2266 12.3073 12.2217C12.3073 12.2168 12.2541 12.168 12.2879 12.0411C12.2976 11.9434 12.2589 11.8848 12.1719 11.8946C12.1139 11.9336 12.0559 11.9532 12.0269 11.8799C12.0124 11.8311 12.0076 11.8018 12.0511 11.7725ZM18.6543 12.0362C18.693 12.085 18.722 12.1338 18.6495 12.2217L18.4706 12.378C18.4416 12.4268 18.4223 12.5147 18.5189 12.5391C18.693 12.5879 19.099 12.3194 19.099 12.3145C19.1667 12.2657 19.1474 12.168 19.1377 12.168C19.099 12.1241 19.012 12.1534 18.954 12.1436C18.925 12.1436 18.8332 12.1338 18.8767 12.0459C18.9091 12.0028 18.9352 11.9551 18.954 11.9043C18.9782 11.8457 18.954 11.8067 18.8573 11.7725C18.7558 11.753 18.7123 11.7627 18.6011 11.7725C18.5431 11.7823 18.5238 11.8116 18.5093 11.8848C18.5141 11.9971 18.5818 11.9922 18.6543 12.0313V12.0362Z" fill="white"/>
<path fill-rule="evenodd" clip-rule="evenodd" d="M12.0849 9.26275C12.0607 9.31158 11.9737 9.31158 11.8916 9.26275C11.8094 9.21392 11.761 9.13579 11.79 9.09185C11.819 9.0479 11.9012 9.0479 11.9834 9.09185C12.0656 9.13579 12.1091 9.2188 12.0849 9.26275ZM7.78267 6.64556C7.73433 6.66021 7.66665 6.61626 7.63765 6.5479C7.60864 6.47954 7.62314 6.42095 7.67148 6.4063C7.71982 6.39165 7.78267 6.44048 7.8165 6.50396C7.85034 6.56744 7.83101 6.63579 7.77783 6.65044L7.78267 6.64556Z" fill="#259F00"/>
<path fill-rule="evenodd" clip-rule="evenodd" d="M16.2953 18.3105C16.7497 18.3301 17.1751 18.3105 17.6247 18.335C17.7068 18.4082 17.6488 18.5791 17.5957 18.5693L17.2186 18.5547C17.2138 18.4082 16.8464 18.4326 16.8561 18.5596C16.6579 18.584 16.479 18.5547 16.276 18.5449C16.218 18.4717 16.2276 18.3398 16.2953 18.3105Z" fill="#209000"/>
</g>
</g>
<defs>
<clipPath id="clip0_2_542">
<rect width="24" height="24" rx="12" fill="white"/>
</clipPath>
<clipPath id="clip1_2_542">
<rect width="33" height="25" fill="white" transform="translate(-5)"/>
</clipPath>
</defs>
</svg>
