<svg width="32" height="24" viewBox="0 0 32 24" fill="none" xmlns="http://www.w3.org/2000/svg">
<g clip-path="url(#clip0_3_4688)">
<path fill-rule="evenodd" clip-rule="evenodd" d="M-0.000610352 0.0012207H32.0056V24.0012H-0.000610352V0.0012207Z" fill="white"/>
<path fill-rule="evenodd" clip-rule="evenodd" d="M3.50742 7.29004L6.83634 2.29822L7.66828 2.85309L4.33935 7.84491L3.50742 7.29004ZM4.75532 8.12234L8.08425 3.13052L8.91619 3.68539L5.58726 8.67721L4.75532 8.12234ZM6.00323 8.95465L9.33216 3.96282L10.1641 4.51769L6.83517 9.50951L6.00323 8.95465Z" fill="black"/>
<path fill-rule="evenodd" clip-rule="evenodd" d="M3.50742 7.29004L6.83634 2.29822L7.66828 2.85309L4.33935 7.84491L3.50742 7.29004ZM4.75532 8.12234L8.08425 3.13052L8.91619 3.68539L5.58726 8.67721L4.75532 8.12234ZM6.00323 8.95465L9.33216 3.96282L10.1641 4.51769L6.83517 9.50951L6.00323 8.95465Z" fill="black"/>
<path fill-rule="evenodd" clip-rule="evenodd" d="M23.0588 16.7234L27.2186 19.4976Z" fill="black"/>
<path d="M23.0588 16.7234L27.2186 19.4976" stroke="white" stroke-width="1.25"/>
<path fill-rule="evenodd" clip-rule="evenodd" d="M10.9955 8.67798C11.8784 7.35409 13.2511 6.43517 14.8115 6.12336C16.372 5.81155 17.9924 6.1324 19.3162 7.01532C20.6401 7.89824 21.5591 9.27092 21.8709 10.8314C22.1827 12.3918 21.8618 14.0122 20.9789 15.3361L10.9955 8.67798Z" fill="#CD2E3A"/>
<path fill-rule="evenodd" clip-rule="evenodd" d="M10.9954 8.6782C10.1125 10.0021 9.79168 11.6225 10.1035 13.1829C10.4153 14.7434 11.3342 16.1161 12.6581 16.999C13.982 17.8819 15.6024 18.2028 17.1629 17.891C18.7233 17.5791 20.096 16.6602 20.9789 15.3363C21.4204 14.6744 21.5808 13.8642 21.4249 13.084C21.269 12.3037 20.8095 11.6174 20.1476 11.1759C19.4856 10.7345 18.6754 10.574 17.8952 10.73C17.115 10.8859 16.4286 11.3453 15.9872 12.0073L10.9954 8.6782Z" fill="#0047A0"/>
<path d="M15.9872 12.007C16.9065 10.6286 16.5343 8.76593 15.1559 7.84664C13.7774 6.92734 11.9148 7.29954 10.9955 8.67796C10.0762 10.0564 10.4484 11.9191 11.8268 12.8384C13.2052 13.7577 15.0679 13.3855 15.9872 12.007Z" fill="#CD2E3A"/>
<path fill-rule="evenodd" clip-rule="evenodd" d="M6.84833 21.7195L3.5194 16.7277L4.35134 16.1728L7.68027 21.1646L6.84833 21.7195ZM8.09624 20.8872L4.76731 15.8954L5.59925 15.3405L8.92817 20.3323L8.09624 20.8872ZM9.34414 20.0549L6.01522 15.0631L6.84716 14.5082L10.1761 19.5L9.34414 20.0549Z" fill="black"/>
<path fill-rule="evenodd" clip-rule="evenodd" d="M6.84833 21.7195L3.5194 16.7277L4.35134 16.1728L7.68027 21.1646L6.84833 21.7195ZM8.09624 20.8872L4.76731 15.8954L5.59925 15.3405L8.92817 20.3323L8.09624 20.8872ZM9.34414 20.0549L6.01522 15.0631L6.84716 14.5082L10.1761 19.5L9.34414 20.0549Z" fill="black"/>
<path fill-rule="evenodd" clip-rule="evenodd" d="M6.22372 18.53L7.47166 17.6978ZM23.0708 7.29443L24.5267 6.32345ZM25.7747 5.49118L27.0226 4.65891Z" fill="black"/>
<path d="M6.22372 18.53L7.47166 17.6978M23.0708 7.29443L24.5267 6.32345M25.7747 5.49118L27.0226 4.65891" stroke="white" stroke-width="1.25"/>
</g>
<defs>
<clipPath id="clip0_3_4688">
<rect width="32" height="24" fill="white"/>
</clipPath>
</defs>
</svg>
