<svg width="24" height="24" viewBox="0 0 24 24" fill="none" xmlns="http://www.w3.org/2000/svg">
<g clip-path="url(#clip0_2_973)">
<rect width="24" height="24" rx="12" fill="white"/>
<g clip-path="url(#clip1_2_973)">
<path fill-rule="evenodd" clip-rule="evenodd" d="M-6 0H30V24H-6V0Z" fill="#E70013"/>
<path fill-rule="evenodd" clip-rule="evenodd" d="M18.0844 11.9906C18.0844 13.5956 17.4468 15.1349 16.3119 16.2698C15.177 17.4046 13.6378 18.0422 12.0328 18.0422C10.4279 18.0422 8.88861 17.4046 7.75372 16.2698C6.61884 15.1349 5.98126 13.5956 5.98126 11.9906C5.98126 10.3857 6.61884 8.84644 7.75372 7.71155C8.88861 6.57666 10.4279 5.93909 12.0328 5.93909C13.6378 5.93909 15.177 6.57666 16.3119 7.71155C17.4468 8.84644 18.0844 10.3857 18.0844 11.9906Z" fill="white"/>
<path fill-rule="evenodd" clip-rule="evenodd" d="M12.0328 16.0031C10.9918 15.9675 10.0052 15.5289 9.28134 14.7799C8.55745 14.0308 8.15283 13.0299 8.15283 11.9882C8.15283 10.9466 8.55745 9.94563 9.28134 9.19658C10.0052 8.44754 10.9918 8.00897 12.0328 7.97339C12.5859 7.97339 13.2188 8.10464 13.6453 8.4187C10.7109 8.52651 9.96563 11.0203 9.96563 12.0234C9.96563 13.0265 10.4391 15.2625 13.6453 15.5953C13.2797 15.8296 12.5859 16.0031 12.0328 16.0031Z" fill="#E70013"/>
<path fill-rule="evenodd" clip-rule="evenodd" d="M15.5672 13.6781L13.7437 13.0125L12.5391 14.5312L12.6094 12.5953L10.7906 11.9156L12.6562 11.3813L12.7359 9.44531L13.8234 11.0531L15.6891 10.5375L14.4937 12.0609L15.5672 13.6781Z" fill="#E70013"/>
</g>
</g>
<defs>
<clipPath id="clip0_2_973">
<rect width="24" height="24" rx="12" fill="white"/>
</clipPath>
<clipPath id="clip1_2_973">
<rect width="32" height="24" fill="white" transform="translate(-4)"/>
</clipPath>
</defs>
</svg>
