<svg width="36" height="27" viewBox="0 0 36 27" fill="none" xmlns="http://www.w3.org/2000/svg">
<g clip-path="url(#clip0_3_4635)">
<path d="M0 0H36V27H0V0Z" fill="white"/>
<path d="M14.9625 2.99805H36V6.0018H14.9625V2.99805ZM14.9625 8.99992H36V11.998H14.9625V8.99992ZM0 15.0018H36V17.9999H0V15.0018ZM0 20.998H36V24.0018H0V20.998Z" fill="#0038A8"/>
<path d="M7.15848 8.96481L7.65503 9.70627C5.61466 11.1828 6.86033 12.056 5.4144 12.5287C6.31372 11.651 5.27279 11.577 6.0305 9.74774" fill="#FCD116"/>
<path d="M7.15848 8.96481L7.65503 9.70627C5.61466 11.1828 6.86033 12.056 5.4144 12.5287C6.31372 11.651 5.27279 11.577 6.0305 9.74774" stroke="black" stroke-width="0.22" stroke-miterlimit="20" stroke-linecap="square"/>
<path d="M6.80355 9.17501C5.67781 11.0304 6.4161 12.0506 5.41441 12.5287" stroke="black" stroke-width="0.22" stroke-miterlimit="20"/>
<path d="M7.49812 7.49805H8.48812L7.49812 12.943L6.50812 7.49805H7.49812V12.943Z" fill="#FCD116"/>
<path d="M7.49812 7.49805H8.48812L7.49812 12.943L6.50812 7.49805H7.49812ZM7.49812 7.49805V12.943" stroke="black" stroke-width="0.22" stroke-miterlimit="20"/>
<path d="M6.22088 8.29487L6.0477 9.17027C3.56084 8.77161 3.82425 10.2699 2.46761 9.58163C3.72411 9.59695 3.04038 8.8086 4.86966 8.05089" fill="#FCD116"/>
<path d="M6.22088 8.29487L6.0477 9.17027C3.56084 8.77161 3.82425 10.2699 2.46761 9.58163C3.72411 9.59695 3.04038 8.8086 4.86966 8.05089" stroke="black" stroke-width="0.22" stroke-miterlimit="20" stroke-linecap="square"/>
<path d="M5.82131 8.19259C3.7133 8.70856 3.51397 9.95199 2.46763 9.58172" stroke="black" stroke-width="0.22" stroke-miterlimit="20"/>
<path d="M7.49813 7.49789L8.19817 8.19792L3.64794 11.3481L6.7981 6.79785L7.49813 7.49789L3.64794 11.3481Z" fill="#FCD116"/>
<path d="M7.49813 7.49789L8.19817 8.19792L3.64794 11.3481L6.7981 6.79785L7.49813 7.49789ZM7.49813 7.49789L3.64794 11.3481" stroke="black" stroke-width="0.22" stroke-miterlimit="20"/>
<path d="M6.03147 7.15839L5.29001 7.65494C3.81343 5.61457 2.94027 6.86024 2.46763 5.41431C3.34528 6.31363 3.41925 5.2727 5.24853 6.03041" fill="#FCD116"/>
<path d="M6.03147 7.15839L5.29001 7.65494C3.81343 5.61457 2.94027 6.86024 2.46763 5.41431C3.34528 6.31363 3.41925 5.2727 5.24853 6.03041" stroke="black" stroke-width="0.22" stroke-miterlimit="20" stroke-linecap="square"/>
<path d="M5.8213 6.80343C3.96587 5.67769 2.94568 6.41598 2.46762 5.41429" stroke="black" stroke-width="0.22" stroke-miterlimit="20"/>
<path d="M7.49814 7.49806V8.48805L2.05314 7.49806L7.49814 6.50806V7.49806H2.05314Z" fill="#FCD116"/>
<path d="M7.49814 7.49806V8.48805L2.05314 7.49806L7.49814 6.50806V7.49806ZM7.49814 7.49806H2.05314" stroke="black" stroke-width="0.22" stroke-miterlimit="20"/>
<path d="M6.7012 6.22067L5.82579 6.04749C6.22445 3.56063 4.72621 3.82403 5.41443 2.46739C5.39911 3.7239 6.18747 3.04016 6.94518 4.86944" fill="#FCD116"/>
<path d="M6.7012 6.22067L5.82579 6.04749C6.22445 3.56063 4.72621 3.82403 5.41443 2.46739C5.39911 3.7239 6.18747 3.04016 6.94518 4.86944" stroke="black" stroke-width="0.22" stroke-miterlimit="20" stroke-linecap="square"/>
<path d="M6.80357 5.821C6.28759 3.713 5.04416 3.51367 5.41443 2.46732" stroke="black" stroke-width="0.22" stroke-miterlimit="20"/>
<path d="M7.49815 7.49789L6.79811 8.19792L3.64795 3.64769L8.19818 6.79785L7.49815 7.49789L3.64795 3.64769Z" fill="#FCD116"/>
<path d="M7.49815 7.49789L6.79811 8.19792L3.64795 3.64769L8.19818 6.79785L7.49815 7.49789ZM7.49815 7.49789L3.64795 3.64769" stroke="black" stroke-width="0.22" stroke-miterlimit="20"/>
<path d="M7.83776 6.03129L7.34121 5.28983C9.38159 3.81325 8.13591 2.94008 9.58185 2.46744C8.68253 3.34509 9.72345 3.41907 8.96574 5.24835" fill="#FCD116"/>
<path d="M7.83776 6.03129L7.34121 5.28983C9.38159 3.81325 8.13591 2.94008 9.58185 2.46744C8.68253 3.34509 9.72345 3.41907 8.96574 5.24835" stroke="black" stroke-width="0.22" stroke-miterlimit="20" stroke-linecap="square"/>
<path d="M8.1927 5.82109C9.31843 3.96565 8.58015 2.94547 9.58184 2.46741" stroke="black" stroke-width="0.22" stroke-miterlimit="20"/>
<path d="M7.49813 7.49805H6.50813L7.49813 2.05305L8.48813 7.49805H7.49813V2.05305Z" fill="#FCD116"/>
<path d="M7.49813 7.49805H6.50813L7.49813 2.05305L8.48813 7.49805H7.49813ZM7.49813 7.49805V2.05305" stroke="black" stroke-width="0.22" stroke-miterlimit="20"/>
<path d="M8.7754 6.70123L8.94858 5.82582C11.4354 6.22448 11.172 4.72624 12.5287 5.41446C11.2722 5.39914 11.9559 6.1875 10.1266 6.94521" fill="#FCD116"/>
<path d="M8.7754 6.70123L8.94858 5.82582C11.4354 6.22448 11.172 4.72624 12.5287 5.41446C11.2722 5.39914 11.9559 6.1875 10.1266 6.94521" stroke="black" stroke-width="0.22" stroke-miterlimit="20" stroke-linecap="square"/>
<path d="M9.17497 6.80351C11.283 6.28753 11.4823 5.0441 12.5286 5.41437" stroke="black" stroke-width="0.22" stroke-miterlimit="20"/>
<path d="M7.49815 7.49821L6.79811 6.79817L11.3483 3.64802L8.19818 8.19824L7.49815 7.49821L11.3483 3.64802Z" fill="#FCD116"/>
<path d="M7.49815 7.49821L6.79811 6.79817L11.3483 3.64802L8.19818 8.19824L7.49815 7.49821ZM7.49815 7.49821L11.3483 3.64802" stroke="black" stroke-width="0.22" stroke-miterlimit="20"/>
<path d="M8.96481 7.8377L9.70627 7.34115C11.1828 9.38152 12.056 8.13585 12.5287 9.58179C11.651 8.68247 11.577 9.72339 9.74774 8.96568" fill="#FCD116"/>
<path d="M8.96481 7.8377L9.70627 7.34115C11.1828 9.38152 12.056 8.13585 12.5287 9.58179C11.651 8.68247 11.577 9.72339 9.74774 8.96568" stroke="black" stroke-width="0.22" stroke-miterlimit="20" stroke-linecap="square"/>
<path d="M9.17498 8.19267C11.0304 9.3184 12.0506 8.58011 12.5287 9.58181" stroke="black" stroke-width="0.22" stroke-miterlimit="20"/>
<path d="M7.49814 7.49804V6.50804L12.9431 7.49804L7.49814 8.48804V7.49804H12.9431Z" fill="#FCD116"/>
<path d="M7.49814 7.49804V6.50804L12.9431 7.49804L7.49814 8.48804V7.49804ZM7.49814 7.49804H12.9431" stroke="black" stroke-width="0.22" stroke-miterlimit="20"/>
<path d="M8.29508 8.77543L9.17049 8.94861C8.77182 11.4355 10.2701 11.1721 9.58184 12.5287C9.59717 11.2722 8.80881 11.9559 8.0511 10.1266" fill="#FCD116"/>
<path d="M8.29508 8.77543L9.17049 8.94861C8.77182 11.4355 10.2701 11.1721 9.58184 12.5287C9.59717 11.2722 8.80881 11.9559 8.0511 10.1266" stroke="black" stroke-width="0.22" stroke-miterlimit="20" stroke-linecap="square"/>
<path d="M8.19271 9.17509C8.70868 11.2831 9.95211 11.4824 9.58185 12.5288" stroke="black" stroke-width="0.22" stroke-miterlimit="20"/>
<path d="M7.49813 7.49821L8.19817 6.79817L11.3483 11.3484L6.7981 8.19824L7.49813 7.49821L11.3483 11.3484Z" fill="#FCD116"/>
<path d="M7.49813 7.49821L8.19817 6.79817L11.3483 11.3484L6.7981 8.19824L7.49813 7.49821ZM7.49813 7.49821L11.3483 11.3484" stroke="black" stroke-width="0.22" stroke-miterlimit="20"/>
<path d="M7.49813 9.3131C8.50053 9.3131 9.31313 8.5005 9.31313 7.4981C9.31313 6.49571 8.50053 5.68311 7.49813 5.68311C6.49574 5.68311 5.68314 6.49571 5.68314 7.4981C5.68314 8.5005 6.49574 9.3131 7.49813 9.3131Z" fill="#FCD116" stroke="black" stroke-width="0.22" stroke-miterlimit="20"/>
<path d="M8.83464 6.77223C8.71914 6.90423 8.65314 6.67323 8.24065 6.67323C7.82815 6.67323 7.76216 6.92073 7.69616 6.87123C7.63016 6.82173 8.04265 6.52473 8.17465 6.50823C8.30665 6.49173 8.68614 6.62373 8.83464 6.77223ZM8.35615 6.92073C8.47165 7.01973 8.37265 7.23423 8.25715 7.23423C8.14165 7.23423 7.92715 7.03623 8.02615 6.90423" fill="black"/>
<path d="M7.81165 7.06913C7.82815 6.87113 7.99314 6.83813 8.25714 6.83813C8.52114 6.83813 8.63664 7.03613 8.73563 7.08563C8.62014 7.08563 8.52114 6.92063 8.25714 6.92063C7.99314 6.92063 7.99314 6.92063 7.81165 7.08563M7.86114 7.11863C7.92714 7.01963 8.00964 7.21763 8.19114 7.21763C8.37264 7.21763 8.47164 7.16813 8.58714 7.08563C8.70264 7.00313 8.42214 7.28363 8.24064 7.28363C8.05914 7.28363 7.81165 7.18463 7.86114 7.11863Z" fill="black"/>
<path d="M8.42214 7.21779C8.63664 7.10229 8.50464 6.9373 8.42214 6.9043C8.45514 6.9373 8.58714 7.10229 8.42214 7.21779ZM7.49815 8.20778C7.59715 8.20778 7.63015 8.17478 7.76215 8.17478C7.89414 8.17478 8.20764 8.35628 8.38914 8.29028C8.00964 8.43878 8.15814 8.33978 7.49815 8.33978H7.41565M8.45514 8.43878C8.38914 8.32328 8.40564 8.35628 8.27364 8.17478C8.40564 8.27378 8.43864 8.32328 8.45514 8.43878ZM7.49815 8.60378C7.91064 8.60378 7.84464 8.52128 8.38914 8.29028C7.99314 8.33978 7.91064 8.47178 7.49815 8.47178H7.41565M7.49815 7.99328C7.61365 7.99328 7.64665 7.91079 7.77865 7.91079C7.91064 7.91079 8.09214 7.96028 8.17464 8.02628C8.19114 8.04278 8.12514 7.89429 7.99314 7.87779C7.86114 7.86129 7.91064 7.64679 7.76215 7.61379C7.76215 7.67979 7.81164 7.66329 7.82814 7.76229C7.82814 7.84479 7.67965 7.84479 7.64665 7.76229C7.67965 7.89429 7.58065 7.89429 7.49815 7.89429" fill="black"/>
<path d="M6.16163 6.77223C6.27713 6.90423 6.34313 6.67323 6.75563 6.67323C7.16812 6.67323 7.23412 6.92073 7.30012 6.87123C7.36612 6.82173 6.95362 6.52473 6.82163 6.50823C6.68963 6.49173 6.31013 6.62373 6.16163 6.77223ZM6.64013 6.92073C6.52463 7.01973 6.62363 7.23423 6.73913 7.23423C6.85463 7.23423 7.06912 7.03623 6.97012 6.90423" fill="black"/>
<path d="M7.18463 7.06913C7.16813 6.87113 7.00313 6.83813 6.73914 6.83813C6.47514 6.83813 6.35964 7.03613 6.26064 7.08563C6.37614 7.08563 6.47514 6.92063 6.73914 6.92063C7.00313 6.92063 7.00313 6.92063 7.18463 7.08563M7.13513 7.11863C7.06913 7.01963 6.98663 7.21763 6.80514 7.21763C6.62364 7.21763 6.52464 7.16813 6.40914 7.08563C6.29364 7.00313 6.57414 7.28363 6.75564 7.28363C6.93713 7.28363 7.18463 7.18463 7.13513 7.11863Z" fill="black"/>
<path d="M6.57414 7.21779C6.35964 7.10229 6.49164 6.9373 6.57414 6.9043C6.54114 6.9373 6.40914 7.10229 6.57414 7.21779ZM7.49813 8.20778C7.39913 8.20778 7.36613 8.17478 7.23413 8.17478C7.10213 8.17478 6.78864 8.35628 6.60714 8.29028C6.98663 8.43878 6.83814 8.33978 7.49813 8.33978H7.58063M6.54114 8.43878C6.60714 8.32328 6.59064 8.35628 6.72264 8.17478C6.59064 8.27378 6.55764 8.32328 6.54114 8.43878ZM7.49813 8.60378C7.08563 8.60378 7.15163 8.52128 6.60714 8.29028C7.00313 8.33978 7.08563 8.47178 7.49813 8.47178H7.58063M7.49813 7.99328C7.38263 7.99328 7.34963 7.91079 7.21763 7.91079C7.08563 7.91079 6.90414 7.96028 6.82164 8.02628C6.80514 8.04278 6.87114 7.89429 7.00313 7.87779C7.13513 7.86129 7.08563 7.64679 7.23413 7.61379C7.23413 7.67979 7.18463 7.66329 7.16813 7.76229C7.16813 7.84479 7.31663 7.84479 7.34963 7.76229C7.31663 7.89429 7.41563 7.89429 7.49813 7.89429" fill="black"/>
<path d="M7.49814 8.7522C7.41564 8.7522 7.20114 8.8017 7.49814 8.8017C7.79513 8.8017 7.58063 8.7522 7.49814 8.7522Z" fill="black"/>
</g>
<defs>
<clipPath id="clip0_3_4635">
<rect width="36" height="27" fill="white"/>
</clipPath>
</defs>
</svg>
