<svg width="24" height="24" viewBox="0 0 24 24" fill="none" xmlns="http://www.w3.org/2000/svg">
<g clip-path="url(#clip0_2_465)">
<rect width="24" height="24" rx="12" fill="white"/>
<g clip-path="url(#clip1_2_465)">
<path fill-rule="evenodd" clip-rule="evenodd" d="M0 0H44.175V1.8469H0V0ZM0 3.69375H44.175V5.54065H0V3.69375ZM0 7.3828H44.175V9.23435H0V7.3828ZM0 11.0766H44.175V12.9234H0V11.0766ZM0 14.7703H44.175V16.6172H0V14.7703ZM0 18.4594H44.175V20.3062H0V18.4594ZM0 22.1531H44.175V24H0V22.1531Z" fill="#BD3D44"/>
<path fill-rule="evenodd" clip-rule="evenodd" d="M0 1.84692H44.175V3.69377H0V1.84692ZM0 5.54062H44.175V7.38282H0V5.54062ZM0 9.22972H44.175V11.0766H0V9.22972ZM0 12.9235H44.175V14.7703H0V12.9235ZM0 16.6172H44.175V18.4641H0V16.6172ZM0 20.3063H44.175V22.1532H0V20.3063Z" fill="white"/>
<path fill-rule="evenodd" clip-rule="evenodd" d="M0 0H17.6691V12.9234H0V0Z" fill="#192F5D"/>
<path fill-rule="evenodd" clip-rule="evenodd" d="M1.47129 0.553101L1.63477 1.06395H2.15247L1.73464 1.37805L1.89362 1.89365L1.47129 1.5749L1.05352 1.88895L1.21244 1.37805L0.790161 1.06395H1.31692L1.47129 0.553101ZM4.41842 0.553101L4.57734 1.06395H5.09955L4.67722 1.37805L4.83619 1.89365L4.41842 1.5749L3.99609 1.88895L4.15502 1.37805L3.73724 1.06395H4.25494L4.41842 0.553101ZM7.361 0.553101L7.52447 1.064H8.03762L7.61985 1.3781L7.77872 1.8937L7.35645 1.57495L6.93867 1.889L7.0976 1.3781L6.67527 1.064H7.19752L7.361 0.553101ZM10.3081 0.553101L10.467 1.064H10.9893L10.5669 1.3781L10.7304 1.8937L10.3081 1.57495L9.8858 1.889L10.0493 1.3781L9.62695 1.064H10.1447L10.3081 0.553101ZM13.2507 0.553101L13.4142 1.064H13.9318L13.5141 1.3781L13.673 1.8937L13.2507 1.57495L12.8329 1.889L12.9919 1.3781L12.5741 1.064H13.0917L13.2507 0.553101ZM16.1978 0.553101L16.3567 1.064H16.879L16.4566 1.3781L16.6201 1.8937L16.1978 1.57495L15.7755 1.889L15.9389 1.3781L15.5167 1.064H16.0389L16.1978 0.553101ZM2.94713 1.84675L3.10605 2.35775H3.62826L3.20593 2.67175L3.36035 3.18275L2.95164 2.86865L2.52936 3.1827L2.67918 2.6718L2.27051 2.3577H2.78821L2.94713 1.84675ZM5.88971 1.84675L6.05319 2.35775H6.57084L6.14851 2.67175L6.31204 3.18275L5.88966 2.86865L5.46738 3.1827L5.63086 2.6718L5.20853 2.3577H5.73074L5.88971 1.84675ZM8.83684 1.84675L8.99572 2.35775H9.51797L9.09564 2.67175L9.25457 3.18275L8.83679 2.86865L8.41451 3.1827L8.57344 2.67185L8.15566 2.35775H8.67336L8.83684 1.84675ZM11.7794 1.84675L11.9429 2.35775H12.4605L12.0382 2.67175L12.2017 3.18275L11.7794 2.86865L11.3616 3.1827L11.5206 2.6718L11.0982 2.3577H11.625L11.7794 1.84675ZM14.7265 1.84675L14.8854 2.35775H15.4077L14.9854 2.67175L15.1443 3.18275L14.7265 2.86865L14.3042 3.1827L14.4631 2.6718L14.0454 2.3577H14.563L14.7265 1.84675ZM1.47129 3.13595L1.63477 3.65625H2.15247L1.73464 3.9703L1.89362 4.48125L1.47129 4.1625L1.05352 4.48125L1.21244 3.9656L0.790161 3.6516H1.31692L1.47129 3.13595ZM4.41842 3.13595L4.57734 3.65145H5.09955L4.67722 3.9655L4.83619 4.4765L4.41842 4.1577L3.99609 4.47645L4.15502 3.96085L3.73724 3.6468H4.25494L4.41842 3.13595ZM7.361 3.13595L7.52447 3.65155H8.03762L7.61985 3.9656L7.77872 4.4766L7.35645 4.1578L6.93867 4.47655L7.0976 3.96095L6.67527 3.6469H7.19752L7.361 3.13595ZM10.3081 3.13595L10.467 3.65155H10.9893L10.5669 3.9656L10.7304 4.4766L10.3081 4.1578L9.8858 4.47655L10.0493 3.96095L9.62695 3.6469H10.1447L10.3081 3.13595ZM13.2507 3.13595L13.4142 3.65155H13.9318L13.5141 3.96555L13.673 4.47655L13.2507 4.15775L12.8329 4.4765L12.9919 3.9609L12.5741 3.64685H13.0917L13.2507 3.13595ZM16.1978 3.13595L16.3567 3.65155H16.879L16.4566 3.9656L16.6201 4.4766L16.1978 4.1578L15.7755 4.47655L15.9389 3.96095L15.5167 3.6469H16.0389L16.1978 3.13595ZM2.94713 4.42965L3.10605 4.9406H3.62826L3.20593 5.2546L3.3649 5.77025L2.94713 5.4515L2.5248 5.76555L2.68373 5.25465L2.26595 4.9406H2.7837L2.94713 4.42965ZM5.88971 4.42965L6.05319 4.9406H6.57084L6.14851 5.2546L6.31204 5.77025L5.88966 5.4515L5.46738 5.76555L5.63086 5.25465L5.20853 4.9406H5.73074L5.88971 4.42965ZM8.83684 4.42965L8.99572 4.9406H9.51797L9.09564 5.2546L9.25457 5.77025L8.83679 5.4515L8.41451 5.76555L8.57344 5.25465L8.15566 4.9406H8.67336L8.83684 4.42965ZM11.7794 4.42965L11.9429 4.9406H12.4605L12.0428 5.2546L12.2017 5.77025L11.7794 5.4515L11.3616 5.76555L11.5206 5.25465L11.0982 4.9406H11.625L11.7794 4.42965ZM14.7265 4.42965L14.8854 4.9406H15.4077L14.9854 5.2546L15.1443 5.77025L14.7265 5.4515L14.3042 5.76555L14.4631 5.25465L14.0454 4.9406H14.563L14.7265 4.42965ZM1.47129 5.7234L1.63477 6.23435H2.15247L1.73464 6.54835L1.89362 7.064L1.47129 6.74525L1.05352 7.0593L1.21244 6.5484L0.790161 6.23435H1.31692L1.47129 5.7234ZM4.41842 5.7234L4.57734 6.23435H5.09955L4.67722 6.54835L4.83619 7.05935L4.41842 6.74525L3.99609 7.0593L4.15502 6.5484L3.73724 6.23435H4.25494L4.41842 5.7234ZM7.361 5.7234L7.52447 6.23435H8.03762L7.61985 6.54835L7.77872 7.064L7.35645 6.74525L6.93867 7.0593L7.0976 6.5484L6.67527 6.23435H7.19752L7.361 5.7234ZM10.3081 5.7234L10.467 6.23435H10.9893L10.5669 6.54835L10.7304 7.064L10.3081 6.74525L9.8858 7.0593L10.0493 6.5484L9.62695 6.23435H10.1447L10.3081 5.7234ZM13.2507 5.7234L13.4142 6.23435H13.9318L13.5141 6.54835L13.673 7.064L13.2507 6.74525L12.8329 7.0593L12.9919 6.5484L12.5741 6.23435H13.0917L13.2507 5.7234ZM16.1978 5.7234L16.3567 6.23435H16.879L16.4566 6.54835L16.6201 7.064L16.1978 6.74525L15.7755 7.0593L15.9389 6.5484L15.5167 6.23435H16.0389L16.1978 5.7234ZM2.94713 7.01715L3.10605 7.5281H3.62826L3.20593 7.8421L3.3649 8.3531L2.94713 8.03435L2.5248 8.3531L2.68373 7.83745L2.26595 7.5234H2.7837L2.94713 7.01715ZM5.88971 7.01715L6.05319 7.5281H6.57084L6.14851 7.8421L6.31204 8.3531L5.88966 8.03435L5.46738 8.3531L5.63086 7.83745L5.20853 7.5234H5.73074L5.88971 7.01715ZM8.83684 7.01715L8.99572 7.5281H9.51797L9.09564 7.8421L9.25457 8.3531L8.83679 8.03435L8.41451 8.3531L8.57344 7.83745L8.15566 7.5234H8.67336L8.83684 7.01715ZM11.7794 7.01715L11.9429 7.5281H12.4605L12.0428 7.8421L12.2017 8.3531L11.7794 8.03435L11.3616 8.3531L11.5206 7.83745L11.0982 7.5234H11.625L11.7794 7.01715ZM14.7265 7.01715L14.8854 7.5281H15.4077L14.9854 7.8421L15.1443 8.3531L14.7265 8.03435L14.3042 8.3531L14.4631 7.83745L14.0454 7.5234H14.563L14.7265 7.01715ZM1.47129 8.3062L1.63477 8.82185H2.15247L1.73464 9.13585L1.89362 9.64215L1.47129 9.3281L1.05352 9.6421L1.21244 9.1312L0.790161 8.81715H1.31692L1.47129 8.3062ZM4.41842 8.3062L4.57734 8.82185H5.09955L4.67722 9.13585L4.84075 9.64215L4.41837 9.3281L3.99609 9.6421L4.15957 9.1312L3.73724 8.81715H4.25494L4.41842 8.3062ZM7.361 8.3062L7.52447 8.82185H8.03762L7.61985 9.13585L7.77872 9.64215L7.35645 9.3281L6.93867 9.6421L7.0976 9.1312L6.67527 8.81715H7.19752L7.361 8.3062ZM10.3081 8.3062L10.467 8.82185H10.9893L10.5669 9.13585L10.7304 9.64215L10.3081 9.3281L9.8858 9.6421L10.0493 9.1312L9.62695 8.81715H10.1447L10.3081 8.3062ZM13.2507 8.3062L13.4142 8.82185H13.9318L13.5141 9.13585L13.673 9.64215L13.2507 9.3281L12.8329 9.6421L12.9919 9.1312L12.5741 8.81715H13.0917L13.2507 8.3062ZM16.1978 8.3062L16.3567 8.82185H16.879L16.4566 9.13585L16.6201 9.64215L16.1978 9.3281L15.7755 9.6421L15.9389 9.1312L15.5167 8.81715H16.0389L16.1978 8.3062ZM2.94713 9.59995L3.10605 10.1109H3.62826L3.20593 10.425L3.3649 10.9406L2.94713 10.6219L2.5248 10.9359L2.68373 10.425L2.26595 10.1109H2.7837L2.94713 9.59995ZM5.88971 9.59995L6.05319 10.1109H6.57084L6.14851 10.425L6.31204 10.9406L5.88966 10.6219L5.46738 10.9359L5.63086 10.425L5.20853 10.1109H5.73074L5.88971 9.59995ZM8.83684 9.59995L8.99572 10.1109H9.51797L9.09564 10.425L9.25457 10.9406L8.83679 10.6219L8.41451 10.9359L8.57344 10.425L8.15566 10.1109H8.67336L8.83684 9.59995ZM11.7794 9.59995L11.9429 10.1109H12.4605L12.0428 10.425L12.2017 10.9406L11.7794 10.6219L11.3616 10.9359L11.5206 10.425L11.0982 10.1109H11.625L11.7794 9.59995ZM14.7265 9.59995L14.8854 10.1109H15.4077L14.9854 10.425L15.1443 10.9406L14.7265 10.6219L14.3042 10.9359L14.4631 10.425L14.0454 10.1109H14.563L14.7265 9.59995ZM1.47129 10.8937L1.63477 11.4047H2.15247L1.73464 11.7187L1.89362 12.2297L1.47129 11.9156L1.05352 12.2296L1.21244 11.714L0.790161 11.4H1.31692L1.47129 10.8937ZM4.41842 10.8937L4.57734 11.4047H5.09955L4.67722 11.7187L4.84075 12.2297L4.41837 11.9156L3.99609 12.2296L4.15957 11.714L3.73724 11.4H4.25494L4.41842 10.8937ZM7.361 10.8937L7.52447 11.4047H8.03762L7.62891 11.7187L7.78783 12.2297L7.3655 11.9156L6.94773 12.2296L7.1067 11.714L6.68437 11.4H7.20658L7.361 10.8937ZM10.3081 10.8937L10.467 11.4047H10.9893L10.5669 11.7187L10.7304 12.2297L10.3081 11.9156L9.8858 12.2296L10.0493 11.714L9.62695 11.4H10.1447L10.3081 10.8937ZM13.2507 10.8937L13.4142 11.4047H13.9318L13.5141 11.7187L13.673 12.2297L13.2507 11.9156L12.8329 12.2296L12.9919 11.714L12.5741 11.4H13.0917L13.2507 10.8937ZM16.1978 10.8937L16.3567 11.4047H16.879L16.4566 11.7187L16.6201 12.2297L16.1978 11.9156L15.7755 12.2296L15.9389 11.714L15.5167 11.4H16.0389L16.1978 10.8937Z" fill="white"/>
</g>
</g>
<defs>
<clipPath id="clip0_2_465">
<rect width="24" height="24" rx="12" fill="white"/>
</clipPath>
<clipPath id="clip1_2_465">
<rect width="31" height="24" fill="white"/>
</clipPath>
</defs>
</svg>
