<svg width="24" height="24" viewBox="0 0 24 24" fill="none" xmlns="http://www.w3.org/2000/svg">
<g clip-path="url(#clip0_2_475)">
<rect width="24" height="24" rx="12" fill="white"/>
<g clip-path="url(#clip1_2_475)">
<path d="M-2 12H31V24H-2V12Z" fill="#00AB39"/>
<path d="M-2 0H31V12H-2V0Z" fill="white"/>
<path d="M19.6047 3.54004H19.5995H19.6047ZM19.5995 3.54004C17.5571 4.60587 15.6265 5.86178 13.8348 7.29004C12.9583 8.03504 13.2058 8.62504 13.1697 9.29004C13.2006 9.74004 13.0717 10.16 12.7881 10.41L10.8391 10.79L10.6534 10.27C10.7101 10 10.937 9.87004 11.4217 10.035C11.4578 9.69504 11.1691 9.55504 10.8391 9.43504C10.7205 9.34504 10.5812 9.28504 10.5967 8.98504C10.5452 8.31004 11.6589 9.03504 11.6692 9.03504C11.6795 9.03504 11.628 8.35004 11.1175 8.21504C10.8391 8.12004 10.7205 7.83504 10.8287 7.62504C11.0505 7.19004 11.4733 7.65504 11.793 7.67504C11.7826 7.39004 11.7001 7.19004 11.4475 6.96504C11.3134 6.88004 10.9834 6.82004 10.9731 6.68504C10.968 6.50504 11.2825 6.42504 11.7208 6.47504C11.628 6.22004 11.3341 6.05504 10.9319 5.93504L10.6947 5.53004C10.5812 5.33004 10.5297 5.32004 10.7927 4.94004C11.0247 4.79004 11.3392 4.58004 11.5764 4.43504L11.3186 4.40504C11.3495 4.13004 11.3547 4.03504 11.4217 3.58004C11.1639 3.91504 10.8545 3.85504 10.5658 3.99004C10.5658 3.99004 9.7614 4.13004 9.49843 4.46504L7.46687 4.36504C7.03374 4.42004 6.66765 4.54004 6.59546 4.94504C5.61062 5.04504 4.57937 4.96004 3.82656 5.87004C4.34218 5.85004 4.78562 5.73004 5.36312 5.80004C5.36312 5.80004 5.85296 5.81004 5.95093 6.31504C5.96124 6.33504 6.12109 6.33504 6.12109 6.33504L6.30671 6.47504L6.3789 6.28504L6.5439 6.39504L6.59546 6.18504L6.76046 6.29504L6.77078 6.04504L6.98734 6.19504V5.86004C6.98734 5.86004 7.79171 5.86004 8.03921 6.36004C8.04953 6.36504 5.78593 6.76004 3.59968 6.57504L4.22874 6.27504C3.43468 6.11504 2.68187 5.97504 1.98062 5.44004C2.24359 6.41004 3.61515 7.54504 3.89874 7.54004L3.63062 7.07004L6.00249 7.17004C6.09015 7.42504 6.05406 7.71004 6.26031 7.93504C6.26031 7.93504 6.1314 8.35504 6.42531 8.52504C6.43562 8.54504 6.77078 7.67504 6.77078 7.67504C6.77078 7.67504 6.8739 7.91004 6.97703 8.06504C7.13171 7.31504 7.97734 7.19004 7.97734 7.19004L8.15265 7.59004C7.88968 7.63004 7.55968 8.15004 7.74015 8.44004C7.55968 8.44004 7.24515 8.94504 7.34312 9.22004C7.19359 9.36504 6.82749 9.55504 6.91515 10.16C6.6264 10.22 6.45109 10.735 6.5439 11.285C6.09015 11.69 6.20359 12.435 6.60578 12.74C6.44078 12.89 6.33765 12.995 6.33765 13.175C6.17781 13.12 6.02828 13.165 5.96124 13.265C5.76531 13.07 5.48687 12.905 5.29093 13.085C5.23937 12.855 4.92999 12.605 4.59484 12.635C4.60861 12.4911 4.56965 12.347 4.48478 12.2282C4.39992 12.1093 4.27458 12.0232 4.13078 11.985C4.13078 11.985 4.05343 10.855 3.70281 10.485C3.66671 10.285 3.72343 10.145 4.01218 9.97504C4.30609 9.82504 4.36796 9.71004 4.34218 9.28004C4.46078 8.99504 4.54843 8.70504 4.18749 8.51004C4.19781 8.85004 4.09468 9.01004 3.95031 9.16004C3.78015 9.14004 3.72343 9.33004 3.60999 9.41004C3.45015 9.20504 3.94515 8.88004 3.57906 8.41504C3.55843 8.39504 3.32124 7.81504 2.73859 7.82504C3.01187 7.98004 3.13046 8.24504 3.13046 8.52004C2.91556 8.98087 2.88253 9.50216 3.03765 9.98504C2.79531 9.63504 2.65609 8.96504 2.45499 8.85004C2.27968 8.81504 2.19718 8.41504 1.5114 8.53004C1.80531 8.60504 1.90328 8.82504 1.97546 9.02004C1.80015 9.11004 1.88781 9.35004 2.02187 9.51504C1.99609 9.90004 2.23328 10.125 2.58906 10.265L2.41374 11.85C2.27453 11.835 2.05281 12.37 1.97031 12.385C1.83109 12.47 1.58874 12.695 1.86718 12.76C1.78468 13.045 1.70734 13.22 1.2639 13.28C1.2639 13.28 1.72796 13.55 2.11984 13.09C2.53234 13.08 2.39828 12.6 2.59937 12.39C2.59937 12.375 2.71796 12.305 2.88296 11.88C2.95515 12.26 3.35734 13.42 4.25968 13.995C5.04859 14.815 5.70343 15.59 5.69312 16.68C5.99606 16.357 6.21368 15.9675 6.32734 15.545C6.84177 15.3954 7.3793 15.3345 7.91546 15.365C7.82265 15.56 7.71437 15.745 7.84843 15.865C7.46687 15.995 7.38437 16.265 7.53906 16.53C7.13687 16.795 7.11109 16.965 7.10593 17.405C6.35828 18.33 5.89937 18.3 5.16203 18.055C4.92484 17.92 4.54328 17.725 4.37312 17.83C4.05859 17.62 3.59968 17.59 3.52234 18.06C3.76468 17.865 3.9039 17.905 4.09468 18.09C4.05859 18.185 4.02765 18.275 4.16687 18.33L3.98124 18.53C3.64093 18.48 3.17687 18.48 3.05828 18.965C3.23359 18.82 3.62546 18.79 3.93484 18.925L4.11531 18.985L4.13593 19.215C4.13593 19.215 3.67187 19.145 3.54812 19.88C3.98124 19.43 4.29062 19.545 4.29062 19.545C4.46078 19.785 5.07953 19.75 5.52812 19.355C6.15203 19.015 6.33765 19.505 6.73984 19.185C7.07499 18.945 7.47203 19.105 7.74531 19.385C8.05984 19.5 8.38984 19.595 8.64765 19.385C8.64765 19.385 8.96734 19.19 9.28187 19.505C9.28187 19.155 9.02406 18.96 8.67343 18.955L8.57031 18.855C8.23515 18.785 7.8639 18.815 7.56999 18.655C7.68398 18.1503 7.93498 17.6842 8.29703 17.305C8.77656 16.805 9.13234 16.575 9.74078 15.81C9.71499 16.245 10.0553 16.725 10.2358 17.16C10.2358 17.16 10.5967 16.605 10.6483 16.145C10.6637 16.145 11.1072 15.925 11.2928 15.73C11.695 15.975 12.3447 15.54 12.7675 15.18C13.0253 15.28 13.2264 15.27 13.5255 15.18C13.2831 15.66 13.6647 16.105 14.2731 16.29C14.3247 16.71 14.7681 16.8 15.4333 16.8C15.4642 17.05 15.8612 17.085 15.8612 17.085C15.6034 17.195 15.4797 17.31 15.4848 17.565C15.227 17.565 15.0362 17.63 14.9692 17.915C14.6134 17.925 14.2525 17.95 13.9483 18.115C13.6234 18.07 13.2264 17.94 12.9737 17.685C12.8448 17.58 12.8087 17.425 12.5819 17.365C12.4375 17.2 12.2622 17.235 12.2055 17.395C12.0559 17.28 11.4939 17.23 11.3959 17.745C11.6641 17.56 11.8961 17.49 12.0662 17.72C11.9734 17.875 12.2828 17.97 12.5509 18.03C12.7417 18.04 13.0769 18.21 13.18 18.49C13.0354 18.5306 12.8834 18.54 12.7346 18.5176C12.5858 18.4951 12.4439 18.4413 12.3189 18.36C12.2261 18.285 12.1111 18.2407 11.9905 18.2335C11.8699 18.2263 11.7501 18.2566 11.6486 18.32C11.4217 18.18 10.8906 18.445 10.87 18.865C11.0917 18.665 11.298 18.565 11.5042 18.695C11.4011 18.715 11.4372 18.725 11.4527 18.785L11.9683 19.075C11.7105 19.14 11.4733 19.24 11.5867 19.7C11.5867 19.7 11.793 19.3 12.257 19.45C12.2673 19.435 12.3241 19.59 12.4581 19.485C12.6592 19.265 13.1181 19.165 13.5255 19.125C13.8503 19.09 14.1752 18.995 14.4536 19.175C14.7114 19.05 14.9898 18.965 15.2786 19.165C15.6189 19.265 15.8664 19.655 16.2944 19.48C16.5109 19.33 16.7739 19.33 17.042 19.62C17.042 19.25 16.7584 19.125 16.3562 19.045L16.0778 18.885C15.82 18.845 15.5622 18.89 15.2992 18.77C15.9157 18.6267 16.4965 18.3653 17.0074 18.0012C17.5183 17.6371 17.9491 17.1778 18.2744 16.65L18.9189 16.87C19.0736 16.88 19.0839 16.93 19.3984 17.02C19.4087 16.575 19.2077 16.115 18.3775 16.07L17.2947 15.67C17.0575 15.43 16.9544 14.925 17.2483 14.63C17.537 14.38 17.5886 14.41 17.7794 14.105C18.0114 14.085 18.228 14.315 18.4394 14.315C18.5425 14.61 19.1303 14.865 19.5016 14.78C19.7336 14.98 20.1719 15.09 20.6617 14.93C20.8013 15.0563 20.9772 15.1383 21.1661 15.1651C21.3549 15.1919 21.5477 15.1622 21.7187 15.08C21.8322 15.19 22.0694 15.28 22.3375 15.22C22.3633 15.22 22.4819 15.51 22.7758 15.615C22.6469 15.735 22.7242 16.265 22.8634 16.46C22.7637 16.6579 22.7471 16.8855 22.817 17.095C22.518 17.28 22.4561 17.42 22.5902 17.735C22.1983 18.35 21.7291 18.42 21.2856 18.235L20.8061 17.935L20.3008 17.455C20.2131 17.375 20.0327 17.355 19.9966 17.525C19.9966 17.525 19.3469 17.385 19.2902 17.92C19.5634 17.665 19.945 17.89 19.945 17.9C19.945 17.91 19.8522 17.97 19.9244 18.07C19.9398 18.055 20.4039 18.235 20.8112 18.405C21.033 18.49 21.0845 18.515 21.1825 18.565C21.0594 18.5103 20.9356 18.457 20.8112 18.405C20.6323 18.325 20.4404 18.276 20.2441 18.26C20.0172 18.24 19.7697 18.21 19.6562 18.38C19.4087 18.48 19.0169 18.565 19.0375 19.015C19.2025 18.745 19.4345 18.76 19.7284 18.785L19.7078 18.845C20.0275 18.985 19.9656 18.805 20.2647 18.78C20.5332 18.7761 20.8003 18.8184 21.0536 18.905C20.8216 18.97 20.5019 18.94 20.3523 19.105C20.3214 19.155 20.2234 19.135 20.2698 19.265C20.2698 19.265 19.8058 19.255 19.6872 19.865C20.1512 19.58 20.507 19.59 20.5122 19.59L20.6617 19.62L21.2289 19.255C21.2444 19.255 21.7755 19.025 22.0178 19.285C22.2344 19.385 22.4612 19.395 22.6881 19.265C23.1212 19.08 23.5286 19.065 23.9256 19.325L24.2917 19.535L24.4464 19.435C24.4464 19.435 24.8589 19.325 25.158 19.68C25.0342 19.065 24.5805 19.045 24.5805 19.045L24.4773 18.955L23.838 18.71C23.74 18.485 23.508 18.31 23.74 18.04C23.9823 16.885 24.2659 16.02 23.8019 14.85C24.235 15.03 24.5598 15.59 25.1012 15.395C25.1012 14.925 23.3172 14.03 21.9559 13.315C24.1937 13.2 26.875 11.605 25.8437 9.57504L26.3284 8.10504C26.5605 8.55504 27.0245 8.89504 27.4422 9.04004C27.0967 8.40504 26.9008 6.46004 27.0967 5.12004C26.1846 6.18187 25.201 7.18406 24.1525 8.12004C24.6681 8.24004 25.127 8.15504 25.6272 8.09504L25.2044 8.94504C23.8328 8.16004 22.2241 8.74504 22.2137 9.78504C22.2602 10.995 23.8019 11.17 24.6939 10.745C24.5186 11.85 21.8992 11.445 21.8992 11.445C20.9711 11.135 20.0894 11.185 19.1148 11.195C19.3159 10.59 20.44 10.05 21.3011 10.29C20.0997 8.98004 21.4712 7.35504 23.1264 6.86004C21.3217 6.28004 22.8737 4.94504 24.2247 3.99004C24.2247 3.99004 20.342 5.57504 19.9862 5.57004C18.8828 5.49004 19.1819 4.22004 19.6047 3.54004H19.5995ZM7.41015 5.06004C7.50296 5.06004 7.60609 5.07004 7.69374 5.09004C7.86906 5.13504 8.08046 5.15504 8.08046 5.21004C7.99796 5.34004 7.79687 5.49504 7.60093 5.49004C7.40499 5.48004 7.29156 5.36504 7.22968 5.08004C7.25031 5.07004 7.32249 5.06004 7.41015 5.06004ZM23.7555 9.53004C24.0133 9.53004 24.3175 9.63004 24.6114 9.94004C24.4722 10.34 23.2295 10.54 23.147 9.95004C23.1212 9.77004 23.3842 9.53504 23.7555 9.53004Z" fill="#D21034" stroke="black" stroke-width="0.175"/>
<path d="M8.69405 8.56007L8.88483 8.82507M8.87452 8.83007C8.87452 8.83007 8.87452 9.19007 8.95186 9.19507M8.78171 9.39007L8.97764 9.70507M8.43624 9.78507C8.44655 9.78507 8.67858 10.0451 8.67858 10.0451M8.87968 9.84507C8.87968 9.85507 9.09624 10.2501 9.11171 10.2501M8.59608 10.1201C8.59608 10.1201 8.66827 10.6001 8.7353 10.5851M8.27124 11.0001L8.4878 11.3251M8.67858 10.6601C8.67858 10.6601 8.79718 11.1151 8.88999 11.0751M8.98796 10.3851C8.99311 10.3951 9.20968 10.6901 9.26639 10.6501M9.21483 10.7651L9.42108 11.1651M8.87452 11.0751L9.04468 11.5451M8.47749 11.3151C8.47749 11.3151 8.63218 11.8201 8.77139 11.7401M8.42077 11.9901C8.42077 11.9901 8.43108 12.2551 8.56514 12.2701M8.65796 11.8551C8.65796 11.8651 8.79718 12.0451 8.79718 12.0451M9.05499 11.5401L9.16327 11.7151M9.41593 11.2151L9.58608 11.4201M8.62186 8.83507C8.62702 9.06007 8.99311 8.75507 9.13749 8.56507M8.46718 9.61507C8.46718 9.61507 8.86421 9.34007 9.17358 8.92507M8.33311 10.2701C8.61671 10.1951 9.13749 9.58507 9.24061 9.26007M8.27639 10.8751C8.35374 10.9101 9.32311 10.2251 9.34889 9.73007M8.25061 11.4001C8.25061 11.3951 9.13749 11.1801 9.50358 10.2351M8.20936 12.1151C8.20936 12.1151 9.62733 11.2901 9.70468 10.6851M19.2644 13.5001C19.2644 13.5001 19.1715 14.2101 18.4394 14.3201M19.4964 14.7701C19.5015 14.7601 20.1976 14.0201 20.0172 13.7951M21.1051 14.0551C21.1051 14.0551 21.0948 14.5701 20.6617 14.9251M21.9714 14.2051C21.9714 14.2051 21.9869 14.8251 21.7136 15.0751M22.7655 14.5751C22.7655 14.5751 22.4561 15.1601 22.3478 15.2201M22.7551 15.6101C22.7551 15.6101 23.1573 15.7101 23.2862 15.4501M22.8583 16.4551C22.8583 16.4551 23.2295 16.5201 23.4048 16.1751M22.817 17.1101C22.817 17.1101 23.1212 17.3601 23.3275 17.0301M18.4806 12.3101C18.4806 12.3101 18.4445 13.5751 20.275 13.8301C22.322 14.3801 23.2914 14.0901 23.41 16.3151C23.3326 17.1651 23.2244 18.1151 22.585 17.7501M16.5315 13.4751C16.5315 13.4751 16.8255 13.9801 17.1761 13.9451C17.6401 13.8151 17.8103 14.0901 17.8103 14.0901M15.2837 13.9801C15.2837 13.9801 16.0572 14.3451 16.712 13.7551M15.3714 13.4551C15.4384 14.3301 14.335 14.8301 13.8967 14.7451M15.423 16.7951C15.4281 16.7951 16.0211 16.4551 15.9025 16.2151M14.2473 16.2901C14.2628 16.2701 15.2425 16.1801 15.423 15.8401M13.7936 14.8901C13.7936 14.8901 15.1806 14.9001 15.2734 15.1451M15.6344 14.0951C15.6344 14.0951 14.2834 16.3401 16.7791 16.3401M14.2009 14.0651C14.2009 14.0651 13.9122 14.9001 13.4997 15.1851M12.7675 13.7751C12.7675 13.7751 13.2676 14.7151 12.7675 15.1801M11.4578 14.0401C11.463 14.0551 11.6176 15.3751 11.2773 15.7501M10.803 14.0801C10.803 14.0801 10.8545 14.9201 10.5967 15.2201C10.3389 15.5201 10.6586 16.1401 10.6586 16.1401M7.53905 16.5401C7.53905 16.5401 7.72468 16.8551 7.97733 16.7451M7.84843 15.8551C7.84843 15.8551 8.26093 16.0301 8.40014 15.9651M8.29702 14.4451C8.29702 14.4451 7.68858 14.6101 7.92061 15.3101C8.27124 15.5851 8.61155 15.5401 8.61155 15.5401M7.09561 17.4101C7.09046 17.4101 7.1678 17.9601 7.55968 17.5451C7.83296 16.9851 8.69405 15.4151 8.89514 14.8751M9.29733 14.6201C9.29733 14.6201 8.87968 14.3051 8.89514 14.7451C8.88483 15.0201 9.02405 15.0851 9.02405 15.0851C9.03952 15.2851 9.21999 15.5651 9.36436 15.3101C9.42624 15.0601 9.32311 14.9501 9.32311 14.9501M9.56546 14.5001C9.18905 14.4801 8.9828 15.2851 9.70983 14.7801M9.95733 14.2301C9.95733 14.2301 9.86452 14.3551 9.71499 14.2201C9.63764 14.0901 9.36436 14.8201 9.84389 14.8451C9.93155 14.6301 10.1945 14.5701 10.1945 14.5701M10.4214 13.8801C10.4214 13.8801 10.2048 13.9801 10.1275 13.9651C9.86968 14.0201 9.92124 14.6051 10.2461 14.5701C10.3595 14.4451 10.4781 14.2701 10.4781 14.2701M8.40014 13.1201C8.38983 13.1201 7.54936 14.4051 8.86936 14.7451M19.0787 11.1951C19.0787 11.1951 18.5631 11.6151 19.0426 12.2951C17.4442 12.2701 16.5934 12.9851 16.5264 13.4651C14.4948 13.3251 14.8661 13.9051 14.2061 14.0951C13.3244 13.3801 12.0301 13.7801 12.1126 14.4951C11.5248 13.6901 10.6173 14.0801 10.5039 14.2801C10.3956 14.4801 10.4369 13.2901 10.4369 13.2901C10.4369 13.2901 9.84389 13.5501 9.43655 14.0201V13.0251C8.94155 13.1251 8.46202 13.1251 7.95155 13.1151M6.61608 12.7501C6.61608 12.7501 7.35343 13.1501 8.26608 12.6101M6.55936 11.3151C6.55936 11.3151 7.12655 11.8151 8.20936 11.6551M6.9203 10.1701C6.9203 10.1701 7.04405 10.5751 8.27639 10.6001M7.3328 9.23007C7.3328 9.23007 7.79686 9.78007 8.42593 9.69507M7.72983 8.44507C7.72983 8.44507 7.9103 8.74507 8.59608 8.79507M8.13202 7.57007C8.13202 7.57007 8.49296 7.95007 8.90546 7.88507M10.2719 4.46507C10.2719 4.46507 10.4317 4.31507 10.6998 4.39007M10.1584 5.28007C10.1584 5.28007 9.66343 5.26507 9.69436 5.08007C9.73561 4.86007 10.2203 4.70507 10.2203 4.70507C10.2203 4.70507 10.8648 4.30507 10.9628 4.16507M8.04436 6.36507L8.67343 7.53007L8.97249 7.09007L9.12718 7.39007L9.38499 6.95507L9.82843 7.23007L9.66343 6.69507L10.0347 6.67007C10.0347 6.67007 9.93155 6.41507 9.60155 6.36007C9.68921 6.29507 9.99858 6.09507 9.99858 6.09507C9.99858 6.09507 9.82327 5.89507 9.54483 5.89007C9.63764 5.79507 9.76139 5.56507 9.75108 5.56507L9.4778 5.50507C9.4778 5.50507 10.1069 5.70507 10.5916 5.42507M9.3953 4.48507C9.40046 4.49007 9.35921 4.72507 9.22514 4.86007M6.97186 5.12507C6.97186 5.12507 7.35858 5.02507 7.64733 5.08007C7.93608 5.14007 8.3228 5.24007 8.3228 5.24007C8.3228 5.24007 8.78686 5.18007 8.93639 5.07507M6.00764 5.37507C6.00764 5.37507 5.95608 5.55507 5.93546 5.67507C5.93546 5.76007 5.65186 5.87507 5.65186 5.87507M6.18296 5.00507C6.18296 5.00507 6.43046 5.30507 6.44077 5.48007C6.44593 5.65007 6.25514 5.78007 6.25514 5.78007M3.6203 7.05007L3.36249 6.65007L3.59452 6.57007M8.26093 12.6201C8.05468 12.3601 8.41561 8.41007 9.17358 7.38007C8.91061 9.24007 9.79233 11.1401 10.0141 11.1301M5.94061 6.28007C5.94061 6.28007 6.29124 6.40507 7.00796 5.85007M7.98249 7.19007L8.49811 7.19507M23.9823 4.09507C23.9823 4.09507 15.3869 7.98507 15.2631 8.19507C16.712 7.76507 22.8686 6.77007 23.0181 6.85507C22.6572 6.94007 15.1858 8.60507 14.8351 9.00507C16.7017 8.94507 20.605 9.58507 21.2186 10.2051C19.8883 9.91507 15.9231 9.35007 14.7062 9.60007C15.5931 9.80507 18.9962 11.9401 18.9962 12.2801C18.4806 11.8051 14.3917 10.1701 14.2319 10.3301C15.1703 10.8751 16.4955 12.9001 16.4955 13.3951C16.2222 12.9751 13.8555 10.5101 13.7162 10.6701C13.9689 11.0051 14.4639 13.9151 14.2112 14.0501C14.2112 13.7001 13.2934 11.1501 13.2161 11.0801C13.0305 11.1301 11.86 14.1801 12.092 14.4701C11.9373 13.4501 12.1178 11.3201 12.4014 11.4051C11.8858 11.4801 10.2512 13.5751 10.4266 13.9051C10.4781 13.3801 10.5503 13.0351 11.4784 11.3001C10.4472 11.3601 8.3228 12.6551 7.96186 13.1201C8.25061 12.2951 10.0501 10.9001 10.8391 10.8001M14.5516 7.76507C15.4591 7.27507 18.264 6.28007 20.1409 5.54507M12.7881 10.3951C12.7881 10.3951 13.4069 10.3851 14.0256 8.75507C14.634 6.52507 19.4758 4.04007 19.5737 3.57507M4.59999 12.6401C4.59999 12.6401 4.45561 12.9401 4.2803 13.0201M5.29608 13.0901C5.29608 13.0901 5.1053 13.4501 5.05889 13.6201M5.96124 13.2701C5.96124 13.2701 6.11593 13.7601 5.98702 13.9901M4.11014 11.9851C3.62546 12.2501 4.38858 13.9351 6.69343 14.0951M6.32218 13.1851C6.32218 13.1851 6.2603 13.4851 6.69343 14.0851C6.56968 14.7551 7.21936 15.2801 7.47718 15.3651M6.13655 7.15507L6.20874 6.97507L6.28608 7.17507L6.41499 7.17007L6.49749 6.97007L6.56968 7.17007H6.69343L6.77077 6.95007L6.88936 7.16007H6.99249L7.06983 6.91007L7.22452 7.09007L7.28639 7.07007L7.33796 6.81007L7.4978 6.99007L7.54936 6.96507L7.62155 6.71507L7.75046 6.90007L7.81749 6.88007L7.87936 6.66507L8.00311 6.86507M5.99218 7.17507L6.96155 7.16007C7.27093 7.16007 7.77624 6.74507 8.33827 6.87507M3.96061 9.17507C3.96061 9.17507 4.12046 9.51507 4.34218 9.32507M3.58936 9.40007C3.58936 9.40007 3.27999 10.2101 3.65124 10.4001M3.14593 8.51007C3.14593 8.51007 3.14593 8.70007 3.55843 8.41007M1.88264 12.7451C1.88264 12.7451 2.20749 12.8451 2.15593 13.0801M2.00124 9.04007C2.00124 9.04007 2.20749 9.13507 2.40343 8.84007M4.16686 18.3251C4.48139 18.3051 4.55358 18.4451 4.83718 18.4451C5.17749 18.4551 5.50233 18.3251 5.91999 18.2101M8.65796 18.9601C8.64764 18.9601 8.50327 19.2501 8.63218 19.3951M4.12046 18.9851C4.12046 18.9851 4.62577 18.5851 4.89389 18.8301C5.14655 18.9151 5.28577 18.9001 5.28577 18.9001M4.38343 17.8351C4.38343 17.8351 4.50718 18.1451 4.09468 18.1001M3.97093 18.5501C3.97093 18.5501 4.23389 18.7101 3.93483 18.9251M4.13077 19.2151C4.13077 19.2151 4.49171 19.2651 4.2803 19.5501M15.49 17.5551C15.8561 17.8401 15.7066 18.0101 16.8616 17.2601M14.9641 17.9101C14.9641 17.9101 15.5055 18.4801 15.9025 17.7901M13.9276 18.1151L13.1903 18.4901M11.8703 19.0151C11.8703 19.0151 12.3189 18.6451 12.5251 18.8401C12.7366 19.0401 13.6234 18.6701 13.6234 18.6701M12.2055 17.4001C12.2055 17.4001 12.3601 17.7001 12.0611 17.7351M11.6228 18.3301C11.6228 18.3301 11.7775 18.6101 11.4784 18.6801M11.9683 19.0851C11.9683 19.0851 12.4323 19.1101 12.2673 19.4501M16.3098 19.0251C16.3098 19.0251 16.052 19.2351 16.2428 19.4751M20.0069 17.5251C20.0069 17.5251 20.3008 17.6651 19.9501 17.9001M19.6562 18.3951C19.6562 18.3951 19.878 18.6201 19.7284 18.8051M20.275 19.2551C20.275 19.2551 20.5792 19.3401 20.5431 19.5851M24.5547 19.0351C24.5547 19.0351 24.2969 19.2201 24.4361 19.4551M20.0172 11.8151C20.6256 11.7451 21.5022 13.0651 21.9508 13.3201M24.6269 9.95007C24.6269 9.95007 24.9362 10.2151 24.663 10.8501M25.1992 8.94007C25.2869 9.00507 25.6169 9.18007 25.8386 9.58007M26.05 6.97007L25.622 8.09507M26.5295 6.91507C26.5295 6.91507 26.447 7.91507 26.3233 8.11507M15.8406 17.0801C15.8406 17.0801 16.8203 17.1801 16.8719 17.2501C16.9853 17.1351 17.8619 16.4401 16.7842 16.3451C16.7346 16.5524 16.6146 16.7375 16.4435 16.8708C16.2724 17.004 16.0601 17.0778 15.8406 17.0801V17.0801ZM24.6062 9.94007C24.467 10.3401 23.2244 10.5401 23.1419 9.95007C23.0955 9.65007 23.8741 9.18507 24.6062 9.94007Z" stroke="black" stroke-width="0.175" stroke-linejoin="round"/>
<path d="M7.39984 5.06506L7.87937 5.15006C7.87937 5.15006 7.54422 5.59006 7.39984 5.06506Z" fill="black" stroke="black" stroke-width="0.175" stroke-linejoin="round"/>
</g>
</g>
<defs>
<clipPath id="clip0_2_475">
<rect width="24" height="24" rx="12" fill="white"/>
</clipPath>
<clipPath id="clip1_2_475">
<rect width="33" height="24" fill="white" transform="translate(-2)"/>
</clipPath>
</defs>
</svg>
